<?xml version="1.0" encoding="UTF-8" standalone="no"?>
<!-- Created with Inkscape (http://www.inkscape.org/) -->

<svg
   xmlns:dc="http://purl.org/dc/elements/1.1/"
   xmlns:cc="http://creativecommons.org/ns#"
   xmlns:rdf="http://www.w3.org/1999/02/22-rdf-syntax-ns#"
   xmlns:svg="http://www.w3.org/2000/svg"
   xmlns="http://www.w3.org/2000/svg"
   xmlns:xlink="http://www.w3.org/1999/xlink"
   xmlns:sodipodi="http://sodipodi.sourceforge.net/DTD/sodipodi-0.dtd"
   xmlns:inkscape="http://www.inkscape.org/namespaces/inkscape"
   width="27.653812"
   height="401.42224"
   id="svg2"
   version="1.1"
   inkscape:version="0.48.3.1 r9886"
   sodipodi:docname="630V-Mallory-4,7nF.svg">
  <defs
     id="defs4">
    <linearGradient
       inkscape:collect="always"
       id="linearGradient3674">
      <stop
         style="stop-color:#ffcc00;stop-opacity:1;"
         offset="0"
         id="stop3676" />
      <stop
         style="stop-color:#ffcc00;stop-opacity:0;"
         offset="1"
         id="stop3678" />
    </linearGradient>
    <linearGradient
       inkscape:collect="always"
       id="linearGradient3329">
      <stop
         style="stop-color:#ffcc00;stop-opacity:1;"
         offset="0"
         id="stop3331" />
      <stop
         style="stop-color:#ffcc00;stop-opacity:0;"
         offset="1"
         id="stop3333" />
    </linearGradient>
    <symbol
       id="0,5W-0">
      <path
         id="path3153"
         d="m 211.78125,1026.206 c -0.84375,-3.375 -0.84375,-4.2188 -0.5625,-4.9219 0.28125,-0.7031 0.84375,-1.2656 1.91094,-1.5468 1.06719,-0.2812 2.63908,-0.2811 2.87031,-1.1251"
         style="fill:none;stroke:#000000;stroke-linecap:round"
         inkscape:connector-curvature="0" />
      <path
         id="path3155"
         d="m 220.21875,1026.206 c 0.84375,-3.375 0.84375,-4.2188 0.5625,-4.9219 -0.28125,-0.7031 -0.84375,-1.2656 -1.91227,-1.5564 -1.06851,-0.2907 -2.64304,-0.3096 -2.86898,-1.1155"
         style="fill:none;stroke:#000000;stroke-linecap:round"
         inkscape:connector-curvature="0" />
      <path
         id="path3157"
         d="m 211.78125,1044.7685 c -0.84375,3.375 -0.84375,4.2187 -0.5625,4.9218 0.28125,0.7032 0.84375,1.2657 1.91094,1.5469 1.06719,0.2811 2.63908,0.281 2.87031,1.125"
         style="fill:none;stroke:#000000;stroke-linecap:round"
         inkscape:connector-curvature="0" />
      <path
         id="path3159"
         d="m 220.21875,1044.7685 c 0.84375,3.375 0.84375,4.2187 0.5625,4.9218 -0.28125,0.7032 -0.84375,1.2657 -1.91227,1.5564 -1.06851,0.2907 -2.64304,0.3096 -2.86898,1.1155"
         style="fill:none;stroke:#000000;stroke-linecap:round"
         inkscape:connector-curvature="0" />
      <path
         id="path3161"
         d="m 211.78125,1026.206 0,18.5625"
         style="fill:none;stroke:#000000;stroke-linecap:round"
         inkscape:connector-curvature="0" />
      <path
         id="path3163"
         d="m 220.21875,1044.7685 0,-18.5625"
         style="fill:none;stroke:#000000;stroke-linecap:round"
         inkscape:connector-curvature="0" />
      <path
         id="path3165"
         d="m 216,1052.3622 0,8.3046"
         style="fill:none;stroke:#000000;stroke-linecap:round"
         inkscape:connector-curvature="0" />
      <path
         id="path3167"
         d="m 216,1018.6122 0,-8.3046"
         style="fill:none;stroke:#000000;stroke-linecap:round"
         inkscape:connector-curvature="0" />
      <path
         id="path3169"
         d="m 211.78125,1030.4247 c 4.15896,-0.2505 8.4375,0 8.4375,0"
         style="fill:none;stroke:#000000;stroke-linecap:round"
         inkscape:connector-curvature="0" />
      <path
         id="path3171"
         d="m 211.78125,1032.956 c 4.15896,-0.2505 8.4375,0 8.4375,0"
         style="fill:none;stroke:#000000;stroke-linecap:round"
         inkscape:connector-curvature="0" />
      <path
         id="path3173"
         d="m 211.78125,1029.0647 c 4.15896,-0.2505 8.4375,0 8.4375,0"
         style="fill:none;stroke:#000000;stroke-linecap:round"
         inkscape:connector-curvature="0" />
      <path
         id="path3175"
         d="m 211.78125,1034.3242 c 4.15896,-0.2505 8.4375,0 8.4375,0"
         style="fill:none;stroke:#000000;stroke-linecap:round"
         inkscape:connector-curvature="0" />
      <path
         id="path3177"
         d="m 211.78125,1036.9344 c 4.15896,-0.2505 8.4375,0 8.4375,0"
         style="fill:none;stroke:#000000;stroke-linecap:round"
         inkscape:connector-curvature="0" />
      <path
         id="path3179"
         d="m 211.78125,1038.3759 c 4.15896,-0.2505 8.4375,0 8.4375,0"
         style="fill:none;stroke:#000000;stroke-linecap:round"
         inkscape:connector-curvature="0" />
      <path
         id="path3181"
         d="m 211.78125,1042.1701 c 4.15896,-0.2504 8.4375,0 8.4375,0"
         style="fill:none;stroke:#000000;stroke-linecap:round"
         inkscape:connector-curvature="0" />
      <path
         id="path3183"
         d="m 211.78125,1043.6116 c 4.15896,-0.2505 8.4375,0 8.4375,0"
         style="fill:none;stroke:#000000;stroke-linecap:round"
         inkscape:connector-curvature="0" />
      <path
         id="path3185"
         d="m 199.125,1018.6122 0,33.75"
         style="fill:none;stroke:#000000;stroke-width:0.25px;stroke-linecap:round;marker-start:url(#DistanceX);marker-end:url(#DistanceX)"
         inkscape:connector-curvature="0" />
      <text
         id="text3187"
         transform="matrix(0,-1,1,0,-843.00591,1227.9685)"
         style="font-size:8.89999962px;text-align:center;text-anchor:middle;fill:#000000;font-family:Arial"
         x="192.48129"
         y="1035.4872">
        <tspan
           id="tspan3189"
           sodipodi:role="line"
           x="192.48129"
           y="1035.4872">9.52</tspan>
      </text>
    </symbol>
    <symbol
       id="0,25W-0">
      <path
         id="path3120"
         d="m 240.1875,1034.9247 c -0.5625,-2.25 -0.5625,-2.8125 -0.375,-3.2812 0.1875,-0.4688 0.5625,-0.8438 1.27396,-1.0313 0.71146,-0.1874 1.75939,-0.1874 1.91354,-0.75"
         style="fill:none;stroke:#000000;stroke-linecap:round"
         inkscape:connector-curvature="0" />
      <path
         id="path3122"
         d="m 245.8125,1034.9247 c 0.5625,-2.25 0.5625,-2.8125 0.375,-3.2812 -0.1875,-0.4688 -0.5625,-0.8438 -1.27484,-1.0376 -0.71235,-0.1938 -1.76204,-0.2065 -1.91266,-0.7437"
         style="fill:none;stroke:#000000;stroke-linecap:round"
         inkscape:connector-curvature="0" />
      <path
         id="path3124"
         d="m 240.1875,1047.2997 c -0.5625,2.25 -0.5625,2.8125 -0.375,3.2813 0.1875,0.4687 0.5625,0.8437 1.27396,1.0312 0.71146,0.1874 1.75939,0.1874 1.91354,0.75"
         style="fill:none;stroke:#000000;stroke-linecap:round"
         inkscape:connector-curvature="0" />
      <path
         id="path3126"
         d="m 245.8125,1047.2997 c 0.5625,2.25 0.5625,2.8125 0.375,3.2813 -0.1875,0.4687 -0.5625,0.8437 -1.27484,1.0375 -0.71235,0.1938 -1.76204,0.2065 -1.91266,0.7437"
         style="fill:none;stroke:#000000;stroke-linecap:round"
         inkscape:connector-curvature="0" />
      <path
         id="path3128"
         d="m 240.1875,1034.9247 0,12.375"
         style="fill:none;stroke:#000000;stroke-linecap:round"
         inkscape:connector-curvature="0" />
      <path
         id="path3130"
         d="m 245.8125,1047.2997 0,-12.375"
         style="fill:none;stroke:#000000;stroke-linecap:round"
         inkscape:connector-curvature="0" />
      <path
         id="path3132"
         d="m 243,1052.3622 0,5.5364"
         style="fill:none;stroke:#000000;stroke-linecap:round"
         inkscape:connector-curvature="0" />
      <path
         id="path3134"
         d="m 243,1029.8622 0,-5.5364"
         style="fill:none;stroke:#000000;stroke-linecap:round"
         inkscape:connector-curvature="0" />
      <path
         id="path3136"
         d="m 240.1875,1037.7372 c 2.77264,-0.167 5.625,0 5.625,0"
         style="fill:none;stroke:#000000;stroke-linecap:round"
         inkscape:connector-curvature="0" />
      <path
         id="path3138"
         d="m 240.1875,1039.4247 c 2.77264,-0.167 5.625,0 5.625,0"
         style="fill:none;stroke:#000000;stroke-linecap:round"
         inkscape:connector-curvature="0" />
      <path
         id="path3140"
         d="m 240.1875,1036.8305 c 2.77264,-0.167 5.625,0 5.625,0"
         style="fill:none;stroke:#000000;stroke-linecap:round"
         inkscape:connector-curvature="0" />
      <path
         id="path3142"
         d="m 240.1875,1040.3368 c 2.77264,-0.167 5.625,0 5.625,0"
         style="fill:none;stroke:#000000;stroke-linecap:round"
         inkscape:connector-curvature="0" />
      <path
         id="path3144"
         d="m 240.1875,1042.077 c 2.77264,-0.167 5.625,0 5.625,0"
         style="fill:none;stroke:#000000;stroke-linecap:round"
         inkscape:connector-curvature="0" />
      <path
         id="path3146"
         d="m 240.1875,1043.038 c 2.77264,-0.167 5.625,0 5.625,0"
         style="fill:none;stroke:#000000;stroke-linecap:round"
         inkscape:connector-curvature="0" />
      <path
         id="path3148"
         d="m 240.1875,1045.5675 c 2.77264,-0.167 5.625,0 5.625,0"
         style="fill:none;stroke:#000000;stroke-linecap:round"
         inkscape:connector-curvature="0" />
      <path
         id="path3150"
         d="m 240.1875,1046.5285 c 2.77264,-0.167 5.625,0 5.625,0"
         style="fill:none;stroke:#000000;stroke-linecap:round"
         inkscape:connector-curvature="0" />
    </symbol>
    <symbol
       id="400X-0">
      <path
         id="path3099"
         d="m 147.375,1052.3622 11.25,0"
         style="fill:none;stroke:#000000;stroke-linecap:round"
         inkscape:connector-curvature="0" />
      <path
         id="path3101"
         d="m 158.625,1052.3622 0,-22.5"
         style="fill:none;stroke:#000000;stroke-linecap:round"
         inkscape:connector-curvature="0" />
      <path
         id="path3103"
         d="m 158.625,1029.8622 -11.25,0"
         style="fill:none;stroke:#000000;stroke-linecap:round"
         inkscape:connector-curvature="0" />
      <path
         id="path3105"
         d="m 147.375,1029.8622 0,22.5"
         style="fill:none;stroke:#000000;stroke-linecap:round"
         inkscape:connector-curvature="0" />
      <path
         id="path3107"
         d="m 147.375,1033.5968 0.44291,0"
         style="fill:none;stroke:#000000;stroke-linecap:round"
         inkscape:connector-curvature="0" />
      <path
         id="path3109"
         d="m 147.375,1033.5968 0.44291,0"
         style="fill:none;stroke:#000000;stroke-linecap:round"
         inkscape:connector-curvature="0" />
      <path
         id="path3111"
         d="m 147.375,1033.5968 11.25,0"
         style="fill:none;stroke:#000000;stroke-linecap:round"
         inkscape:connector-curvature="0" />
      <path
         id="path3113"
         d="m 153,1029.8622 0,-24.9656"
         style="fill:none;stroke:#000000;stroke-linecap:round"
         inkscape:connector-curvature="0" />
      <path
         id="path3115"
         d="m 153,1052.3622 0,24.9475"
         style="fill:none;stroke:#000000;stroke-linecap:round"
         inkscape:connector-curvature="0" />
      <path
         id="path3117"
         d="m 147.375,1036.3829 11.25,0"
         style="fill:none;stroke:#000000;stroke-linecap:round"
         inkscape:connector-curvature="0" />
    </symbol>
    <symbol
       id="CP-Axial-0">
      <path
         id="path3024"
         d="m 38.976378,1052.3622 0,39.8622"
         style="fill:none;stroke:#ff0000;stroke-linecap:round"
         inkscape:connector-curvature="0" />
      <path
         id="path3026"
         d="m 38.976378,1052.3622 0,39.8622"
         style="fill:none;stroke:#000000;stroke-linecap:round"
         inkscape:connector-curvature="0" />
      <path
         id="path3028"
         d="m 15.813472,967.79054 c 1.331598,3.43996 5.446371,6.54703 5.446371,6.54703"
         style="fill:none;stroke:#000000;stroke-width:0.5;stroke-linecap:round"
         inkscape:connector-curvature="0" />
      <path
         id="path3030"
         d="m 12.401575,974.00467 c 1.619303,-3.64721 2.5156,-4.93067 2.963749,-5.5724 0.448148,-0.64173 0.448148,-0.64173 0.448148,-0.64173 0,0 0,0 0,0"
         style="fill:none;stroke:#000000;stroke-width:0.5;stroke-linecap:round"
         inkscape:connector-curvature="0" />
      <path
         id="path3032"
         d="m 15.813472,1008.4043 c 1.331598,3.4399 5.446371,6.547 5.446371,6.547"
         style="fill:none;stroke:#000000;stroke-width:0.5;stroke-linecap:round"
         inkscape:connector-curvature="0" />
      <path
         id="path3034"
         d="m 12.401575,1014.6184 c 1.619303,-3.6472 2.5156,-4.9307 2.963749,-5.5724 0.448148,-0.6417 0.448148,-0.6417 0.448148,-0.6417 0,0 0,0 0,0"
         style="fill:none;stroke:#000000;stroke-width:0.5;stroke-linecap:round"
         inkscape:connector-curvature="0" />
      <path
         id="path3036"
         d="m 15.944882,997.44095 0,-8.85827"
         style="fill:none;stroke:#000000;stroke-linecap:round"
         inkscape:connector-curvature="0" />
      <path
         id="path3038"
         d="m 16.09609,958.16593 0,-8.85827"
         style="fill:none;stroke:#000000;stroke-linecap:round"
         inkscape:connector-curvature="0" />
      <path
         id="path3040"
         d="m 16.079792,1027.4905 -0.08877,2.752"
         style="fill:none;stroke:#000000;stroke-linecap:round"
         inkscape:connector-curvature="0" />
      <path
         id="path3042"
         d="m 15.991018,1030.2425 c 1.242825,2.4856 1.775464,4.5274 1.864238,4.5274"
         style="fill:none;stroke:#000000;stroke-linecap:round"
         inkscape:connector-curvature="0" />
      <path
         id="path3044"
         d="m 12.401575,1043.5039 a 9.381547,9.381547 0 0 0 0,-13.2874"
         style="fill:none;stroke:#000000;stroke-width:0.5;stroke-linecap:round"
         inkscape:connector-curvature="0" />
      <path
         id="path3046"
         d="m 21.259843,1043.5039 a 20.116703,20.116703 0 0 0 0,-13.2874"
         style="fill:none;stroke:#000000;stroke-width:0.5;stroke-linecap:round"
         inkscape:connector-curvature="0" />
      <path
         id="path3048"
         d="m 12.401575,1052.3622 0,-8.8583"
         style="fill:none;stroke:#ff0000;stroke-width:0.5;stroke-linecap:round"
         inkscape:connector-curvature="0" />
      <path
         id="path3050"
         d="m 21.259843,1052.3622 0,-8.8583"
         style="fill:none;stroke:#ff0000;stroke-width:0.5;stroke-linecap:round"
         inkscape:connector-curvature="0" />
      <path
         id="path3052"
         d="m 38.976378,870.76772 0,39.8622"
         style="fill:none;stroke:#ff0000;stroke-linecap:round"
         inkscape:connector-curvature="0" />
      <path
         id="path3054"
         d="m 42.076772,910.40873 -0.221457,-5.53642 -6.200787,0 -0.221457,5.31496"
         style="fill:none;stroke:#ff0000;stroke-linecap:round"
         inkscape:connector-curvature="0" />
      <path
         id="path3056"
         d="m 38.976378,910.62992 0,-53.1496"
         style="fill:none;stroke:#000000;stroke-linecap:round"
         inkscape:connector-curvature="0" />
      <path
         id="path3058"
         d="m 35.654528,904.87231 6.200787,0"
         style="fill:none;stroke:#000000;stroke-linecap:round"
         inkscape:connector-curvature="0" />
      <path
         id="path3060"
         d="m 41.855315,904.87231 0.221457,5.53642"
         style="fill:none;stroke:#000000;stroke-linecap:round"
         inkscape:connector-curvature="0" />
      <path
         id="path3062"
         d="m 35.433071,910.18727 0.221457,-5.31496"
         style="fill:none;stroke:#000000;stroke-linecap:round"
         inkscape:connector-curvature="0" />
      <path
         id="path3064"
         d="m 21.259843,910.62992 0,119.58658"
         style="fill:none;stroke:#ff0000;stroke-width:0.5;stroke-linecap:round"
         inkscape:connector-curvature="0" />
      <path
         id="path3066"
         d="m 12.401575,910.62992 0,119.58658"
         style="fill:none;stroke:#ff0000;stroke-width:0.5;stroke-linecap:round"
         inkscape:connector-curvature="0" />
      <path
         id="path3068"
         d="m 87.914072,1036.6134 a 7.197343,7.197343 0 0 0 -0.01619,-0.295"
         style="fill:none;stroke:#ff0000;stroke-linecap:round"
         inkscape:connector-curvature="0" />
      <path
         id="path3070"
         d="m 77.952756,1030.2165 a 6.805766,6.805766 0 0 0 0,13.2874"
         style="fill:none;stroke:#000000;stroke-linecap:round"
         inkscape:connector-curvature="0" />
      <path
         id="path3072"
         d="m 77.952756,1043.5039 0,6.6437"
         style="fill:none;stroke:#000000;stroke-linecap:round"
         inkscape:connector-curvature="0" />
      <path
         id="path3074"
         d="m 75.738189,1052.3622 a 2.214567,2.214567 0 0 0 2.214567,-2.2146"
         style="fill:none;stroke:#000000;stroke-linecap:round"
         inkscape:connector-curvature="0" />
      <path
         id="path3076"
         d="m 77.952756,915.05905 a 4.429134,4.429134 0 0 0 -4.429134,-4.42913"
         style="fill:none;stroke:#000000;stroke-linecap:round"
         inkscape:connector-curvature="0" />
      <path
         id="path3078"
         d="m 77.952756,915.05905 0,115.15745"
         style="fill:none;stroke:#000000;stroke-linecap:round"
         inkscape:connector-curvature="0" />
      <path
         id="path3080"
         d="m 0,1043.5039 a 6.805766,6.805766 0 0 0 0,-13.2874"
         style="fill:none;stroke:#000000;stroke-linecap:round"
         inkscape:connector-curvature="0" />
      <path
         id="path3082"
         d="m 0,1050.1476 0,-6.6437"
         style="fill:none;stroke:#000000;stroke-linecap:round"
         inkscape:connector-curvature="0" />
      <path
         id="path3084"
         d="m 0,1050.1476 a 2.214567,2.214567 0 0 0 2.214567,2.2146"
         style="fill:none;stroke:#000000;stroke-linecap:round"
         inkscape:connector-curvature="0" />
      <path
         id="path3086"
         d="M 4.429134,910.62992 A 4.429134,4.429134 0 0 0 0,915.05905"
         style="fill:none;stroke:#000000;stroke-linecap:round"
         inkscape:connector-curvature="0" />
      <path
         id="path3088"
         d="M 0,1030.2165 0,915.05905"
         style="fill:none;stroke:#000000;stroke-linecap:round"
         inkscape:connector-curvature="0" />
      <path
         id="path3090"
         d="m 75.738189,1052.3622 -73.523622,0"
         style="fill:none;stroke:#000000;stroke-linecap:round"
         inkscape:connector-curvature="0" />
      <path
         id="path3092"
         d="m 4.429134,910.62992 69.094488,0"
         style="fill:none;stroke:#000000;stroke-linecap:round"
         inkscape:connector-curvature="0" />
      <path
         id="path3094"
         d="m 15.813472,928.34646 c 1.331598,3.43996 5.446371,6.54702 5.446371,6.54702"
         style="fill:none;stroke:#000000;stroke-width:0.5;stroke-linecap:round"
         inkscape:connector-curvature="0" />
      <path
         id="path3096"
         d="m 12.401575,934.56058 c 1.619303,-3.6472 2.5156,-4.93066 2.963749,-5.57239 0.448148,-0.64173 0.448148,-0.64173 0.448148,-0.64173 0,0 0,0 0,0"
         style="fill:none;stroke:#000000;stroke-width:0.5;stroke-linecap:round"
         inkscape:connector-curvature="0" />
    </symbol>
    <symbol
       id="*Paper_Space0" />
    <symbol
       id="*Paper_Space" />
    <symbol
       id="*Model_Space" />
    <pattern
       id="Hatch"
       x="0"
       y="0"
       patternUnits="userSpaceOnUse"
       width="8"
       height="8">
      <path
         id="path3014"
         d="M8 4 l-4,4"
         stroke-width="0.25"
         stroke="#000000"
         linecap="square" />
      <path
         id="path3016"
         d="M6 2 l-4,4"
         stroke-width="0.25"
         stroke="#000000"
         linecap="square" />
      <path
         id="path3018"
         d="M4 0 l-4,4"
         stroke-width="0.25"
         stroke="#000000"
         linecap="square" />
    </pattern>
    <marker
       orient="auto"
       id="DistanceX"
       style="overflow:visible"
       refX="0"
       refY="0">
      <path
         id="path3011"
         d="M 3,-3 -3,3 M 0,-5 0,5"
         style="stroke:#000000;stroke-width:0.5"
         inkscape:connector-curvature="0" />
    </marker>
    <linearGradient
       inkscape:collect="always"
       xlink:href="#linearGradient3329"
       id="linearGradient3335"
       x1="24.496199"
       y1="170.22357"
       x2="-12.753176"
       y2="170.85492"
       gradientUnits="userSpaceOnUse" />
    <symbol
       id="0,5W-0-1">
      <path
         id="path3509"
         d="M 211.781250,1026.205955 C 210.937500,1022.830955 210.937500,1021.987205 211.218750,1021.284080 C 211.500000,1020.580955 212.062500,1020.018455 213.129692,1019.737258 C 214.196885,1019.456062 215.768770,1019.456170 216.000000,1018.612205"
         style="stroke:#000000;fill:none;stroke-linecap: round" />
      <path
         id="path3511"
         d="M 220.218750,1026.205955 C 221.062500,1022.830955 221.062500,1021.987205 220.781250,1021.284080 C 220.500000,1020.580955 219.937500,1020.018455 218.868984,1019.727734 C 217.800469,1019.437014 216.225938,1019.418072 216.000000,1018.612205"
         style="stroke:#000000;fill:none;stroke-linecap: round" />
      <path
         id="path3513"
         d="M 211.781250,1044.768455 C 210.937500,1048.143455 210.937500,1048.987205 211.218750,1049.690330 C 211.500000,1050.393455 212.062500,1050.955955 213.129692,1051.237151 C 214.196885,1051.518347 215.768770,1051.518240 216.000000,1052.362205"
         style="stroke:#000000;fill:none;stroke-linecap: round" />
      <path
         id="path3515"
         d="M 220.218750,1044.768455 C 221.062500,1048.143455 221.062500,1048.987205 220.781250,1049.690330 C 220.500000,1050.393455 219.937500,1050.955955 218.868984,1051.246675 C 217.800469,1051.537396 216.225938,1051.556337 216.000000,1052.362205"
         style="stroke:#000000;fill:none;stroke-linecap: round" />
      <path
         id="path3517"
         d="M 211.781250,1026.205955 211.781250,1044.768455"
         style="stroke:#000000;fill:none;stroke-linecap: round" />
      <path
         id="path3519"
         d="M 220.218750,1044.768455 220.218750,1026.205955"
         style="stroke:#000000;fill:none;stroke-linecap: round" />
      <path
         id="path3521"
         d="M 216.000000,1052.362205 216.000000,1060.666831"
         style="stroke:#000000;fill:none;stroke-linecap: round" />
      <path
         id="path3523"
         d="M 216.000000,1018.612205 216.000000,1010.307579"
         style="stroke:#000000;fill:none;stroke-linecap: round" />
      <path
         id="path3525"
         d="M 211.781250,1030.424705 C 215.940208,1030.174217 220.218750,1030.424705 220.218750,1030.424705"
         style="stroke:#000000;fill:none;stroke-linecap: round" />
      <path
         id="path3527"
         d="M 211.781250,1032.955955 C 215.940208,1032.705467 220.218750,1032.955955 220.218750,1032.955955"
         style="stroke:#000000;fill:none;stroke-linecap: round" />
      <path
         id="path3529"
         d="M 211.781250,1029.064679 C 215.940208,1028.814191 220.218750,1029.064679 220.218750,1029.064679"
         style="stroke:#000000;fill:none;stroke-linecap: round" />
      <path
         id="path3531"
         d="M 211.781250,1034.324154 C 215.940208,1034.073666 220.218750,1034.324154 220.218750,1034.324154"
         style="stroke:#000000;fill:none;stroke-linecap: round" />
      <path
         id="path3533"
         d="M 211.781250,1036.934412 C 215.940208,1036.683924 220.218750,1036.934412 220.218750,1036.934412"
         style="stroke:#000000;fill:none;stroke-linecap: round" />
      <path
         id="path3535"
         d="M 211.781250,1038.375897 C 215.940208,1038.125410 220.218750,1038.375897 220.218750,1038.375897"
         style="stroke:#000000;fill:none;stroke-linecap: round" />
      <path
         id="path3537"
         d="M 211.781250,1042.170146 C 215.940208,1041.919658 220.218750,1042.170146 220.218750,1042.170146"
         style="stroke:#000000;fill:none;stroke-linecap: round" />
      <path
         id="path3539"
         d="M 211.781250,1043.611632 C 215.940208,1043.361144 220.218750,1043.611632 220.218750,1043.611632"
         style="stroke:#000000;fill:none;stroke-linecap: round" />
      <path
         id="path3541"
         d="M 199.125000,1018.612205 199.125000,1052.362205"
         style="stroke:#000000;fill:none;stroke-linecap: round; marker-start: url(#DistanceX); marker-end: url(#DistanceX); stroke-width: 0.25px" />
      <text
         id="text3543"
         transform="rotate (-90.000000 192.481299 1035.487205)"
         style="font-size: 8.9px; fill: #000000; font-family: Arial; text-anchor: middle; text-align: center"
         x="192.481299"
         y="1035.487205">
        <tspan
           id="tspan3545"
           sodipodi:role="line">9.52</tspan>
      </text>
    </symbol>
    <symbol
       id="0,25W-0-2">
      <path
         id="path3476"
         d="M 240.187500,1034.924705 C 239.625000,1032.674705 239.625000,1032.112205 239.812500,1031.643455 C 240.000000,1031.174705 240.375000,1030.799705 241.086462,1030.612241 C 241.797923,1030.424776 242.845847,1030.424848 243.000000,1029.862205"
         style="stroke:#000000;fill:none;stroke-linecap: round" />
      <path
         id="path3478"
         d="M 245.812500,1034.924705 C 246.375000,1032.674705 246.375000,1032.112205 246.187500,1031.643455 C 246.000000,1031.174705 245.625000,1030.799705 244.912656,1030.605891 C 244.200313,1030.412077 243.150625,1030.399450 243.000000,1029.862205"
         style="stroke:#000000;fill:none;stroke-linecap: round" />
      <path
         id="path3480"
         d="M 240.187500,1047.299705 C 239.625000,1049.549705 239.625000,1050.112205 239.812500,1050.580955 C 240.000000,1051.049705 240.375000,1051.424705 241.086462,1051.612169 C 241.797923,1051.799633 242.845847,1051.799561 243.000000,1052.362205"
         style="stroke:#000000;fill:none;stroke-linecap: round" />
      <path
         id="path3482"
         d="M 245.812500,1047.299705 C 246.375000,1049.549705 246.375000,1050.112205 246.187500,1050.580955 C 246.000000,1051.049705 245.625000,1051.424705 244.912656,1051.618518 C 244.200313,1051.812332 243.150625,1051.824960 243.000000,1052.362205"
         style="stroke:#000000;fill:none;stroke-linecap: round" />
      <path
         id="path3484"
         d="M 240.187500,1034.924705 240.187500,1047.299705"
         style="stroke:#000000;fill:none;stroke-linecap: round" />
      <path
         id="path3486"
         d="M 245.812500,1047.299705 245.812500,1034.924705"
         style="stroke:#000000;fill:none;stroke-linecap: round" />
      <path
         id="path3488"
         d="M 243.000000,1052.362205 243.000000,1057.898622"
         style="stroke:#000000;fill:none;stroke-linecap: round" />
      <path
         id="path3490"
         d="M 243.000000,1029.862205 243.000000,1024.325787"
         style="stroke:#000000;fill:none;stroke-linecap: round" />
      <path
         id="path3492"
         d="M 240.187500,1037.737205 C 242.960139,1037.570213 245.812500,1037.737205 245.812500,1037.737205"
         style="stroke:#000000;fill:none;stroke-linecap: round" />
      <path
         id="path3494"
         d="M 240.187500,1039.424705 C 242.960139,1039.257713 245.812500,1039.424705 245.812500,1039.424705"
         style="stroke:#000000;fill:none;stroke-linecap: round" />
      <path
         id="path3496"
         d="M 240.187500,1036.830521 C 242.960139,1036.663529 245.812500,1036.830521 245.812500,1036.830521"
         style="stroke:#000000;fill:none;stroke-linecap: round" />
      <path
         id="path3498"
         d="M 240.187500,1040.336837 C 242.960139,1040.169846 245.812500,1040.336837 245.812500,1040.336837"
         style="stroke:#000000;fill:none;stroke-linecap: round" />
      <path
         id="path3500"
         d="M 240.187500,1042.077009 C 242.960139,1041.910017 245.812500,1042.077009 245.812500,1042.077009"
         style="stroke:#000000;fill:none;stroke-linecap: round" />
      <path
         id="path3502"
         d="M 240.187500,1043.038000 C 242.960139,1042.871008 245.812500,1043.038000 245.812500,1043.038000"
         style="stroke:#000000;fill:none;stroke-linecap: round" />
      <path
         id="path3504"
         d="M 240.187500,1045.567499 C 242.960139,1045.400507 245.812500,1045.567499 245.812500,1045.567499"
         style="stroke:#000000;fill:none;stroke-linecap: round" />
      <path
         id="path3506"
         d="M 240.187500,1046.528489 C 242.960139,1046.361497 245.812500,1046.528489 245.812500,1046.528489"
         style="stroke:#000000;fill:none;stroke-linecap: round" />
    </symbol>
    <symbol
       id="400X-0-1">
      <path
         id="path3455"
         d="M 147.375000,1052.362205 158.625000,1052.362205"
         style="stroke:#000000;fill:none;stroke-linecap: round" />
      <path
         id="path3457"
         d="M 158.625000,1052.362205 158.625000,1029.862205"
         style="stroke:#000000;fill:none;stroke-linecap: round" />
      <path
         id="path3459"
         d="M 158.625000,1029.862205 147.375000,1029.862205"
         style="stroke:#000000;fill:none;stroke-linecap: round" />
      <path
         id="path3461"
         d="M 147.375000,1029.862205 147.375000,1052.362205"
         style="stroke:#000000;fill:none;stroke-linecap: round" />
      <path
         id="path3463"
         d="M 147.375000,1033.596752 147.817913,1033.596752"
         style="stroke:#000000;fill:none;stroke-linecap: round" />
      <path
         id="path3465"
         d="M 147.375000,1033.596752 147.817913,1033.596752"
         style="stroke:#000000;fill:none;stroke-linecap: round" />
      <path
         id="path3467"
         d="M 147.375000,1033.596752 158.625000,1033.596752"
         style="stroke:#000000;fill:none;stroke-linecap: round" />
      <path
         id="path3469"
         d="M 153.000000,1029.862205 153.000000,1004.896648"
         style="stroke:#000000;fill:none;stroke-linecap: round" />
      <path
         id="path3471"
         d="M 153.000000,1052.362205 153.000000,1077.309711"
         style="stroke:#000000;fill:none;stroke-linecap: round" />
      <path
         id="path3473"
         d="M 147.375000,1036.382897 158.625000,1036.382897"
         style="stroke:#000000;fill:none;stroke-linecap: round" />
    </symbol>
    <symbol
       id="CP-Axial-0-3">
      <path
         id="path3380"
         d="M 38.976378,1052.362205 38.976378,1092.224409"
         style="stroke:#FF0000;fill:none;stroke-linecap: round" />
      <path
         id="path3382"
         d="M 38.976378,1052.362205 38.976378,1092.224409"
         style="stroke:#000000;fill:none;stroke-linecap: round" />
      <path
         id="path3384"
         d="M 15.813472,967.790541 C 17.145070,971.230503 21.259843,974.337565 21.259843,974.337565"
         style="stroke:#000000;stroke-width:0.5;fill:none;stroke-linecap: round" />
      <path
         id="path3386"
         d="M 12.401575,974.004665 C 14.020878,970.357460 14.917175,969.074001 15.365324,968.432271 C 15.813472,967.790541 15.813472,967.790541 15.813472,967.790541 C 15.813472,967.790541 15.813472,967.790541 15.813472,967.790541"
         style="stroke:#000000;stroke-width:0.5;fill:none;stroke-linecap: round" />
      <path
         id="path3388"
         d="M 15.813472,1008.404280 C 17.145070,1011.844241 21.259843,1014.951303 21.259843,1014.951303"
         style="stroke:#000000;stroke-width:0.5;fill:none;stroke-linecap: round" />
      <path
         id="path3390"
         d="M 12.401575,1014.618404 C 14.020878,1010.971199 14.917175,1009.687739 15.365324,1009.046010 C 15.813472,1008.404280 15.813472,1008.404280 15.813472,1008.404280 C 15.813472,1008.404280 15.813472,1008.404280 15.813472,1008.404280"
         style="stroke:#000000;stroke-width:0.5;fill:none;stroke-linecap: round" />
      <path
         id="path3392"
         d="M 15.944882,997.440945 15.944882,988.582677"
         style="stroke:#000000;fill:none;stroke-linecap: round" />
      <path
         id="path3394"
         d="M 16.096090,958.165931 16.096090,949.307663"
         style="stroke:#000000;fill:none;stroke-linecap: round" />
      <path
         id="path3396"
         d="M 16.079792,1027.490518 15.991018,1030.242487"
         style="stroke:#000000;fill:none;stroke-linecap: round" />
      <path
         id="path3398"
         d="M 15.991018,1030.242487 C 17.233843,1032.728136 17.766482,1034.769920 17.855256,1034.769920"
         style="stroke:#000000;fill:none;stroke-linecap: round" />
      <path
         id="path3400"
         d="M 12.401575,1043.503937 A 9.381547,9.381547 -0.000000 0 0 12.401575,1030.216535"
         style="stroke:#000000;stroke-width:0.5;fill:none;stroke-linecap: round" />
      <path
         id="path3402"
         d="M 21.259843,1043.503937 A 20.116703,20.116703 -0.000000 0 0 21.259843,1030.216535"
         style="stroke:#000000;stroke-width:0.5;fill:none;stroke-linecap: round" />
      <path
         id="path3404"
         d="M 12.401575,1052.362205 12.401575,1043.503937"
         style="stroke:#FF0000;stroke-width:0.5;fill:none;stroke-linecap: round" />
      <path
         id="path3406"
         d="M 21.259843,1052.362205 21.259843,1043.503937"
         style="stroke:#FF0000;stroke-width:0.5;fill:none;stroke-linecap: round" />
      <path
         id="path3408"
         d="M 38.976378,870.767717 L 38.976378,910.629921"
         style="stroke:#FF0000;fill:none;stroke-linecap: round" />
      <path
         id="path3410"
         d="M 42.076772,910.408730 L 41.855315,904.872313 L 35.654528,904.872313 L 35.433071,910.187274"
         style="stroke:#FF0000;fill:none;stroke-linecap: round" />
      <path
         id="path3412"
         d="M 38.976378,910.629921 38.976378,857.480315"
         style="stroke:#000000;fill:none;stroke-linecap: round" />
      <path
         id="path3414"
         d="M 35.654528,904.872313 41.855315,904.872313"
         style="stroke:#000000;fill:none;stroke-linecap: round" />
      <path
         id="path3416"
         d="M 41.855315,904.872313 42.076772,910.408730"
         style="stroke:#000000;fill:none;stroke-linecap: round" />
      <path
         id="path3418"
         d="M 35.433071,910.187274 35.654528,904.872313"
         style="stroke:#000000;fill:none;stroke-linecap: round" />
      <path
         id="path3420"
         d="M 21.259843,910.629921 21.259843,1030.216535"
         style="stroke:#FF0000;stroke-width:0.5;fill:none;stroke-linecap: round" />
      <path
         id="path3422"
         d="M 12.401575,910.629921 12.401575,1030.216535"
         style="stroke:#FF0000;stroke-width:0.5;fill:none;stroke-linecap: round" />
      <path
         id="path3424"
         d="M 87.914072,1036.613373 A 7.197343,7.197343 -0.000000 0 0 87.897881,1036.318384"
         style="stroke:#FF0000;fill:none;stroke-linecap: round" />
      <path
         id="path3426"
         d="M 77.952756,1030.216535 A 6.805766,6.805766 -0.000000 0 0 77.952756,1043.503937"
         style="stroke:#000000;fill:none;stroke-linecap: round" />
      <path
         id="path3428"
         d="M 77.952756,1043.503937 77.952756,1050.147638"
         style="stroke:#000000;fill:none;stroke-linecap: round" />
      <path
         id="path3430"
         d="M 75.738189,1052.362205 A 2.214567,2.214567 -0.000000 0 0 77.952756,1050.147638"
         style="stroke:#000000;fill:none;stroke-linecap: round" />
      <path
         id="path3432"
         d="M 77.952756,915.059055 A 4.429134,4.429134 -0.000000 0 0 73.523622,910.629921"
         style="stroke:#000000;fill:none;stroke-linecap: round" />
      <path
         id="path3434"
         d="M 77.952756,915.059055 77.952756,1030.216535"
         style="stroke:#000000;fill:none;stroke-linecap: round" />
      <path
         id="path3436"
         d="M -0.000000,1043.503937 A 6.805766,6.805766 -0.000000 0 0 -0.000000,1030.216535"
         style="stroke:#000000;fill:none;stroke-linecap: round" />
      <path
         id="path3438"
         d="M 0.000000,1050.147638 0.000000,1043.503937"
         style="stroke:#000000;fill:none;stroke-linecap: round" />
      <path
         id="path3440"
         d="M 0.000000,1050.147638 A 2.214567,2.214567 -0.000000 0 0 2.214567,1052.362205"
         style="stroke:#000000;fill:none;stroke-linecap: round" />
      <path
         id="path3442"
         d="M 4.429134,910.629921 A 4.429134,4.429134 -0.000000 0 0 0.000000,915.059055"
         style="stroke:#000000;fill:none;stroke-linecap: round" />
      <path
         id="path3444"
         d="M 0.000000,1030.216535 0.000000,915.059055"
         style="stroke:#000000;fill:none;stroke-linecap: round" />
      <path
         id="path3446"
         d="M 75.738189,1052.362205 2.214567,1052.362205"
         style="stroke:#000000;fill:none;stroke-linecap: round" />
      <path
         id="path3448"
         d="M 4.429134,910.629921 73.523622,910.629921"
         style="stroke:#000000;fill:none;stroke-linecap: round" />
      <path
         id="path3450"
         d="M 15.813472,928.346457 C 17.145070,931.786418 21.259843,934.893480 21.259843,934.893480"
         style="stroke:#000000;stroke-width:0.5;fill:none;stroke-linecap: round" />
      <path
         id="path3452"
         d="M 12.401575,934.560581 C 14.020878,930.913376 14.917175,929.629916 15.365324,928.988187 C 15.813472,928.346457 15.813472,928.346457 15.813472,928.346457 C 15.813472,928.346457 15.813472,928.346457 15.813472,928.346457"
         style="stroke:#000000;stroke-width:0.5;fill:none;stroke-linecap: round" />
    </symbol>
    <symbol
       id="*Paper_Space0-4" />
    <symbol
       id="*Paper_Space-6" />
    <symbol
       id="*Model_Space-3" />
    <pattern
       id="Hatch-1"
       x="0"
       y="0"
       patternUnits="userSpaceOnUse"
       width="8"
       height="8">
      <path
         id="path3370"
         d="M8 4 l-4,4"
         stroke-width="0.25"
         stroke="#000000"
         linecap="square" />
      <path
         id="path3372"
         d="M6 2 l-4,4"
         stroke-width="0.25"
         stroke="#000000"
         linecap="square" />
      <path
         id="path3374"
         d="M4 0 l-4,4"
         stroke-width="0.25"
         stroke="#000000"
         linecap="square" />
    </pattern>
    <marker
       orient="auto"
       id="DistanceX-8"
       style="overflow:visible"
       refX="0.0"
       refY="0.0">
      <path
         id="path3367"
         d="M 3,-3 L -3,3 M 0,-5 L  0,5"
         style="stroke:#000000; stroke-width:0.5" />
    </marker>
    <linearGradient
       inkscape:collect="always"
       xlink:href="#linearGradient3674"
       id="linearGradient3680"
       x1="21.213203"
       y1="198.12904"
       x2="-1.8940361"
       y2="198.12904"
       gradientUnits="userSpaceOnUse"
       gradientTransform="translate(317.28912,329.0583)" />
  </defs>
  <sodipodi:namedview
     id="base"
     pagecolor="#ffffff"
     bordercolor="#666666"
     borderopacity="1.0"
     inkscape:pageopacity="0.0"
     inkscape:pageshadow="2"
     inkscape:zoom="1.4"
     inkscape:cx="-46.486327"
     inkscape:cy="149.77634"
     inkscape:document-units="px"
     inkscape:current-layer="layer1"
     showgrid="false"
     fit-margin-top="0"
     fit-margin-left="0"
     fit-margin-right="0"
     fit-margin-bottom="0"
     inkscape:window-width="940"
     inkscape:window-height="1009"
     inkscape:window-x="732"
     inkscape:window-y="0"
     inkscape:window-maximized="0" />
  <metadata
     id="metadata7">
    <rdf:RDF>
      <cc:Work
         rdf:about="">
        <dc:format>image/svg+xml</dc:format>
        <dc:type
           rdf:resource="http://purl.org/dc/dcmitype/StillImage" />
        <dc:title />
      </cc:Work>
    </rdf:RDF>
  </metadata>
  <g
     inkscape:label="Layer 1"
     inkscape:groupmode="layer"
     id="layer1"
     transform="translate(-317.55698,-328.79044)">
    <g
       id="g3196">
      <g
         style="fill:#ffffff"
         transform="translate(322.84085,-499.12825)"
         id="g3662">
        <g
           style="fill:#ffffff"
           inkscape:label="0"
           id="g3547">
          <path
             inkscape:connector-curvature="0"
             style="fill:#ffffff;stroke:#000000;stroke-linecap:round"
             d="m 0,1006.2992 0,46.063"
             id="path3549" />
          <path
             inkscape:connector-curvature="0"
             style="fill:#ffffff;stroke:#000000;stroke-linecap:round"
             d="m 17.716535,1006.2992 0,46.063"
             id="path3551" />
          <path
             inkscape:connector-curvature="0"
             style="fill:#ffffff;stroke:#000000;stroke-linecap:round"
             d="m 0,1006.2992 17.716535,0"
             id="path3553" />
          <path
             inkscape:connector-curvature="0"
             style="fill:#ffffff;stroke:#000000;stroke-linecap:round"
             d="m 0,1052.3622 17.716535,0"
             id="path3555" />
          <path
             inkscape:connector-curvature="0"
             style="fill:#ffffff;stroke:#000000;stroke-linecap:round"
             d="m 8.858268,1006.2992 0,-177.16534"
             id="path3557" />
          <path
             inkscape:connector-curvature="0"
             style="fill:#ffffff;stroke:#000000;stroke-linecap:round"
             d="m 8.858268,1052.3622 0,177.1654"
             id="path3559" />
        </g>
        <g
           style="fill:#ffffff"
           inkscape:label="Background"
           id="g3561" />
      </g>
      <path
         transform="translate(317.55698,328.79044)"
         inkscape:connector-curvature="0"
         id="path3194"
         d="m 5.5457932,178.51647 c -0.3983933,0.57 -0.1006508,1.34316 -0.1925224,2.00056 0,14.46428 0,28.92857 0,43.39285 0.1509336,0.77954 1.1022231,0.4193 1.6601563,0.49945 5.1488099,0 10.2976189,0 15.4464289,0 0.779539,-0.15094 0.419292,-1.10223 0.499442,-1.66016 0,-14.6131 0,-29.22619 0,-43.83929 -0.150934,-0.77953 -1.102224,-0.41929 -1.660157,-0.49944 -5.148809,0 -10.297619,0 -15.4464282,0 -0.1023065,0.0353 -0.2046131,0.0707 -0.3069196,0.10603 z"
         style="fill:#ffffff;fill-opacity:1;fill-rule:evenodd;stroke:#c0c0c0;stroke-width:0.16357143;stroke-linejoin:round;stroke-miterlimit:4;stroke-opacity:1;stroke-dasharray:none;stroke-dashoffset:0" />
      <path
         inkscape:connector-curvature="0"
         id="path3672"
         d="m 323.09925,507.95867 c 0.33698,14.91409 -0.67378,30.38642 0.50508,44.95179 5.00915,-1.3825 15.30293,2.95171 16.66752,-2.52538 -0.337,-14.24064 0.67381,-29.03956 -0.50508,-42.93148 -5.46633,0.33711 -11.5583,-0.67362 -16.66752,0.50507 z"
         style="fill:url(#linearGradient3680);fill-opacity:1;fill-rule:evenodd;stroke:#ff0000;stroke-width:0.39800009;stroke-miterlimit:4;stroke-dasharray:none" />
      <text
         transform="matrix(0,-1,1,0,0,0)"
         sodipodi:linespacing="125%"
         id="text3682"
         y="333.33224"
         x="-540.02484"
         style="font-size:4.57703447px;font-style:italic;font-variant:normal;font-weight:bold;font-stretch:normal;line-height:125%;letter-spacing:0px;word-spacing:0px;fill:#000000;fill-opacity:1;stroke:none;font-family:URW Chancery L;-inkscape-font-specification:URW Chancery L Bold Italic"
         xml:space="preserve"><tspan
           y="333.33224"
           x="-540.02484"
           id="tspan3684"
           sodipodi:role="line">630V-4,7nF</tspan></text>
    </g>
  </g>
</svg>
