<?xml version="1.0" encoding="UTF-8" standalone="no"?>
<!-- Created with Inkscape (http://www.inkscape.org/) -->

<svg
   xmlns:dc="http://purl.org/dc/elements/1.1/"
   xmlns:cc="http://creativecommons.org/ns#"
   xmlns:rdf="http://www.w3.org/1999/02/22-rdf-syntax-ns#"
   xmlns:svg="http://www.w3.org/2000/svg"
   xmlns="http://www.w3.org/2000/svg"
   xmlns:xlink="http://www.w3.org/1999/xlink"
   xmlns:sodipodi="http://sodipodi.sourceforge.net/DTD/sodipodi-0.dtd"
   xmlns:inkscape="http://www.inkscape.org/namespaces/inkscape"
   width="27.653812"
   height="401.42224"
   id="svg2"
   version="1.1"
   inkscape:version="0.48.3.1 r9886"
   sodipodi:docname="630V-Mallory-1µF.svg">
  <defs
     id="defs4">
    <linearGradient
       inkscape:collect="always"
       id="linearGradient3329">
      <stop
         style="stop-color:#ffcc00;stop-opacity:1;"
         offset="0"
         id="stop3331" />
      <stop
         style="stop-color:#ffcc00;stop-opacity:0;"
         offset="1"
         id="stop3333" />
    </linearGradient>
    <symbol
       id="0,5W-0">
      <path
         id="path3153"
         d="m 211.78125,1026.206 c -0.84375,-3.375 -0.84375,-4.2188 -0.5625,-4.9219 0.28125,-0.7031 0.84375,-1.2656 1.91094,-1.5468 1.06719,-0.2812 2.63908,-0.2811 2.87031,-1.1251"
         style="fill:none;stroke:#000000;stroke-linecap:round"
         inkscape:connector-curvature="0" />
      <path
         id="path3155"
         d="m 220.21875,1026.206 c 0.84375,-3.375 0.84375,-4.2188 0.5625,-4.9219 -0.28125,-0.7031 -0.84375,-1.2656 -1.91227,-1.5564 -1.06851,-0.2907 -2.64304,-0.3096 -2.86898,-1.1155"
         style="fill:none;stroke:#000000;stroke-linecap:round"
         inkscape:connector-curvature="0" />
      <path
         id="path3157"
         d="m 211.78125,1044.7685 c -0.84375,3.375 -0.84375,4.2187 -0.5625,4.9218 0.28125,0.7032 0.84375,1.2657 1.91094,1.5469 1.06719,0.2811 2.63908,0.281 2.87031,1.125"
         style="fill:none;stroke:#000000;stroke-linecap:round"
         inkscape:connector-curvature="0" />
      <path
         id="path3159"
         d="m 220.21875,1044.7685 c 0.84375,3.375 0.84375,4.2187 0.5625,4.9218 -0.28125,0.7032 -0.84375,1.2657 -1.91227,1.5564 -1.06851,0.2907 -2.64304,0.3096 -2.86898,1.1155"
         style="fill:none;stroke:#000000;stroke-linecap:round"
         inkscape:connector-curvature="0" />
      <path
         id="path3161"
         d="m 211.78125,1026.206 0,18.5625"
         style="fill:none;stroke:#000000;stroke-linecap:round"
         inkscape:connector-curvature="0" />
      <path
         id="path3163"
         d="m 220.21875,1044.7685 0,-18.5625"
         style="fill:none;stroke:#000000;stroke-linecap:round"
         inkscape:connector-curvature="0" />
      <path
         id="path3165"
         d="m 216,1052.3622 0,8.3046"
         style="fill:none;stroke:#000000;stroke-linecap:round"
         inkscape:connector-curvature="0" />
      <path
         id="path3167"
         d="m 216,1018.6122 0,-8.3046"
         style="fill:none;stroke:#000000;stroke-linecap:round"
         inkscape:connector-curvature="0" />
      <path
         id="path3169"
         d="m 211.78125,1030.4247 c 4.15896,-0.2505 8.4375,0 8.4375,0"
         style="fill:none;stroke:#000000;stroke-linecap:round"
         inkscape:connector-curvature="0" />
      <path
         id="path3171"
         d="m 211.78125,1032.956 c 4.15896,-0.2505 8.4375,0 8.4375,0"
         style="fill:none;stroke:#000000;stroke-linecap:round"
         inkscape:connector-curvature="0" />
      <path
         id="path3173"
         d="m 211.78125,1029.0647 c 4.15896,-0.2505 8.4375,0 8.4375,0"
         style="fill:none;stroke:#000000;stroke-linecap:round"
         inkscape:connector-curvature="0" />
      <path
         id="path3175"
         d="m 211.78125,1034.3242 c 4.15896,-0.2505 8.4375,0 8.4375,0"
         style="fill:none;stroke:#000000;stroke-linecap:round"
         inkscape:connector-curvature="0" />
      <path
         id="path3177"
         d="m 211.78125,1036.9344 c 4.15896,-0.2505 8.4375,0 8.4375,0"
         style="fill:none;stroke:#000000;stroke-linecap:round"
         inkscape:connector-curvature="0" />
      <path
         id="path3179"
         d="m 211.78125,1038.3759 c 4.15896,-0.2505 8.4375,0 8.4375,0"
         style="fill:none;stroke:#000000;stroke-linecap:round"
         inkscape:connector-curvature="0" />
      <path
         id="path3181"
         d="m 211.78125,1042.1701 c 4.15896,-0.2504 8.4375,0 8.4375,0"
         style="fill:none;stroke:#000000;stroke-linecap:round"
         inkscape:connector-curvature="0" />
      <path
         id="path3183"
         d="m 211.78125,1043.6116 c 4.15896,-0.2505 8.4375,0 8.4375,0"
         style="fill:none;stroke:#000000;stroke-linecap:round"
         inkscape:connector-curvature="0" />
      <path
         id="path3185"
         d="m 199.125,1018.6122 0,33.75"
         style="fill:none;stroke:#000000;stroke-width:0.25px;stroke-linecap:round;marker-start:url(#DistanceX);marker-end:url(#DistanceX)"
         inkscape:connector-curvature="0" />
      <text
         id="text3187"
         transform="matrix(0,-1,1,0,-843.00591,1227.9685)"
         style="font-size:8.89999962px;text-align:center;text-anchor:middle;fill:#000000;font-family:Arial"
         x="192.48129"
         y="1035.4872">
        <tspan
           id="tspan3189"
           sodipodi:role="line"
           x="192.48129"
           y="1035.4872">9.52</tspan>
      </text>
    </symbol>
    <symbol
       id="0,25W-0">
      <path
         id="path3120"
         d="m 240.1875,1034.9247 c -0.5625,-2.25 -0.5625,-2.8125 -0.375,-3.2812 0.1875,-0.4688 0.5625,-0.8438 1.27396,-1.0313 0.71146,-0.1874 1.75939,-0.1874 1.91354,-0.75"
         style="fill:none;stroke:#000000;stroke-linecap:round"
         inkscape:connector-curvature="0" />
      <path
         id="path3122"
         d="m 245.8125,1034.9247 c 0.5625,-2.25 0.5625,-2.8125 0.375,-3.2812 -0.1875,-0.4688 -0.5625,-0.8438 -1.27484,-1.0376 -0.71235,-0.1938 -1.76204,-0.2065 -1.91266,-0.7437"
         style="fill:none;stroke:#000000;stroke-linecap:round"
         inkscape:connector-curvature="0" />
      <path
         id="path3124"
         d="m 240.1875,1047.2997 c -0.5625,2.25 -0.5625,2.8125 -0.375,3.2813 0.1875,0.4687 0.5625,0.8437 1.27396,1.0312 0.71146,0.1874 1.75939,0.1874 1.91354,0.75"
         style="fill:none;stroke:#000000;stroke-linecap:round"
         inkscape:connector-curvature="0" />
      <path
         id="path3126"
         d="m 245.8125,1047.2997 c 0.5625,2.25 0.5625,2.8125 0.375,3.2813 -0.1875,0.4687 -0.5625,0.8437 -1.27484,1.0375 -0.71235,0.1938 -1.76204,0.2065 -1.91266,0.7437"
         style="fill:none;stroke:#000000;stroke-linecap:round"
         inkscape:connector-curvature="0" />
      <path
         id="path3128"
         d="m 240.1875,1034.9247 0,12.375"
         style="fill:none;stroke:#000000;stroke-linecap:round"
         inkscape:connector-curvature="0" />
      <path
         id="path3130"
         d="m 245.8125,1047.2997 0,-12.375"
         style="fill:none;stroke:#000000;stroke-linecap:round"
         inkscape:connector-curvature="0" />
      <path
         id="path3132"
         d="m 243,1052.3622 0,5.5364"
         style="fill:none;stroke:#000000;stroke-linecap:round"
         inkscape:connector-curvature="0" />
      <path
         id="path3134"
         d="m 243,1029.8622 0,-5.5364"
         style="fill:none;stroke:#000000;stroke-linecap:round"
         inkscape:connector-curvature="0" />
      <path
         id="path3136"
         d="m 240.1875,1037.7372 c 2.77264,-0.167 5.625,0 5.625,0"
         style="fill:none;stroke:#000000;stroke-linecap:round"
         inkscape:connector-curvature="0" />
      <path
         id="path3138"
         d="m 240.1875,1039.4247 c 2.77264,-0.167 5.625,0 5.625,0"
         style="fill:none;stroke:#000000;stroke-linecap:round"
         inkscape:connector-curvature="0" />
      <path
         id="path3140"
         d="m 240.1875,1036.8305 c 2.77264,-0.167 5.625,0 5.625,0"
         style="fill:none;stroke:#000000;stroke-linecap:round"
         inkscape:connector-curvature="0" />
      <path
         id="path3142"
         d="m 240.1875,1040.3368 c 2.77264,-0.167 5.625,0 5.625,0"
         style="fill:none;stroke:#000000;stroke-linecap:round"
         inkscape:connector-curvature="0" />
      <path
         id="path3144"
         d="m 240.1875,1042.077 c 2.77264,-0.167 5.625,0 5.625,0"
         style="fill:none;stroke:#000000;stroke-linecap:round"
         inkscape:connector-curvature="0" />
      <path
         id="path3146"
         d="m 240.1875,1043.038 c 2.77264,-0.167 5.625,0 5.625,0"
         style="fill:none;stroke:#000000;stroke-linecap:round"
         inkscape:connector-curvature="0" />
      <path
         id="path3148"
         d="m 240.1875,1045.5675 c 2.77264,-0.167 5.625,0 5.625,0"
         style="fill:none;stroke:#000000;stroke-linecap:round"
         inkscape:connector-curvature="0" />
      <path
         id="path3150"
         d="m 240.1875,1046.5285 c 2.77264,-0.167 5.625,0 5.625,0"
         style="fill:none;stroke:#000000;stroke-linecap:round"
         inkscape:connector-curvature="0" />
    </symbol>
    <symbol
       id="400X-0">
      <path
         id="path3099"
         d="m 147.375,1052.3622 11.25,0"
         style="fill:none;stroke:#000000;stroke-linecap:round"
         inkscape:connector-curvature="0" />
      <path
         id="path3101"
         d="m 158.625,1052.3622 0,-22.5"
         style="fill:none;stroke:#000000;stroke-linecap:round"
         inkscape:connector-curvature="0" />
      <path
         id="path3103"
         d="m 158.625,1029.8622 -11.25,0"
         style="fill:none;stroke:#000000;stroke-linecap:round"
         inkscape:connector-curvature="0" />
      <path
         id="path3105"
         d="m 147.375,1029.8622 0,22.5"
         style="fill:none;stroke:#000000;stroke-linecap:round"
         inkscape:connector-curvature="0" />
      <path
         id="path3107"
         d="m 147.375,1033.5968 0.44291,0"
         style="fill:none;stroke:#000000;stroke-linecap:round"
         inkscape:connector-curvature="0" />
      <path
         id="path3109"
         d="m 147.375,1033.5968 0.44291,0"
         style="fill:none;stroke:#000000;stroke-linecap:round"
         inkscape:connector-curvature="0" />
      <path
         id="path3111"
         d="m 147.375,1033.5968 11.25,0"
         style="fill:none;stroke:#000000;stroke-linecap:round"
         inkscape:connector-curvature="0" />
      <path
         id="path3113"
         d="m 153,1029.8622 0,-24.9656"
         style="fill:none;stroke:#000000;stroke-linecap:round"
         inkscape:connector-curvature="0" />
      <path
         id="path3115"
         d="m 153,1052.3622 0,24.9475"
         style="fill:none;stroke:#000000;stroke-linecap:round"
         inkscape:connector-curvature="0" />
      <path
         id="path3117"
         d="m 147.375,1036.3829 11.25,0"
         style="fill:none;stroke:#000000;stroke-linecap:round"
         inkscape:connector-curvature="0" />
    </symbol>
    <symbol
       id="CP-Axial-0">
      <path
         id="path3024"
         d="m 38.976378,1052.3622 0,39.8622"
         style="fill:none;stroke:#ff0000;stroke-linecap:round"
         inkscape:connector-curvature="0" />
      <path
         id="path3026"
         d="m 38.976378,1052.3622 0,39.8622"
         style="fill:none;stroke:#000000;stroke-linecap:round"
         inkscape:connector-curvature="0" />
      <path
         id="path3028"
         d="m 15.813472,967.79054 c 1.331598,3.43996 5.446371,6.54703 5.446371,6.54703"
         style="fill:none;stroke:#000000;stroke-width:0.5;stroke-linecap:round"
         inkscape:connector-curvature="0" />
      <path
         id="path3030"
         d="m 12.401575,974.00467 c 1.619303,-3.64721 2.5156,-4.93067 2.963749,-5.5724 0.448148,-0.64173 0.448148,-0.64173 0.448148,-0.64173 0,0 0,0 0,0"
         style="fill:none;stroke:#000000;stroke-width:0.5;stroke-linecap:round"
         inkscape:connector-curvature="0" />
      <path
         id="path3032"
         d="m 15.813472,1008.4043 c 1.331598,3.4399 5.446371,6.547 5.446371,6.547"
         style="fill:none;stroke:#000000;stroke-width:0.5;stroke-linecap:round"
         inkscape:connector-curvature="0" />
      <path
         id="path3034"
         d="m 12.401575,1014.6184 c 1.619303,-3.6472 2.5156,-4.9307 2.963749,-5.5724 0.448148,-0.6417 0.448148,-0.6417 0.448148,-0.6417 0,0 0,0 0,0"
         style="fill:none;stroke:#000000;stroke-width:0.5;stroke-linecap:round"
         inkscape:connector-curvature="0" />
      <path
         id="path3036"
         d="m 15.944882,997.44095 0,-8.85827"
         style="fill:none;stroke:#000000;stroke-linecap:round"
         inkscape:connector-curvature="0" />
      <path
         id="path3038"
         d="m 16.09609,958.16593 0,-8.85827"
         style="fill:none;stroke:#000000;stroke-linecap:round"
         inkscape:connector-curvature="0" />
      <path
         id="path3040"
         d="m 16.079792,1027.4905 -0.08877,2.752"
         style="fill:none;stroke:#000000;stroke-linecap:round"
         inkscape:connector-curvature="0" />
      <path
         id="path3042"
         d="m 15.991018,1030.2425 c 1.242825,2.4856 1.775464,4.5274 1.864238,4.5274"
         style="fill:none;stroke:#000000;stroke-linecap:round"
         inkscape:connector-curvature="0" />
      <path
         id="path3044"
         d="m 12.401575,1043.5039 a 9.381547,9.381547 0 0 0 0,-13.2874"
         style="fill:none;stroke:#000000;stroke-width:0.5;stroke-linecap:round"
         inkscape:connector-curvature="0" />
      <path
         id="path3046"
         d="m 21.259843,1043.5039 a 20.116703,20.116703 0 0 0 0,-13.2874"
         style="fill:none;stroke:#000000;stroke-width:0.5;stroke-linecap:round"
         inkscape:connector-curvature="0" />
      <path
         id="path3048"
         d="m 12.401575,1052.3622 0,-8.8583"
         style="fill:none;stroke:#ff0000;stroke-width:0.5;stroke-linecap:round"
         inkscape:connector-curvature="0" />
      <path
         id="path3050"
         d="m 21.259843,1052.3622 0,-8.8583"
         style="fill:none;stroke:#ff0000;stroke-width:0.5;stroke-linecap:round"
         inkscape:connector-curvature="0" />
      <path
         id="path3052"
         d="m 38.976378,870.76772 0,39.8622"
         style="fill:none;stroke:#ff0000;stroke-linecap:round"
         inkscape:connector-curvature="0" />
      <path
         id="path3054"
         d="m 42.076772,910.40873 -0.221457,-5.53642 -6.200787,0 -0.221457,5.31496"
         style="fill:none;stroke:#ff0000;stroke-linecap:round"
         inkscape:connector-curvature="0" />
      <path
         id="path3056"
         d="m 38.976378,910.62992 0,-53.1496"
         style="fill:none;stroke:#000000;stroke-linecap:round"
         inkscape:connector-curvature="0" />
      <path
         id="path3058"
         d="m 35.654528,904.87231 6.200787,0"
         style="fill:none;stroke:#000000;stroke-linecap:round"
         inkscape:connector-curvature="0" />
      <path
         id="path3060"
         d="m 41.855315,904.87231 0.221457,5.53642"
         style="fill:none;stroke:#000000;stroke-linecap:round"
         inkscape:connector-curvature="0" />
      <path
         id="path3062"
         d="m 35.433071,910.18727 0.221457,-5.31496"
         style="fill:none;stroke:#000000;stroke-linecap:round"
         inkscape:connector-curvature="0" />
      <path
         id="path3064"
         d="m 21.259843,910.62992 0,119.58658"
         style="fill:none;stroke:#ff0000;stroke-width:0.5;stroke-linecap:round"
         inkscape:connector-curvature="0" />
      <path
         id="path3066"
         d="m 12.401575,910.62992 0,119.58658"
         style="fill:none;stroke:#ff0000;stroke-width:0.5;stroke-linecap:round"
         inkscape:connector-curvature="0" />
      <path
         id="path3068"
         d="m 87.914072,1036.6134 a 7.197343,7.197343 0 0 0 -0.01619,-0.295"
         style="fill:none;stroke:#ff0000;stroke-linecap:round"
         inkscape:connector-curvature="0" />
      <path
         id="path3070"
         d="m 77.952756,1030.2165 a 6.805766,6.805766 0 0 0 0,13.2874"
         style="fill:none;stroke:#000000;stroke-linecap:round"
         inkscape:connector-curvature="0" />
      <path
         id="path3072"
         d="m 77.952756,1043.5039 0,6.6437"
         style="fill:none;stroke:#000000;stroke-linecap:round"
         inkscape:connector-curvature="0" />
      <path
         id="path3074"
         d="m 75.738189,1052.3622 a 2.214567,2.214567 0 0 0 2.214567,-2.2146"
         style="fill:none;stroke:#000000;stroke-linecap:round"
         inkscape:connector-curvature="0" />
      <path
         id="path3076"
         d="m 77.952756,915.05905 a 4.429134,4.429134 0 0 0 -4.429134,-4.42913"
         style="fill:none;stroke:#000000;stroke-linecap:round"
         inkscape:connector-curvature="0" />
      <path
         id="path3078"
         d="m 77.952756,915.05905 0,115.15745"
         style="fill:none;stroke:#000000;stroke-linecap:round"
         inkscape:connector-curvature="0" />
      <path
         id="path3080"
         d="m 0,1043.5039 a 6.805766,6.805766 0 0 0 0,-13.2874"
         style="fill:none;stroke:#000000;stroke-linecap:round"
         inkscape:connector-curvature="0" />
      <path
         id="path3082"
         d="m 0,1050.1476 0,-6.6437"
         style="fill:none;stroke:#000000;stroke-linecap:round"
         inkscape:connector-curvature="0" />
      <path
         id="path3084"
         d="m 0,1050.1476 a 2.214567,2.214567 0 0 0 2.214567,2.2146"
         style="fill:none;stroke:#000000;stroke-linecap:round"
         inkscape:connector-curvature="0" />
      <path
         id="path3086"
         d="M 4.429134,910.62992 A 4.429134,4.429134 0 0 0 0,915.05905"
         style="fill:none;stroke:#000000;stroke-linecap:round"
         inkscape:connector-curvature="0" />
      <path
         id="path3088"
         d="M 0,1030.2165 0,915.05905"
         style="fill:none;stroke:#000000;stroke-linecap:round"
         inkscape:connector-curvature="0" />
      <path
         id="path3090"
         d="m 75.738189,1052.3622 -73.523622,0"
         style="fill:none;stroke:#000000;stroke-linecap:round"
         inkscape:connector-curvature="0" />
      <path
         id="path3092"
         d="m 4.429134,910.62992 69.094488,0"
         style="fill:none;stroke:#000000;stroke-linecap:round"
         inkscape:connector-curvature="0" />
      <path
         id="path3094"
         d="m 15.813472,928.34646 c 1.331598,3.43996 5.446371,6.54702 5.446371,6.54702"
         style="fill:none;stroke:#000000;stroke-width:0.5;stroke-linecap:round"
         inkscape:connector-curvature="0" />
      <path
         id="path3096"
         d="m 12.401575,934.56058 c 1.619303,-3.6472 2.5156,-4.93066 2.963749,-5.57239 0.448148,-0.64173 0.448148,-0.64173 0.448148,-0.64173 0,0 0,0 0,0"
         style="fill:none;stroke:#000000;stroke-width:0.5;stroke-linecap:round"
         inkscape:connector-curvature="0" />
    </symbol>
    <symbol
       id="*Paper_Space0" />
    <symbol
       id="*Paper_Space" />
    <symbol
       id="*Model_Space" />
    <pattern
       id="Hatch"
       x="0"
       y="0"
       patternUnits="userSpaceOnUse"
       width="8"
       height="8">
      <path
         id="path3014"
         d="M8 4 l-4,4"
         stroke-width="0.25"
         stroke="#000000"
         linecap="square" />
      <path
         id="path3016"
         d="M6 2 l-4,4"
         stroke-width="0.25"
         stroke="#000000"
         linecap="square" />
      <path
         id="path3018"
         d="M4 0 l-4,4"
         stroke-width="0.25"
         stroke="#000000"
         linecap="square" />
    </pattern>
    <marker
       orient="auto"
       id="DistanceX"
       style="overflow:visible"
       refX="0"
       refY="0">
      <path
         id="path3011"
         d="M 3,-3 -3,3 M 0,-5 0,5"
         style="stroke:#000000;stroke-width:0.5"
         inkscape:connector-curvature="0" />
    </marker>
    <linearGradient
       inkscape:collect="always"
       xlink:href="#linearGradient3329"
       id="linearGradient3131"
       gradientUnits="userSpaceOnUse"
       gradientTransform="translate(317.43072,328.5379)"
       x1="24.496199"
       y1="170.22357"
       x2="-12.753176"
       y2="170.85492" />
  </defs>
  <sodipodi:namedview
     id="base"
     pagecolor="#ffffff"
     bordercolor="#666666"
     borderopacity="1.0"
     inkscape:pageopacity="0.0"
     inkscape:pageshadow="2"
     inkscape:zoom="0.98994949"
     inkscape:cx="-214.35878"
     inkscape:cy="90.915964"
     inkscape:document-units="px"
     inkscape:current-layer="layer1"
     showgrid="false"
     fit-margin-top="0"
     fit-margin-left="0"
     fit-margin-right="0"
     fit-margin-bottom="0"
     inkscape:window-width="1920"
     inkscape:window-height="1031"
     inkscape:window-x="0"
     inkscape:window-y="0"
     inkscape:window-maximized="1" />
  <metadata
     id="metadata7">
    <rdf:RDF>
      <cc:Work
         rdf:about="">
        <dc:format>image/svg+xml</dc:format>
        <dc:type
           rdf:resource="http://purl.org/dc/dcmitype/StillImage" />
        <dc:title />
      </cc:Work>
    </rdf:RDF>
  </metadata>
  <g
     inkscape:label="Layer 1"
     inkscape:groupmode="layer"
     id="layer1"
     transform="translate(-317.55698,-328.79044)">
    <g
       id="g3114"
       transform="translate(-3.3033412e-6,3.3708238e-7)">
      <g
         style="fill:#ffffff"
         id="g3097">
        <g
           id="g3316"
           style="fill:#ffffff">
          <g
             transform="translate(318.14117,-499.82569)"
             id="g3306"
             style="fill:#ffffff">
            <g
               inkscape:label="0"
               id="g3191"
               style="fill:#ffffff">
              <path
                 inkscape:connector-curvature="0"
                 style="fill:#ffffff;stroke:#000000;stroke-linecap:round"
                 d="m 0,960.23622 0,92.12598"
                 id="path3193" />
              <path
                 inkscape:connector-curvature="0"
                 style="fill:#ffffff;stroke:#000000;stroke-linecap:round"
                 d="m 26.574803,960.23622 0,92.12598"
                 id="path3195" />
              <path
                 inkscape:connector-curvature="0"
                 style="fill:#ffffff;stroke:#000000;stroke-linecap:round"
                 d="m 0,960.23622 26.574803,0"
                 id="path3197" />
              <path
                 inkscape:connector-curvature="0"
                 style="fill:#ffffff;stroke:#000000;stroke-linecap:round"
                 d="m 0,1052.3622 26.574803,0"
                 id="path3199" />
              <path
                 inkscape:connector-curvature="0"
                 style="fill:#ffffff;stroke:#000000;stroke-linecap:round"
                 d="m 13.287402,960.23622 0,-131.10236"
                 id="path3201" />
              <path
                 inkscape:connector-curvature="0"
                 style="fill:#ffffff;stroke:#000000;stroke-linecap:round"
                 d="m 13.287402,1052.3622 0,177.1654"
                 id="path3203" />
            </g>
            <g
               inkscape:label="Background"
               id="g3205"
               style="fill:#ffffff" />
          </g>
        </g>
      </g>
      <path
         transform="translate(317.55698,328.79044)"
         inkscape:connector-curvature="0"
         id="path3112"
         d="m 0.83824954,131.85097 c -0.373258,0.9757 -0.0653809,2.10988 -0.16572816,3.14884 0,29.3786 0,58.7572 0,88.13581 0.27871182,0.88568 1.44888312,0.35905 2.14262822,0.50113 7.9128614,0 15.8257234,0 23.7385854,0 0.885679,-0.27872 0.359052,-1.44889 0.50113,-2.14263 0,-29.75741 0,-59.51482 0,-89.27223 -0.278712,-0.88568 -1.448883,-0.35906 -2.142628,-0.50113 -7.912862,0 -15.8257236,0 -23.7385852,0 -0.1118008,0.0434 -0.22360153,0.0868 -0.33540226,0.13021 z"
         style="fill:#ffffff;fill-opacity:1;fill-rule:evenodd;stroke:#c0c0c0;stroke-width:0.23132494;stroke-linejoin:round;stroke-miterlimit:4;stroke-opacity:1;stroke-dasharray:none;stroke-dashoffset:0" />
      <path
         inkscape:connector-curvature="0"
         id="path3327"
         d="m 318.26896,460.36487 c -0.37325,0.9757 -0.0654,2.10988 -0.16572,3.14883 0,29.4207 0,58.84139 0,88.26208 0.27871,0.88568 1.44888,0.35906 2.14262,0.50113 7.91287,0 15.82573,0 23.73859,0 0.88568,-0.27871 0.35905,-1.44888 0.50113,-2.14262 0,-29.7995 0,-59.599 0,-89.3985 -0.27871,-0.88568 -1.44888,-0.35906 -2.14263,-0.50114 -7.91286,0 -15.82572,0 -23.73858,0 -0.1118,0.0434 -0.2236,0.0868 -0.33541,0.13022 z"
         style="fill:url(#linearGradient3131);fill-opacity:1;fill-rule:evenodd;stroke:#ff0000;stroke-width:0.04975001;stroke-miterlimit:4;stroke-dasharray:none" />
      <text
         transform="matrix(0,-1,1,0,0,0)"
         sodipodi:linespacing="125%"
         id="text3337"
         y="333.31866"
         x="-514.24652"
         style="font-size:6px;font-style:italic;font-variant:normal;font-weight:bold;font-stretch:normal;line-height:125%;letter-spacing:0px;word-spacing:0px;fill:#000000;fill-opacity:1;stroke:none;font-family:URW Chancery L;-inkscape-font-specification:URW Chancery L Bold Italic"
         xml:space="preserve"><tspan
           y="333.31866"
           x="-514.24652"
           id="tspan3339"
           sodipodi:role="line">630V - 1µF</tspan></text>
    </g>
  </g>
</svg>
