<?xml version="1.0" encoding="UTF-8" standalone="no"?>
<svg
   xmlns:dc="http://purl.org/dc/elements/1.1/"
   xmlns:cc="http://creativecommons.org/ns#"
   xmlns:rdf="http://www.w3.org/1999/02/22-rdf-syntax-ns#"
   xmlns:svg="http://www.w3.org/2000/svg"
   xmlns="http://www.w3.org/2000/svg"
   xmlns:xlink="http://www.w3.org/1999/xlink"
   xmlns:sodipodi="http://sodipodi.sourceforge.net/DTD/sodipodi-0.dtd"
   xmlns:inkscape="http://www.inkscape.org/namespaces/inkscape"
   width="12.25"
   height="73.413063"
   id="svg3004"
   version="1.1"
   inkscape:version="0.48.3.1 r9886"
   sodipodi:docname="400X.svg">
  <metadata
     id="metadata3124">
    <rdf:RDF>
      <cc:Work
         rdf:about="">
        <dc:format>image/svg+xml</dc:format>
        <dc:type
           rdf:resource="http://purl.org/dc/dcmitype/StillImage" />
        <dc:title />
      </cc:Work>
    </rdf:RDF>
  </metadata>
  <sodipodi:namedview
     pagecolor="#ffffff"
     bordercolor="#666666"
     borderopacity="1"
     objecttolerance="10"
     gridtolerance="10"
     guidetolerance="10"
     inkscape:pageopacity="0.5"
     inkscape:pageshadow="2"
     inkscape:window-width="1280"
     inkscape:window-height="775"
     id="namedview3122"
     showgrid="false"
     fit-margin-top="0"
     fit-margin-left="0"
     fit-margin-right="0"
     fit-margin-bottom="0"
     inkscape:zoom="6.423644"
     inkscape:cx="28.814272"
     inkscape:cy="35.849504"
     inkscape:window-x="0"
     inkscape:window-y="0"
     inkscape:window-maximized="1"
     inkscape:current-layer="g3098" />
  <desc
     id="desc3006">/media/80f55706-5116-4aa9-b834-bdc13726b42c/phil/qcad-2.2.2.0-1-prof.linux.x86/library/Electronics/diodes/400X.dxf - scale = 1.000000</desc>
  <defs
     id="defs3008">
    <linearGradient
       inkscape:collect="always"
       id="linearGradient3138">
      <stop
         style="stop-color:#2b0000;stop-opacity:1;"
         offset="0"
         id="stop3140" />
      <stop
         style="stop-color:#2b0000;stop-opacity:0;"
         offset="1"
         id="stop3142" />
    </linearGradient>
    <linearGradient
       inkscape:collect="always"
       id="linearGradient3130">
      <stop
         style="stop-color:#2b0000;stop-opacity:1;"
         offset="0"
         id="stop3132" />
      <stop
         style="stop-color:#2b0000;stop-opacity:0;"
         offset="1"
         id="stop3134" />
    </linearGradient>
    <marker
       refY="0"
       refX="0"
       style="overflow:visible"
       id="DistanceX"
       orient="auto">
      <path
         style="stroke:#000000;stroke-width:0.5"
         d="M 3,-3 -3,3 M 0,-5 0,5"
         id="path3011"
         inkscape:connector-curvature="0" />
    </marker>
    <pattern
       height="8"
       width="8"
       patternUnits="userSpaceOnUse"
       y="0"
       x="0"
       id="Hatch">
      <path
         linecap="square"
         stroke="#000000"
         stroke-width="0.25"
         d="M8 4 l-4,4"
         id="path3014" />
      <path
         linecap="square"
         stroke="#000000"
         stroke-width="0.25"
         d="M6 2 l-4,4"
         id="path3016" />
      <path
         linecap="square"
         stroke="#000000"
         stroke-width="0.25"
         d="M4 0 l-4,4"
         id="path3018" />
    </pattern>
    <symbol
       id="*Model_Space" />
    <symbol
       id="*Paper_Space" />
    <symbol
       id="*Paper_Space0" />
    <symbol
       id="CP-Axial-0">
      <path
         style="fill:none;stroke:#ff0000;stroke-linecap:round"
         d="m 38.976378,1052.3622 0,39.8622"
         id="path3024"
         inkscape:connector-curvature="0" />
      <path
         style="fill:none;stroke:#000000;stroke-linecap:round"
         d="m 38.976378,1052.3622 0,39.8622"
         id="path3026"
         inkscape:connector-curvature="0" />
      <path
         style="fill:none;stroke:#000000;stroke-width:0.5;stroke-linecap:round"
         d="m 15.813472,967.79054 c 1.331598,3.43996 5.446371,6.54703 5.446371,6.54703"
         id="path3028"
         inkscape:connector-curvature="0" />
      <path
         style="fill:none;stroke:#000000;stroke-width:0.5;stroke-linecap:round"
         d="m 12.401575,974.00467 c 1.619303,-3.64721 2.5156,-4.93067 2.963749,-5.5724 0.448148,-0.64173 0.448148,-0.64173 0.448148,-0.64173 0,0 0,0 0,0"
         id="path3030"
         inkscape:connector-curvature="0" />
      <path
         style="fill:none;stroke:#000000;stroke-width:0.5;stroke-linecap:round"
         d="m 15.813472,1008.4043 c 1.331598,3.4399 5.446371,6.547 5.446371,6.547"
         id="path3032"
         inkscape:connector-curvature="0" />
      <path
         style="fill:none;stroke:#000000;stroke-width:0.5;stroke-linecap:round"
         d="m 12.401575,1014.6184 c 1.619303,-3.6472 2.5156,-4.9307 2.963749,-5.5724 0.448148,-0.6417 0.448148,-0.6417 0.448148,-0.6417 0,0 0,0 0,0"
         id="path3034"
         inkscape:connector-curvature="0" />
      <path
         style="fill:none;stroke:#000000;stroke-linecap:round"
         d="m 15.944882,997.44095 0,-8.85827"
         id="path3036"
         inkscape:connector-curvature="0" />
      <path
         style="fill:none;stroke:#000000;stroke-linecap:round"
         d="m 16.09609,958.16593 0,-8.85827"
         id="path3038"
         inkscape:connector-curvature="0" />
      <path
         style="fill:none;stroke:#000000;stroke-linecap:round"
         d="m 16.079792,1027.4905 -0.08877,2.752"
         id="path3040"
         inkscape:connector-curvature="0" />
      <path
         style="fill:none;stroke:#000000;stroke-linecap:round"
         d="m 15.991018,1030.2425 c 1.242825,2.4856 1.775464,4.5274 1.864238,4.5274"
         id="path3042"
         inkscape:connector-curvature="0" />
      <path
         style="fill:none;stroke:#000000;stroke-width:0.5;stroke-linecap:round"
         d="m 12.401575,1043.5039 a 9.381547,9.381547 0 0 0 0,-13.2874"
         id="path3044"
         inkscape:connector-curvature="0" />
      <path
         style="fill:none;stroke:#000000;stroke-width:0.5;stroke-linecap:round"
         d="m 21.259843,1043.5039 a 20.116703,20.116703 0 0 0 0,-13.2874"
         id="path3046"
         inkscape:connector-curvature="0" />
      <path
         style="fill:none;stroke:#ff0000;stroke-width:0.5;stroke-linecap:round"
         d="m 12.401575,1052.3622 0,-8.8583"
         id="path3048"
         inkscape:connector-curvature="0" />
      <path
         style="fill:none;stroke:#ff0000;stroke-width:0.5;stroke-linecap:round"
         d="m 21.259843,1052.3622 0,-8.8583"
         id="path3050"
         inkscape:connector-curvature="0" />
      <path
         style="fill:none;stroke:#ff0000;stroke-linecap:round"
         d="m 38.976378,870.76772 0,39.8622"
         id="path3052"
         inkscape:connector-curvature="0" />
      <path
         style="fill:none;stroke:#ff0000;stroke-linecap:round"
         d="m 42.076772,910.40873 -0.221457,-5.53642 -6.200787,0 -0.221457,5.31496"
         id="path3054"
         inkscape:connector-curvature="0" />
      <path
         style="fill:none;stroke:#000000;stroke-linecap:round"
         d="m 38.976378,910.62992 0,-53.1496"
         id="path3056"
         inkscape:connector-curvature="0" />
      <path
         style="fill:none;stroke:#000000;stroke-linecap:round"
         d="m 35.654528,904.87231 6.200787,0"
         id="path3058"
         inkscape:connector-curvature="0" />
      <path
         style="fill:none;stroke:#000000;stroke-linecap:round"
         d="m 41.855315,904.87231 0.221457,5.53642"
         id="path3060"
         inkscape:connector-curvature="0" />
      <path
         style="fill:none;stroke:#000000;stroke-linecap:round"
         d="m 35.433071,910.18727 0.221457,-5.31496"
         id="path3062"
         inkscape:connector-curvature="0" />
      <path
         style="fill:none;stroke:#ff0000;stroke-width:0.5;stroke-linecap:round"
         d="m 21.259843,910.62992 0,119.58658"
         id="path3064"
         inkscape:connector-curvature="0" />
      <path
         style="fill:none;stroke:#ff0000;stroke-width:0.5;stroke-linecap:round"
         d="m 12.401575,910.62992 0,119.58658"
         id="path3066"
         inkscape:connector-curvature="0" />
      <path
         style="fill:none;stroke:#ff0000;stroke-linecap:round"
         d="m 87.914072,1036.6134 a 7.197343,7.197343 0 0 0 -0.01619,-0.295"
         id="path3068"
         inkscape:connector-curvature="0" />
      <path
         style="fill:none;stroke:#000000;stroke-linecap:round"
         d="m 77.952756,1030.2165 a 6.805766,6.805766 0 0 0 0,13.2874"
         id="path3070"
         inkscape:connector-curvature="0" />
      <path
         style="fill:none;stroke:#000000;stroke-linecap:round"
         d="m 77.952756,1043.5039 0,6.6437"
         id="path3072"
         inkscape:connector-curvature="0" />
      <path
         style="fill:none;stroke:#000000;stroke-linecap:round"
         d="m 75.738189,1052.3622 a 2.214567,2.214567 0 0 0 2.214567,-2.2146"
         id="path3074"
         inkscape:connector-curvature="0" />
      <path
         style="fill:none;stroke:#000000;stroke-linecap:round"
         d="m 77.952756,915.05905 a 4.429134,4.429134 0 0 0 -4.429134,-4.42913"
         id="path3076"
         inkscape:connector-curvature="0" />
      <path
         style="fill:none;stroke:#000000;stroke-linecap:round"
         d="m 77.952756,915.05905 0,115.15745"
         id="path3078"
         inkscape:connector-curvature="0" />
      <path
         style="fill:none;stroke:#000000;stroke-linecap:round"
         d="m 0,1043.5039 a 6.805766,6.805766 0 0 0 0,-13.2874"
         id="path3080"
         inkscape:connector-curvature="0" />
      <path
         style="fill:none;stroke:#000000;stroke-linecap:round"
         d="m 0,1050.1476 0,-6.6437"
         id="path3082"
         inkscape:connector-curvature="0" />
      <path
         style="fill:none;stroke:#000000;stroke-linecap:round"
         d="m 0,1050.1476 a 2.214567,2.214567 0 0 0 2.214567,2.2146"
         id="path3084"
         inkscape:connector-curvature="0" />
      <path
         style="fill:none;stroke:#000000;stroke-linecap:round"
         d="M 4.429134,910.62992 A 4.429134,4.429134 0 0 0 0,915.05905"
         id="path3086"
         inkscape:connector-curvature="0" />
      <path
         style="fill:none;stroke:#000000;stroke-linecap:round"
         d="M 0,1030.2165 0,915.05905"
         id="path3088"
         inkscape:connector-curvature="0" />
      <path
         style="fill:none;stroke:#000000;stroke-linecap:round"
         d="m 75.738189,1052.3622 -73.523622,0"
         id="path3090"
         inkscape:connector-curvature="0" />
      <path
         style="fill:none;stroke:#000000;stroke-linecap:round"
         d="m 4.429134,910.62992 69.094488,0"
         id="path3092"
         inkscape:connector-curvature="0" />
      <path
         style="fill:none;stroke:#000000;stroke-width:0.5;stroke-linecap:round"
         d="m 15.813472,928.34646 c 1.331598,3.43996 5.446371,6.54702 5.446371,6.54702"
         id="path3094"
         inkscape:connector-curvature="0" />
      <path
         style="fill:none;stroke:#000000;stroke-width:0.5;stroke-linecap:round"
         d="m 12.401575,934.56058 c 1.619303,-3.6472 2.5156,-4.93066 2.963749,-5.57239 0.448148,-0.64173 0.448148,-0.64173 0.448148,-0.64173 0,0 0,0 0,0"
         id="path3096"
         inkscape:connector-curvature="0" />
    </symbol>
    <linearGradient
       inkscape:collect="always"
       xlink:href="#linearGradient3130"
       id="linearGradient3136"
       x1="10.508055"
       y1="36.051094"
       x2="-5.9545646"
       y2="36.090012"
       gradientUnits="userSpaceOnUse"
       gradientTransform="translate(321.38653,516.20023)" />
    <linearGradient
       inkscape:collect="always"
       xlink:href="#linearGradient3138"
       id="linearGradient3144"
       x1="9.8075171"
       y1="27.372217"
       x2="-12.103722"
       y2="26.7106"
       gradientUnits="userSpaceOnUse"
       gradientTransform="translate(321.23086,516.04455)" />
  </defs>
  <g
     inkscape:label="0"
     inkscape:groupmode="layer"
     id="g3098"
     transform="translate(-321.23086,-516.20023)">
    <g
       id="g3054">
      <path
         inkscape:connector-curvature="0"
         id="path3100"
         d="m 321.73086,564.16578 11.25,0"
         style="fill:none;stroke:#000000;stroke-linecap:round" />
      <path
         inkscape:connector-curvature="0"
         id="path3102"
         d="m 332.98086,564.16578 0,-22.5"
         style="fill:none;stroke:#000000;stroke-linecap:round" />
      <path
         inkscape:connector-curvature="0"
         id="path3104"
         d="m 332.98086,541.66578 -11.25,0"
         style="fill:none;stroke:#000000;stroke-linecap:round" />
      <path
         inkscape:connector-curvature="0"
         id="path3106"
         d="m 321.73086,541.66578 0,22.5"
         style="fill:none;stroke:#000000;stroke-linecap:round" />
      <path
         inkscape:connector-curvature="0"
         id="path3108"
         d="m 321.73086,545.40033 0.44292,0"
         style="fill:none;stroke:#000000;stroke-linecap:round" />
      <path
         inkscape:connector-curvature="0"
         id="path3110"
         d="m 321.73086,545.40033 0.44292,0"
         style="fill:none;stroke:#000000;stroke-linecap:round" />
      <path
         inkscape:connector-curvature="0"
         id="path3112"
         d="m 321.73086,545.40033 11.25,0"
         style="fill:none;stroke:#000000;stroke-linecap:round" />
      <path
         inkscape:connector-curvature="0"
         id="path3114"
         d="m 327.35586,541.66578 0,-24.96555"
         style="fill:none;stroke:#000000;stroke-linecap:round" />
      <path
         inkscape:connector-curvature="0"
         id="path3116"
         d="m 327.35586,564.16578 0,24.94751"
         style="fill:none;stroke:#000000;stroke-linecap:round" />
      <path
         inkscape:connector-curvature="0"
         id="path3118"
         d="m 321.73086,548.18648 11.25,0"
         style="fill:none;stroke:#000000;stroke-linecap:round" />
      <path
         transform="translate(321.23086,516.20023)"
         inkscape:connector-curvature="0"
         id="path3051"
         d="m 0.77786635,32.140796 c -0.4035429,0.497878 -0.12385406,1.210363 -0.2067557,1.804855 0,4.488626 0,8.977251 0,13.465877 0.11913776,0.731338 0.99209385,0.447306 1.51296525,0.501079 3.058985,-0.01628 6.1284546,0.03256 9.1808851,-0.02443 0.681269,-0.185642 0.348901,-1.047355 0.427174,-1.566372 0,-4.592409 0,-9.184818 0,-13.777227 C 11.572997,31.813242 10.700041,32.097273 10.17917,32.0435 7.1201845,32.05978 4.0507149,32.01094 0.99828524,32.06793 0.92481224,32.09222 0.85133931,32.11651 0.77786635,32.1408 z"
         style="fill:#ffffff;fill-opacity:1;fill-rule:evenodd;stroke:#c0c0c0;stroke-width:0.14259820000000001;stroke-linejoin:round;stroke-miterlimit:4;stroke-opacity:1;stroke-dasharray:none;stroke-dashoffset:0" />
      <path
         transform="translate(321.23086,516.20023)"
         inkscape:connector-curvature="0"
         id="path3053"
         d="m 0.77786635,29.338648 c -0.4035429,0.497878 -0.12385406,1.210363 -0.2067557,1.804855 -0.13070196,0.552476 0.36718444,0.949077 0.89026575,0.812429 3.2665513,-0.01628 6.5435879,0.03256 9.8035846,-0.02443 0.681269,-0.185642 0.348901,-1.047355 0.427174,-1.566372 0.06156,-0.47188 -0.0046,-1.217509 -0.656754,-1.123778 -3.3443883,0.01628 -6.6992625,-0.03257 -10.03709576,0.02443 -0.073473,0.02429 -0.14694593,0.04858 -0.22041889,0.07287 z"
         style="fill:#ffffff;fill-opacity:1;fill-rule:evenodd;stroke:#c0c0c0;stroke-width:0.14259820000000001;stroke-linejoin:round;stroke-miterlimit:4;stroke-opacity:1;stroke-dasharray:none;stroke-dashoffset:0" />
      <path
         transform="translate(321.23086,516.20023)"
         inkscape:connector-curvature="0"
         id="path3055"
         d="m 0.77786635,25.602451 c -0.4035429,0.497878 -0.12385406,1.210363 -0.2067557,1.804855 0.0890057,0.566746 -0.2490207,1.375321 0.34783606,1.722154 3.42020449,0.05669 6.84870889,0.0082 10.27210929,0.02432 0.731338,-0.119138 0.447306,-0.992094 0.501079,-1.512965 -0.04669,-0.640675 0.104184,-1.313157 -0.0973,-1.928909 -0.497879,-0.403543 -1.210363,-0.123854 -1.8048556,-0.206756 -2.9292561,0.01628 -5.8689964,-0.03256 -8.79169716,0.02443 -0.073473,0.02429 -0.14694593,0.04858 -0.22041889,0.07287 z"
         style="fill:#ffffff;fill-opacity:1;fill-rule:evenodd;stroke:#c0c0c0;stroke-width:0.14259820000000001;stroke-linejoin:round;stroke-miterlimit:4;stroke-opacity:1;stroke-dasharray:none;stroke-dashoffset:0" />
      <path
         inkscape:connector-curvature="0"
         id="path3126"
         d="m 322.00932,541.59097 c -0.41185,0.23803 -0.24523,0.75985 -0.27851,1.14932 0.0117,0.68624 -0.0234,1.37779 0.0175,2.0607 0.0412,0.38186 0.47514,0.46809 0.79371,0.42402 3.3204,-0.006 6.64346,0.0117 9.9622,-0.009 0.38006,-0.0216 0.51569,-0.43812 0.46194,-0.76354 -0.0118,-0.82893 0.0234,-1.6632 -0.0175,-2.48881 -0.0412,-0.38186 -0.47513,-0.46809 -0.79371,-0.42402 -3.3204,0.006 -6.64346,-0.0117 -9.9622,0.009 -0.0611,0.0141 -0.12228,0.0282 -0.18342,0.0423 z"
         style="fill:url(#linearGradient3144);fill-opacity:1;fill-rule:evenodd;stroke:#ff0000;stroke-width:0.01533398;stroke-miterlimit:4;stroke-dasharray:none" />
      <path
         inkscape:connector-curvature="0"
         id="path3128"
         d="m 322.16499,548.24608 c -0.41185,0.23802 -0.24523,0.75985 -0.27851,1.14932 0,4.74808 0,9.49617 0,14.24425 0.009,0.37454 0.39872,0.56074 0.73338,0.49986 3.34634,-0.006 6.69534,0.0117 10.04003,-0.009 0.38006,-0.0216 0.51569,-0.43811 0.46194,-0.76354 0,-4.89079 0,-9.78157 0,-14.67236 -0.009,-0.37454 -0.39872,-0.56074 -0.73338,-0.49986 -3.34634,0.006 -6.69534,-0.0117 -10.04003,0.009 -0.0611,0.0141 -0.12228,0.0282 -0.18343,0.0423 z"
         style="fill:url(#linearGradient3136);fill-opacity:1;fill-rule:evenodd;stroke:#ff0000;stroke-width:0.01533398;stroke-miterlimit:4;stroke-dasharray:none" />
    </g>
  </g>
  <g
     inkscape:label="Background"
     inkscape:groupmode="layer"
     id="g3120"
     transform="translate(-321.23086,-516.20023)" />
</svg>
