<?xml version="1.0" encoding="UTF-8" standalone="no"?>
<svg
   xmlns:dc="http://purl.org/dc/elements/1.1/"
   xmlns:cc="http://creativecommons.org/ns#"
   xmlns:rdf="http://www.w3.org/1999/02/22-rdf-syntax-ns#"
   xmlns:svg="http://www.w3.org/2000/svg"
   xmlns="http://www.w3.org/2000/svg"
   xmlns:xlink="http://www.w3.org/1999/xlink"
   xmlns:sodipodi="http://sodipodi.sourceforge.net/DTD/sodipodi-0.dtd"
   xmlns:inkscape="http://www.inkscape.org/namespaces/inkscape"
   width="160.44881"
   height="183.12598"
   id="svg4032"
   version="1.1"
   inkscape:version="0.48.3.1 r9886"
   sodipodi:docname="Strip-board-5.svg">
  <metadata
     id="metadata4170">
    <rdf:RDF>
      <cc:Work
         rdf:about="">
        <dc:format>image/svg+xml</dc:format>
        <dc:type
           rdf:resource="http://purl.org/dc/dcmitype/StillImage" />
        <dc:title />
      </cc:Work>
    </rdf:RDF>
  </metadata>
  <sodipodi:namedview
     pagecolor="#ffffff"
     bordercolor="#666666"
     borderopacity="1"
     objecttolerance="10"
     gridtolerance="10"
     guidetolerance="10"
     inkscape:pageopacity="0.5"
     inkscape:pageshadow="2"
     inkscape:window-width="1920"
     inkscape:window-height="1031"
     id="namedview4168"
     showgrid="false"
     inkscape:zoom="1.7940591"
     inkscape:cx="155.75664"
     inkscape:cy="26.709732"
     inkscape:window-x="0"
     inkscape:window-y="0"
     inkscape:window-maximized="1"
     inkscape:current-layer="g4102"
     fit-margin-top="0"
     fit-margin-left="0"
     fit-margin-right="0"
     fit-margin-bottom="0" />
  <desc
     id="desc4034">/media/80f55706-5116-4aa9-b834-bdc13726b42c/phil/qcad-2.2.2.0-1-prof.linux.x86/library/Electronics/connectors/Strip-board-5.dxf - scale = 1.000000</desc>
  <defs
     id="defs4036">
    <marker
       refY="0"
       refX="0"
       style="overflow:visible"
       id="DistanceX"
       orient="auto">
      <path
         style="stroke:#000000;stroke-width:0.5"
         d="M 3,-3 -3,3 M 0,-5 0,5"
         id="path4039"
         inkscape:connector-curvature="0" />
    </marker>
    <pattern
       height="8"
       width="8"
       patternUnits="userSpaceOnUse"
       y="0"
       x="0"
       id="Hatch">
      <path
         linecap="square"
         stroke="#000000"
         stroke-width="0.25"
         d="M8 4 l-4,4"
         id="path4042" />
      <path
         linecap="square"
         stroke="#000000"
         stroke-width="0.25"
         d="M6 2 l-4,4"
         id="path4044" />
      <path
         linecap="square"
         stroke="#000000"
         stroke-width="0.25"
         d="M4 0 l-4,4"
         id="path4046" />
    </pattern>
    <symbol
       id="*Model_Space" />
    <symbol
       id="*Paper_Space" />
    <symbol
       id="*Paper_Space0" />
    <symbol
       id="Strip-0">
      <path
         style="fill:none;stroke:#000000;stroke-linecap:round"
         d="m 5.314961,1052.3622 a 5.314961,5.314961 0 1 0 -10.629922,0 5.314961,5.314961 0 1 0 10.629922,0 z"
         id="path4052"
         inkscape:connector-curvature="0" />
      <path
         style="fill:none;stroke:#000000;stroke-linecap:round"
         d="m 10.629921,1052.3622 a 10.629921,10.629921 0 1 0 -21.259842,0 10.629921,10.629921 0 1 0 21.259842,0 z"
         id="path4054"
         inkscape:connector-curvature="0" />
      <path
         style="fill:none;stroke:#000000;stroke-linecap:round"
         d="m -3.543307,1041.7323 0,-3.5433"
         id="path4056"
         inkscape:connector-curvature="0" />
      <path
         style="fill:none;stroke:#000000;stroke-linecap:round"
         d="m 3.543307,1041.7323 0,-3.5433"
         id="path4058"
         inkscape:connector-curvature="0" />
      <path
         style="fill:none;stroke:#000000;stroke-linecap:round"
         d="m 3.543307,1066.5354 0,-3.5433"
         id="path4060"
         inkscape:connector-curvature="0" />
      <path
         style="fill:none;stroke:#000000;stroke-linecap:round"
         d="m -3.543307,1066.5354 0,-3.5433"
         id="path4062"
         inkscape:connector-curvature="0" />
      <path
         style="fill:none;stroke:#000000;stroke-linecap:round"
         d="m 3.543307,1038.189 a 9.212598,9.212598 0 0 0 -7.086614,0"
         id="path4064"
         inkscape:connector-curvature="0" />
      <path
         style="fill:none;stroke:#000000;stroke-linecap:round"
         d="m -3.543307,1066.5354 a 9.212598,9.212598 0 0 0 7.086614,0"
         id="path4066"
         inkscape:connector-curvature="0" />
    </symbol>
    <symbol
       id="Strip-1">
      <path
         style="fill:none;stroke:#000000;stroke-linecap:round"
         d="m 5.314961,1052.3622 a 5.314961,5.314961 0 1 0 -10.629922,0 5.314961,5.314961 0 1 0 10.629922,0 z"
         id="path4069"
         inkscape:connector-curvature="0" />
      <path
         style="fill:none;stroke:#000000;stroke-linecap:round"
         d="m 10.629921,1052.3622 a 10.629921,10.629921 0 1 0 -21.259842,0 10.629921,10.629921 0 1 0 21.259842,0 z"
         id="path4071"
         inkscape:connector-curvature="0" />
      <path
         style="fill:none;stroke:#000000;stroke-linecap:round"
         d="m -3.543307,1041.7323 0,-3.5433"
         id="path4073"
         inkscape:connector-curvature="0" />
      <path
         style="fill:none;stroke:#000000;stroke-linecap:round"
         d="m 3.543307,1041.7323 0,-3.5433"
         id="path4075"
         inkscape:connector-curvature="0" />
      <path
         style="fill:none;stroke:#000000;stroke-linecap:round"
         d="m 3.543307,1066.5354 0,-3.5433"
         id="path4077"
         inkscape:connector-curvature="0" />
      <path
         style="fill:none;stroke:#000000;stroke-linecap:round"
         d="m -3.543307,1066.5354 0,-3.5433"
         id="path4079"
         inkscape:connector-curvature="0" />
      <path
         style="fill:none;stroke:#000000;stroke-linecap:round"
         d="m 3.543307,1038.189 a 9.212598,9.212598 0 0 0 -7.086614,0"
         id="path4081"
         inkscape:connector-curvature="0" />
      <path
         style="fill:none;stroke:#000000;stroke-linecap:round"
         d="m -3.543307,1066.5354 a 9.212598,9.212598 0 0 0 7.086614,0"
         id="path4083"
         inkscape:connector-curvature="0" />
    </symbol>
    <symbol
       id="Strip-2">
      <path
         style="fill:none;stroke:#000000;stroke-linecap:round"
         d="m 5.314961,1052.3622 a 5.314961,5.314961 0 1 0 -10.629922,0 5.314961,5.314961 0 1 0 10.629922,0 z"
         id="path4086"
         inkscape:connector-curvature="0" />
      <path
         style="fill:none;stroke:#000000;stroke-linecap:round"
         d="m 10.629921,1052.3622 a 10.629921,10.629921 0 1 0 -21.259842,0 10.629921,10.629921 0 1 0 21.259842,0 z"
         id="path4088"
         inkscape:connector-curvature="0" />
      <path
         style="fill:none;stroke:#000000;stroke-linecap:round"
         d="m -3.543307,1041.7323 0,-3.5433"
         id="path4090"
         inkscape:connector-curvature="0" />
      <path
         style="fill:none;stroke:#000000;stroke-linecap:round"
         d="m 3.543307,1041.7323 0,-3.5433"
         id="path4092"
         inkscape:connector-curvature="0" />
      <path
         style="fill:none;stroke:#000000;stroke-linecap:round"
         d="m 3.543307,1066.5354 0,-3.5433"
         id="path4094"
         inkscape:connector-curvature="0" />
      <path
         style="fill:none;stroke:#000000;stroke-linecap:round"
         d="m -3.543307,1066.5354 0,-3.5433"
         id="path4096"
         inkscape:connector-curvature="0" />
      <path
         style="fill:none;stroke:#000000;stroke-linecap:round"
         d="m 3.543307,1038.189 a 9.212598,9.212598 0 0 0 -7.086614,0"
         id="path4098"
         inkscape:connector-curvature="0" />
      <path
         style="fill:none;stroke:#000000;stroke-linecap:round"
         d="m -3.543307,1066.5354 a 9.212598,9.212598 0 0 0 7.086614,0"
         id="path4100"
         inkscape:connector-curvature="0" />
    </symbol>
    <linearGradient
       gradientUnits="userSpaceOnUse"
       y2="584.32355"
       x2="262.60953"
       y1="584.32355"
       x1="249.53185"
       id="linearGradient3942"
       xlink:href="#linearGradient3936"
       inkscape:collect="always" />
    <linearGradient
       gradientUnits="userSpaceOnUse"
       y2="572.81586"
       x2="265.00223"
       y1="572.81586"
       x1="251.99417"
       id="linearGradient3934"
       xlink:href="#linearGradient3928"
       inkscape:collect="always" />
    <linearGradient
       gradientUnits="userSpaceOnUse"
       y2="506.67041"
       x2="270.9729"
       y1="506.33041"
       x1="249.55035"
       id="linearGradient3926"
       xlink:href="#linearGradient3920"
       inkscape:collect="always" />
    <linearGradient
       gradientUnits="userSpaceOnUse"
       y2="585.89484"
       x2="249.21306"
       y1="585.89484"
       x1="328.16583"
       id="linearGradient3902"
       xlink:href="#linearGradient3896"
       inkscape:collect="always" />
    <linearGradient
       gradientUnits="userSpaceOnUse"
       y2="573.10742"
       x2="252.37775"
       y1="573.17657"
       x1="317.1066"
       id="linearGradient3894"
       xlink:href="#linearGradient3888"
       inkscape:collect="always" />
    <linearGradient
       gradientUnits="userSpaceOnUse"
       y2="479.55551"
       x2="250.21306"
       y1="479.16138"
       x1="327.16583"
       id="linearGradient3882"
       xlink:href="#linearGradient3876"
       inkscape:collect="always" />
    <symbol
       id="*Paper_Space0-0" />
    <symbol
       id="*Paper_Space-4" />
    <symbol
       id="*Model_Space-2" />
    <pattern
       id="Hatch-5"
       x="0"
       y="0"
       patternUnits="userSpaceOnUse"
       width="8"
       height="8">
      <path
         id="path2995"
         d="M8 4 l-4,4"
         stroke-width="0.25"
         stroke="#000000"
         linecap="square" />
      <path
         id="path2997"
         d="M6 2 l-4,4"
         stroke-width="0.25"
         stroke="#000000"
         linecap="square" />
      <path
         id="path2999"
         d="M4 0 l-4,4"
         stroke-width="0.25"
         stroke="#000000"
         linecap="square" />
    </pattern>
    <marker
       orient="auto"
       id="DistanceX-0"
       style="overflow:visible"
       refX="0"
       refY="0">
      <path
         id="path2992"
         d="M 3,-3 -3,3 M 0,-5 0,5"
         style="stroke:#000000;stroke-width:0.5"
         inkscape:connector-curvature="0" />
    </marker>
    <linearGradient
       id="linearGradient3876"
       inkscape:collect="always">
      <stop
         id="stop3878"
         offset="0"
         style="stop-color:#483737;stop-opacity:1;" />
      <stop
         id="stop3880"
         offset="1"
         style="stop-color:#483737;stop-opacity:0;" />
    </linearGradient>
    <linearGradient
       id="linearGradient3888"
       inkscape:collect="always">
      <stop
         id="stop3890"
         offset="0"
         style="stop-color:#483737;stop-opacity:1;" />
      <stop
         id="stop3892"
         offset="1"
         style="stop-color:#483737;stop-opacity:0;" />
    </linearGradient>
    <linearGradient
       id="linearGradient3896">
      <stop
         id="stop3898"
         offset="0"
         style="stop-color:#483737;stop-opacity:1;" />
      <stop
         id="stop3900"
         offset="1"
         style="stop-color:#483737;stop-opacity:0;" />
    </linearGradient>
    <linearGradient
       id="linearGradient3920"
       inkscape:collect="always">
      <stop
         id="stop3922"
         offset="0"
         style="stop-color:#483737;stop-opacity:1;" />
      <stop
         id="stop3924"
         offset="1"
         style="stop-color:#483737;stop-opacity:0;" />
    </linearGradient>
    <linearGradient
       id="linearGradient3928"
       inkscape:collect="always">
      <stop
         id="stop3930"
         offset="0"
         style="stop-color:#483737;stop-opacity:1;" />
      <stop
         id="stop3932"
         offset="1"
         style="stop-color:#483737;stop-opacity:0;" />
    </linearGradient>
    <linearGradient
       id="linearGradient3936"
       inkscape:collect="always">
      <stop
         id="stop3938"
         offset="0"
         style="stop-color:#483737;stop-opacity:1;" />
      <stop
         id="stop3940"
         offset="1"
         style="stop-color:#483737;stop-opacity:0;" />
    </linearGradient>
  </defs>
  <g
     inkscape:label="0"
     inkscape:groupmode="layer"
     id="g4102"
     transform="translate(-261.77979,-429.78362)">
    <use
       y="0"
       x="0"
       xlink:href="#Strip-0"
       id="use4104"
       transform="translate(405.78372,-454.8345)"
       width="744.09448"
       height="1052.3622" />
    <use
       y="-152.3622"
       x="0"
       xlink:href="#Strip-2"
       id="use4106"
       transform="translate(405.78372,-454.8345)"
       width="744.09448"
       height="1052.3622" />
    <use
       y="0"
       x="-31.889765"
       xlink:href="#Strip-0"
       id="use4108"
       transform="translate(405.78372,-454.8345)"
       width="744.09448"
       height="1052.3622" />
    <use
       y="-152.3622"
       x="-31.889765"
       xlink:href="#Strip-2"
       id="use4110"
       transform="translate(405.78372,-454.8345)"
       width="744.09448"
       height="1052.3622" />
    <use
       y="0"
       x="-63.77953"
       xlink:href="#Strip-0"
       id="use4112"
       transform="translate(405.78372,-454.8345)"
       width="744.09448"
       height="1052.3622" />
    <use
       y="-152.3622"
       x="-63.77953"
       xlink:href="#Strip-2"
       id="use4114"
       transform="translate(405.78372,-454.8345)"
       width="744.09448"
       height="1052.3622" />
    <use
       y="0"
       x="-95.669289"
       xlink:href="#Strip-0"
       id="use4116"
       transform="translate(405.78372,-454.8345)"
       width="744.09448"
       height="1052.3622" />
    <use
       y="-152.3622"
       x="-95.669289"
       xlink:href="#Strip-2"
       id="use4118"
       transform="translate(405.78372,-454.8345)"
       width="744.09448"
       height="1052.3622" />
    <use
       y="0"
       x="-127.55905"
       xlink:href="#Strip-0"
       id="use4120"
       transform="translate(405.78372,-454.8345)"
       width="744.09448"
       height="1052.3622"
       style="fill:#deaa87" />
    <use
       y="-152.3622"
       x="-127.55905"
       xlink:href="#Strip-2"
       id="use4122"
       transform="translate(405.78372,-454.8345)"
       width="744.09448"
       height="1052.3622" />
    <path
       style="fill:none;stroke:#000000;stroke-linecap:round"
       d="m 395.1538,521.3466 a 5.314961,5.314961 0 1 0 -10.62992,0 5.314961,5.314961 0 0 0 10.62992,0 z"
       id="path4124"
       inkscape:connector-curvature="0" />
    <path
       style="fill:none;stroke:#000000;stroke-linecap:round"
       d="m 363.26404,521.3466 a 5.314961,5.314961 0 1 0 -10.62992,0 5.314961,5.314961 0 1 0 10.62992,0 z"
       id="path4126"
       inkscape:connector-curvature="0" />
    <path
       style="fill:none;stroke:#000000;stroke-linecap:round"
       d="m 331.37427,521.3466 a 5.314961,5.314961 0 1 0 -10.62992,0 5.314961,5.314961 0 1 0 10.62992,0 z"
       id="path4128"
       inkscape:connector-curvature="0" />
    <path
       style="fill:none;stroke:#000000;stroke-linecap:round"
       d="m 299.48451,521.3466 a 5.314961,5.314961 0 1 0 -10.62992,0 5.314961,5.314961 0 1 0 10.62992,0 z"
       id="path4130"
       inkscape:connector-curvature="0" />
    <path
       style="fill:none;stroke:#000000;stroke-linecap:round"
       d="m 421.7286,516.03164 a 5.314961,5.314961 0 0 0 0,10.62992"
       id="path4132"
       inkscape:connector-curvature="0" />
    <path
       style="fill:none;stroke:#000000;stroke-linecap:round"
       d="m 262.27979,526.66156 a 5.314961,5.314961 0 0 0 0,-10.62992"
       id="path4134"
       inkscape:connector-curvature="0" />
    <path
       style="fill:none;stroke:#000000;stroke-linecap:round"
       d="m 262.27979,516.03164 0,-83.26772"
       id="path4136"
       inkscape:connector-curvature="0" />
    <path
       style="fill:none;stroke:#000000;stroke-linecap:round"
       d="m 421.7286,516.03164 0,-83.26772"
       id="path4138"
       inkscape:connector-curvature="0" />
    <path
       style="fill:none;stroke:#000000;stroke-linecap:round"
       d="m 262.27979,526.66156 0,83.26772"
       id="path4140"
       inkscape:connector-curvature="0" />
    <path
       style="fill:none;stroke:#000000;stroke-linecap:round"
       d="m 421.7286,526.66156 0,83.26772"
       id="path4142"
       inkscape:connector-curvature="0" />
    <path
       style="fill:none;stroke:#000000;stroke-linecap:round"
       d="m 262.27979,432.76392 12.40157,0"
       id="path4144"
       inkscape:connector-curvature="0" />
    <path
       style="fill:none;stroke:#000000;stroke-linecap:round"
       d="m 409.32703,432.76392 12.40157,0"
       id="path4146"
       inkscape:connector-curvature="0" />
    <path
       style="fill:none;stroke:#000000;stroke-linecap:round"
       d="m 377.43727,432.76392 24.80315,0"
       id="path4148"
       inkscape:connector-curvature="0" />
    <path
       style="fill:none;stroke:#000000;stroke-linecap:round"
       d="m 281.76797,432.76392 24.80315,0"
       id="path4150"
       inkscape:connector-curvature="0" />
    <path
       style="fill:none;stroke:#000000;stroke-linecap:round"
       d="m 345.5475,432.76392 24.80315,0"
       id="path4152"
       inkscape:connector-curvature="0" />
    <path
       style="fill:none;stroke:#000000;stroke-linecap:round"
       d="m 313.65774,432.76392 24.80315,0"
       id="path4154"
       inkscape:connector-curvature="0" />
    <path
       style="fill:none;stroke:#000000;stroke-linecap:round"
       d="m 262.27979,609.92928 12.40157,0"
       id="path4156"
       inkscape:connector-curvature="0" />
    <path
       style="fill:none;stroke:#000000;stroke-linecap:round"
       d="m 409.32703,609.92928 12.40157,0"
       id="path4158"
       inkscape:connector-curvature="0" />
    <path
       style="fill:none;stroke:#000000;stroke-linecap:round"
       d="m 377.43727,609.92928 24.80315,0"
       id="path4160"
       inkscape:connector-curvature="0" />
    <path
       style="fill:none;stroke:#000000;stroke-linecap:round"
       d="m 281.76797,609.92928 24.80315,0"
       id="path4162"
       inkscape:connector-curvature="0" />
    <path
       style="fill:none;stroke:#000000;stroke-linecap:round"
       d="m 345.5475,609.92928 24.80315,0"
       id="path4164"
       inkscape:connector-curvature="0" />
    <path
       style="fill:none;stroke:#000000;stroke-linecap:round"
       d="m 313.65774,609.92928 24.80315,0"
       id="path4166"
       inkscape:connector-curvature="0" />
    <path
       style="fill:#aa4400;fill-opacity:1;fill-rule:evenodd;stroke:#ff0000;stroke-width:0.21961372;stroke-miterlimit:4;stroke-dasharray:none"
       d="m 262.54638,433.52019 c 0,27.21947 0,54.43893 0,81.6584 2.39512,1.20686 5.43157,3.06006 5.13848,6.32295 0.10872,2.7457 -2.17324,4.94324 -4.80753,5.43461 -0.78498,6.44612 -0.10094,13.35732 -0.33095,19.97913 0,20.72814 0,41.45627 0,62.18441 3.01351,1.08325 6.92543,0.39962 10.27697,0.26128 2.54008,-0.112 0.48387,-2.59689 -0.88835,-2.89149 -6.56344,-4.34101 -5.59224,-15.70199 1.63735,-18.86435 1.24704,-1.63774 -0.28862,-5.161 2.78698,-5.06881 1.97134,-0.27675 6.12273,-0.57702 5.6262,2.54312 0.29636,3.57565 4.99598,4.23268 5.88749,7.62934 2.6918,5.23257 0.35514,12.01751 -4.84237,14.73614 -1.77801,0.98233 -0.1458,2.35198 1.32381,1.93346 7.21362,0.18878 14.584,0.62333 21.721,-0.29611 1.33901,-1.69199 -2.0022,-1.58463 -2.50828,-2.89149 -4.87982,-3.78808 -5.63351,-11.26901 -1.63735,-15.9206 1.73502,-1.9746 5.37852,-2.96585 4.56368,-6.35779 0.14218,-2.24916 3.67782,-1.2172 5.1559,-1.41091 2.11923,-0.31122 2.49703,1.34875 2.22958,3.03084 0.65833,3.11606 4.86216,3.70072 5.7133,6.88035 2.87283,4.69749 1.1576,10.71077 -3.11143,13.91536 -0.96166,0.66871 -3.39939,3.27813 -0.70324,3.10261 7.3584,0.0121 14.89449,0.75936 22.15646,-0.4703 1.31671,-1.5648 -1.8625,-1.57717 -2.49086,-2.61279 -4.28817,-3.415 -5.57364,-9.67346 -2.73472,-14.31809 1.19137,-3.31224 6.14997,-3.9825 5.73072,-7.99514 0.85172,-2.64587 4.91121,-1.43573 6.86293,-1.13221 0.61859,1.70851 -0.18061,4.64911 2.40376,5.27784 6.8167,3.61468 6.46437,14.04267 0.47031,18.23727 -1.08534,0.62864 -3.22062,3.05492 -0.64449,2.96116 7.348,0.14858 14.89152,0.68365 22.13904,-0.33095 0.5582,-2.01595 -2.9298,-2.61939 -3.83209,-4.23272 -4.58854,-4.95933 -3.01167,-13.86074 3.03083,-17.10507 2.04315,-1.35686 0.13117,-5.25997 3.36179,-5.17332 1.93788,-0.25742 6.13484,-0.61047 5.59138,2.50828 -0.29075,2.09397 1.21758,3.05648 2.76955,3.91918 5.86813,4.47898 5.10448,14.85555 -1.51542,18.23728 -1.32021,0.49066 -1.46424,2.38598 0.22645,2.10765 7.36456,0.31781 14.90806,0.63387 22.19129,-0.20902 0.80682,-2.04359 -3.01353,-2.69846 -3.77983,-4.31982 -4.63258,-5.18524 -2.91416,-14.33303 3.51855,-17.17474 1.21729,-1.64601 -0.30054,-5.15988 2.76956,-5.06881 1.93788,-0.25742 6.13483,-0.61047 5.59137,2.50828 -0.15384,1.70209 0.71446,2.80133 2.15991,3.37921 3.95498,2.74118 5.8076,7.77644 4.25014,12.38462 -0.66715,3.49765 -3.84262,5.29216 -6.16619,7.54226 0.26924,1.91089 3.63776,0.86671 5.05133,1.24542 2.76348,-0.1598 7.82718,1.30468 6.41011,-3.2834 0,-26.29048 0,-52.58095 0,-78.87142 -2.46426,-1.19489 -5.43138,-3.24627 -4.92946,-6.5494 -0.0805,-3.00202 2.78476,-4.52252 4.92946,-5.7133 0,-27.21947 0,-54.43893 0,-81.6584 -3.0063,-1.08375 -6.92029,-0.39885 -10.25955,-0.26128 -2.21681,-0.0588 -0.94464,2.2461 0.43546,2.64763 7.05887,3.90412 6.40384,15.11796 -0.41804,18.9166 -2.24615,1.19908 -0.34174,5.15198 -3.36179,5.20816 -2.08817,0.39401 -6.25902,0.63984 -5.90491,-2.57795 -1.45515,-4.29829 -7.23187,-6.4065 -6.68874,-11.53112 -0.38969,-4.67127 2.35602,-8.81567 6.27069,-11.09564 1.42816,-1.8387 -2.2996,-1.61486 -3.23986,-1.67219 -6.61191,-0.0718 -13.38678,-0.47603 -19.90946,0.36579 -0.79485,1.90437 2.59015,2.72191 3.51856,4.05853 4.33417,4.54164 3.73709,12.92721 -1.67219,16.54768 -1.47903,0.59629 -2.43445,1.67225 -2.24699,3.4663 0.50705,3.18962 -3.86803,2.75595 -5.83524,2.4386 -2.9728,-0.0957 -1.0661,-3.96116 -3.29211,-5.13849 -7.04965,-3.86108 -7.40364,-15.59459 -0.0523,-19.31722 1.30577,-0.41609 1.96298,-2.4559 0.0348,-2.247 -7.41178,-0.3284 -15.02826,-0.6995 -22.34807,0.1916 0.0326,2.28537 3.28001,3.1581 4.26756,5.20816 4.09536,5.2632 2.25615,13.78095 -4.04111,16.40832 -1.86241,1.20649 0.20102,4.96385 -2.57796,5.06882 -1.8712,-0.002 -6.12056,1.00217 -5.73072,-2.15991 0.2957,-3.88327 -4.92072,-4.39814 -5.85265,-7.83837 -2.88566,-5.4731 -0.30622,-12.79534 5.39977,-15.20644 1.34584,-1.97919 -2.63561,-1.79475 -3.67532,-1.88121 -6.63373,0.0709 -13.51564,-0.63904 -20.01398,0.52256 -0.19896,2.15187 3.33678,2.72171 4.3024,4.52884 4.74462,5.20982 2.42906,14.20377 -3.77984,17.12248 -1.60715,1.28185 0.27569,4.82353 -2.42118,4.91205 -1.91311,0.0273 -6.16506,0.97468 -5.73072,-2.22958 0.49698,-3.57587 -4.08898,-3.75966 -5.34751,-6.49714 -3.69586,-5.22493 -1.49177,-13.0242 4.07595,-16.07737 1.28689,-0.42887 1.66092,-2.45596 -0.13935,-2.12507 -7.51289,-0.23735 -15.15843,-0.66207 -22.60934,0.26128 -0.79429,1.88017 2.6897,2.58292 3.55339,4.0237 4.85006,5.04634 3.43052,14.37976 -2.92632,17.57536 -1.82785,1.38728 -0.15574,5.0851 -3.23986,4.94689 -1.93788,0.25742 -6.13484,0.61047 -5.59138,-2.50828 0.41244,-3.30747 -3.50169,-3.54344 -4.75527,-5.992 -3.80349,-5.10019 -1.93671,-13.1542 3.6579,-16.23414 1.75832,-0.88773 0.60549,-2.56029 -1.02769,-2.19474 -3.08544,0.0525 -6.8769,-0.7578 -9.58023,0.36579 z m 31.05736,82.44224 c 5.05993,-0.93968 8.27172,6.58263 3.98886,9.54539 -2.87601,2.17049 -7.56055,1.37025 -8.62221,-2.38635 -1.11799,-2.95037 1.45705,-7.24463 4.63335,-7.15904 z m 31.87604,0.0174 c 3.59051,-0.50115 7.00174,3.20897 5.80039,6.75841 -0.81455,4.38931 -7.47784,5.48314 -9.70216,1.67219 -1.924,-2.65367 -0.90815,-6.86673 2.3341,-8.06481 0.48864,-0.21169 1.06329,-0.33919 1.56767,-0.36579 z m 64.06561,-0.0174 c 4.55986,-0.71314 7.7131,5.74074 4.33724,8.88348 -2.77132,3.80375 -9.93814,1.42078 -9.37121,-3.44888 -0.31679,-2.70831 2.32002,-5.55878 5.03397,-5.4346 z m -31.21413,0.0174 c 5.30213,-0.36326 6.96986,8.20817 2.12507,10.22472 -3.32518,1.51994 -7.53824,-0.45909 -7.90804,-4.19789 -0.56905,-3.36735 2.434,-6.41156 5.78297,-6.02683 z"
       id="path4172"
       inkscape:connector-curvature="0" />
    <path
       style="fill:#deaa87;fill-opacity:1;fill-rule:evenodd;stroke:#ff0000;stroke-width:0.21961372;stroke-miterlimit:4;stroke-dasharray:none"
       d="m 372.9803,587.53546 c -7.27822,0.1597 -12.19099,9.54824 -7.61192,15.3632 2.83763,4.97287 9.88704,6.44201 14.38776,2.85665 6.96272,-4.21782 4.81724,-16.47927 -3.22244,-17.95857 -1.1566,-0.27579 -2.36293,-0.35282 -3.5534,-0.26128 z m 0.78384,4.61593 c 5.1222,-0.51348 7.82671,7.11462 3.32695,9.737 -3.65943,3.07467 -9.65798,-0.72989 -8.55253,-5.38235 0.44884,-2.48362 2.72317,-4.38145 5.22558,-4.35465 z"
       id="path4174"
       inkscape:connector-curvature="0" />
    <path
       style="fill:#deaa87;fill-opacity:1;fill-rule:evenodd;stroke:#ff0000;stroke-width:0.21961372;stroke-miterlimit:4;stroke-dasharray:none"
       d="m 373.57254,582.95437 c -2.00853,-0.39863 -4.21105,2.94199 -1.74186,3.69274 1.7535,0.20799 6.34714,0.7598 5.243,-2.31667 -0.68771,-1.18402 -2.24625,-1.4599 -3.50114,-1.37607 z"
       id="path4176"
       inkscape:connector-curvature="0" />
    <path
       style="fill:#deaa87;fill-opacity:1;fill-rule:evenodd;stroke:#ff0000;stroke-width:0.21961372;stroke-miterlimit:4;stroke-dasharray:none"
       d="m 373.11965,608.26359 c -2.32211,-0.87223 -3.55845,2.97156 -1.2193,3.44889 1.85913,0.1985 6.02024,0.84415 5.33009,-2.28184 -0.44405,-1.72496 -2.86519,-0.99943 -4.11079,-1.16705 z"
       id="path4178"
       inkscape:connector-curvature="0" />
    <path
       style="fill:#deaa87;fill-opacity:1;fill-rule:evenodd;stroke:#ff0000;stroke-width:0.21961372;stroke-miterlimit:4;stroke-dasharray:none"
       d="m 404.69958,587.70964 c -8.30865,-0.26688 -12.32374,12.25776 -5.7133,17.17474 4.35986,5.04414 13.43114,2.98642 15.8335,-2.97858 3.76964,-6.0382 -1.82401,-15.28144 -9.02283,-14.21357 l -0.55733,0.009 -0.54004,0.009 z m 1.04511,4.38949 c 5.05559,-0.31103 7.5667,7.34498 3.08309,9.94602 -4.12926,3.23965 -10.54491,-2.21464 -7.9603,-6.79325 0.86516,-1.87108 2.79166,-3.20811 4.87721,-3.15277 z"
       id="path4180"
       inkscape:connector-curvature="0" />
    <path
       style="fill:#deaa87;fill-opacity:1;fill-rule:evenodd;stroke:#ff0000;stroke-width:0.21961372;stroke-miterlimit:4;stroke-dasharray:none"
       d="m 405.25697,582.95437 c -2.12108,-0.43002 -4.20154,3.10641 -1.51542,3.67532 1.67774,0.12315 5.91188,0.92077 5.12107,-2.00314 -0.48002,-1.43737 -2.29252,-1.76239 -3.60565,-1.67218 z"
       id="path4182"
       inkscape:connector-curvature="0" />
    <path
       style="fill:#deaa87;fill-opacity:1;fill-rule:evenodd;stroke:#ff0000;stroke-width:0.07764518;stroke-miterlimit:4;stroke-dasharray:none"
       d="m 402.53413,607.89403 c -0.56444,0.95715 -0.0759,2.24849 -0.24017,3.3317 0.40596,0.88401 1.74127,0.73064 2.57421,1.00382 1.36426,-0.033 2.98453,0.0911 4.11381,-0.77596 0.40021,-1.00631 0.27164,-2.26103 0.0677,-3.28243 -1.9889,-0.33531 -4.15517,0.37398 -6.12146,-0.33256 -0.13138,0.0185 -0.26276,0.0369 -0.39414,0.0554 z"
       id="path4184"
       inkscape:connector-curvature="0" />
    <path
       style="fill:#deaa87;fill-opacity:1;fill-rule:evenodd;stroke:#ff0000;stroke-width:0.07764518;stroke-miterlimit:4;stroke-dasharray:none"
       d="m 338.76385,608.2389 c -0.17434,1.10189 -0.17901,2.40282 0.1478,3.4795 2.00278,0.70619 4.33711,0.7972 6.26926,-0.11701 0.0891,-1.09279 0.31917,-2.30046 0.0431,-3.36865 -1.9748,-0.33845 -4.07358,-0.053 -6.09682,-0.1478 -0.12111,0.0513 -0.24223,0.10264 -0.36334,0.15396 z"
       id="path4186"
       inkscape:connector-curvature="0" />
    <path
       style="fill:#deaa87;fill-opacity:1;fill-rule:evenodd;stroke:#ff0000;stroke-width:0.07764518;stroke-miterlimit:4;stroke-dasharray:none"
       d="m 341.25184,582.90938 c -1.01424,-8.4e-4 -2.69765,0.1229 -2.59884,1.52728 0.16621,0.8555 -0.50024,2.32474 0.5124,2.70178 1.95481,-0.48183 4.02457,-0.19151 5.9724,-0.0844 0.43172,-0.96092 0.22164,-2.19172 0.10469,-3.23933 -0.73686,-1.28499 -2.79641,-0.78236 -3.99065,-0.90528 z"
       id="path4188"
       inkscape:connector-curvature="0" />
    <path
       style="fill:#deaa87;fill-opacity:1;fill-rule:evenodd;stroke:#ff0000;stroke-width:0.07764518;stroke-miterlimit:4;stroke-dasharray:none"
       d="m 341.71372,587.10325 c -5.26793,-0.0123 -9.98722,4.56796 -10.15111,9.82829 -0.51853,5.92332 4.98496,11.55588 10.93926,11.02936 5.40366,-0.0657 10.09318,-5.00784 9.94595,-10.40068 0.18215,-4.66578 -3.38703,-9.02158 -7.82818,-10.16983 -0.94769,-0.23291 -1.93171,-0.31278 -2.90592,-0.28714 z m 0.28945,5.093 c 3.40733,-0.12563 6.18692,3.55634 5.11147,6.78041 -0.61544,2.37153 -2.96151,4.11721 -5.42555,3.83053 -2.19123,0.0744 -4.0555,-1.74649 -4.79124,-3.67041 -1.14473,-3.32462 1.61318,-6.9852 5.10532,-6.94053 z"
       id="path4190"
       inkscape:connector-curvature="0" />
    <path
       style="fill:#deaa87;fill-opacity:1;fill-rule:evenodd;stroke:#ff0000;stroke-width:0.07764518;stroke-miterlimit:4;stroke-dasharray:none"
       d="m 309.88708,587.09094 c -5.20218,-0.0645 -9.79594,4.38527 -10.21063,9.49626 -0.55555,4.88874 2.89102,9.7017 7.59331,11.02354 4.4473,1.29312 9.61383,-0.73365 11.86109,-4.80971 2.29825,-3.67494 1.82784,-8.70259 -1.02529,-11.94474 -1.93331,-2.49796 -5.08738,-3.84912 -8.21848,-3.76535 z m 0.0554,5.08684 c 3.42699,-0.17615 6.41247,3.51804 5.32702,6.78656 -0.80287,2.86164 -4.17219,4.75287 -6.95284,3.57188 -3.33896,-1.02589 -4.77026,-5.7875 -2.28477,-8.35696 0.95368,-1.17374 2.35192,-2.00707 3.91059,-2.00148 z"
       id="path4192"
       inkscape:connector-curvature="0" />
    <path
       style="fill:#deaa87;fill-opacity:1;fill-rule:evenodd;stroke:#ff0000;stroke-width:0.07764518;stroke-miterlimit:4;stroke-dasharray:none"
       d="m 309.72697,582.84779 c -1.08649,0.0853 -3.05835,0.0311 -2.99915,1.59503 0.16555,0.85584 -0.49939,2.32446 0.51241,2.70177 1.98172,-0.43267 4.04899,-0.2697 6.01613,-0.0507 0.8619,-0.63667 0.0892,-2.11731 0.28052,-3.08742 -0.0542,-1.15476 -1.63478,-0.91463 -2.47896,-1.13261 -0.44236,-0.04 -0.8873,-0.0364 -1.33095,-0.026 z"
       id="path4194"
       inkscape:connector-curvature="0" />
    <path
       style="fill:#deaa87;fill-opacity:1;fill-rule:evenodd;stroke:#ff0000;stroke-width:0.07764518;stroke-miterlimit:4;stroke-dasharray:none"
       d="m 313.01555,607.84476 c -1.99829,0.64237 -4.15461,0.0141 -6.15224,0.33256 -0.16415,1.05256 -0.39657,2.38109 0.1478,3.38096 1.34281,0.90811 3.17403,0.68435 4.71734,0.54194 0.92705,-0.14761 2.29601,-0.40324 1.89679,-1.67509 -0.19997,-0.74292 0.51511,-2.49984 -0.60969,-2.58037 z"
       id="path4196"
       inkscape:connector-curvature="0" />
    <path
       style="fill:#deaa87;fill-opacity:1;fill-rule:evenodd;stroke:#ff0000;stroke-width:0.07764518;stroke-miterlimit:4;stroke-dasharray:none"
       d="m 281.05959,607.83245 c -1.9473,0.62075 -4.08105,0.31553 -6.02908,0.0493 -0.56064,0.96757 -0.0787,2.25546 -0.24018,3.34402 0.40597,0.88401 1.74127,0.73064 2.57422,1.00382 1.44315,0.008 3.058,0.008 4.28625,-0.8006 0.0206,-1.1394 0.21052,-2.38225 -0.1047,-3.4795 -0.16414,-0.017 -0.31395,-0.1927 -0.48651,-0.117 z"
       id="path4198"
       inkscape:connector-curvature="0" />
    <path
       style="fill:#deaa87;fill-opacity:1;fill-rule:evenodd;stroke:#ff0000;stroke-width:0.07764518;stroke-miterlimit:4;stroke-dasharray:none"
       d="m 277.45076,582.91554 c -1.01844,0.004 -2.74552,0.0926 -2.64811,1.52112 0.16637,0.85741 -0.50039,2.32904 0.5124,2.70793 1.9741,-0.42553 4.0329,-0.27726 5.99167,-0.05 0.80301,-0.44361 0.23492,-1.70676 0.38718,-2.49778 0.20781,-1.32138 -1.26031,-1.71685 -2.28476,-1.66277 -0.65191,-0.0399 -1.30596,-0.0565 -1.95838,-0.0185 z"
       id="path4200"
       inkscape:connector-curvature="0" />
    <path
       style="fill:#deaa87;fill-opacity:1;fill-rule:evenodd;stroke:#ff0000;stroke-width:0.07764518;stroke-miterlimit:4;stroke-dasharray:none"
       d="m 277.18595,587.12173 c -6.07192,0.3701 -10.78005,6.97156 -9.15755,12.82796 1.17057,5.06962 6.47307,8.84872 11.66212,7.92933 5.55517,-0.63915 9.84628,-6.3199 8.92104,-11.83777 -0.57828,-4.33247 -4.2099,-7.96369 -8.43878,-8.82715 -0.99123,-0.0911 -1.99191,-0.12513 -2.98683,-0.0924 z m 0.83754,5.07452 c 3.46281,-0.25372 6.47007,3.47681 5.33934,6.79888 -0.80631,2.95842 -4.32215,4.66566 -7.11911,3.54109 -2.81061,-1.19315 -4.38335,-4.89703 -2.67891,-7.59332 0.91187,-1.59985 2.61539,-2.7422 4.45868,-2.74665 z"
       id="path4202"
       inkscape:connector-curvature="0" />
    <path
       style="fill:#deaa87;fill-opacity:1;fill-rule:evenodd;stroke:#ff0000;stroke-width:0.07764518;stroke-miterlimit:4;stroke-dasharray:none"
       d="m 277.80795,430.47653 c -0.99065,0.0853 -2.09035,0.12272 -2.94988,0.64047 -0.0605,1.15391 -0.21903,2.42416 0.0862,3.54109 1.05682,0.21598 2.20019,-0.29948 3.31322,-0.16012 1.08889,-0.0853 2.17817,0.27521 3.23317,0.20322 0.41636,-0.96626 0.22418,-2.1942 0.0924,-3.23932 -0.71163,-1.1387 -2.6301,-0.92315 -3.7751,-0.98534 z"
       id="path4204"
       inkscape:connector-curvature="0" />
    <path
       style="fill:#deaa87;fill-opacity:1;fill-rule:evenodd;stroke:#ff0000;stroke-width:0.07764518;stroke-miterlimit:4;stroke-dasharray:none"
       d="m 277.61704,434.71351 c -5.30913,0.19281 -9.85201,4.98117 -9.8904,10.25991 -0.17191,5.74888 5.08678,11.05557 10.86959,10.65404 4.93046,-0.0895 9.32538,-4.1176 9.99426,-8.98283 0.99337,-5.55509 -3.41469,-11.27089 -9.00276,-11.86338 -0.65309,-0.0824 -1.31356,-0.0976 -1.97069,-0.0677 z m 0.44341,5.093 c 3.17988,-0.165 5.92539,2.93178 5.4625,6.06603 -0.34459,3.36077 -4.4834,5.7686 -7.51941,4.13845 -2.59592,-1.19368 -4.04379,-4.58395 -2.55574,-7.16222 0.88665,-1.72405 2.63241,-3.02995 4.61265,-3.04226 z"
       id="path4206"
       inkscape:connector-curvature="0" />
    <path
       style="fill:#deaa87;fill-opacity:1;fill-rule:evenodd;stroke:#ff0000;stroke-width:0.07764518;stroke-miterlimit:4;stroke-dasharray:none"
       d="m 281.09038,455.51045 c -1.98055,0.56912 -4.10211,0.26283 -6.07835,0.0677 -0.52259,0.97575 -0.0688,2.23205 -0.2217,3.31322 0.3919,0.88601 1.70517,0.71059 2.52495,0.97303 1.45169,0.0366 3.03931,-0.0339 4.3232,-0.72053 0.0464,-1.14569 0.21723,-2.4035 -0.0924,-3.5103 -0.15484,-0.0105 -0.29426,-0.18085 -0.45572,-0.12316 z"
       id="path4208"
       inkscape:connector-curvature="0" />
    <path
       style="fill:#deaa87;fill-opacity:1;fill-rule:evenodd;stroke:#ff0000;stroke-width:0.07764518;stroke-miterlimit:4;stroke-dasharray:none"
       d="m 306.93721,455.58435 c -0.52468,0.97109 -0.0673,2.22875 -0.2217,3.30706 0.39189,0.88601 1.70517,0.71059 2.52494,0.97303 1.4517,0.0366 3.03932,-0.0339 4.3232,-0.72053 -0.0183,-1.10605 0.34244,-2.44685 -0.21554,-3.45487 -0.7151,-0.39534 -1.65636,0.24831 -2.48184,0.0862 -1.32925,0.1601 -2.64769,-0.12661 -3.92906,-0.19091 z"
       id="path4210"
       inkscape:connector-curvature="0" />
    <path
       style="fill:#deaa87;fill-opacity:1;fill-rule:evenodd;stroke:#ff0000;stroke-width:0.07764518;stroke-miterlimit:4;stroke-dasharray:none"
       d="m 309.73928,434.71351 c -5.97577,0.0424 -11.00581,6.0482 -9.97661,11.94731 0.63204,5.34933 5.93782,9.59447 11.30683,8.95432 5.34322,-0.4742 9.87766,-5.47171 9.50858,-10.88806 -0.18962,-5.56747 -5.21975,-10.36659 -10.8388,-10.01357 z m 0.26481,5.10532 c 3.6312,-0.24531 6.56478,3.95614 5.08685,7.29155 -1.04542,2.3741 -3.7993,4.05767 -6.38011,3.20237 -2.38608,-0.67269 -4.29998,-3.07261 -3.849,-5.62878 0.0518,-2.63717 2.57112,-4.79323 5.14226,-4.86514 z"
       id="path4212"
       inkscape:connector-curvature="0" />
    <path
       style="fill:#deaa87;fill-opacity:1;fill-rule:evenodd;stroke:#ff0000;stroke-width:0.07764518;stroke-miterlimit:4;stroke-dasharray:none"
       d="m 309.73312,430.47653 c -0.99065,0.0853 -2.09035,0.12272 -2.94987,0.64047 -0.0594,1.14556 -0.22011,2.40791 0.0862,3.51645 1.18742,0.2252 2.446,-0.30684 3.68888,-0.14164 0.97263,-0.0465 1.93772,0.3578 2.88213,0.15396 0.35783,-0.98497 0.23931,-2.20222 0.0431,-3.23932 -0.78604,-1.07428 -2.58304,-0.87016 -3.75047,-0.92992 z"
       id="path4214"
       inkscape:connector-curvature="0" />
    <path
       style="fill:#deaa87;fill-opacity:1;fill-rule:evenodd;stroke:#ff0000;stroke-width:0.07764518;stroke-miterlimit:4;stroke-dasharray:none"
       d="m 341.5105,430.4519 c -0.9471,0.18658 -2.35695,0.002 -2.86982,0.89912 0.0963,1.08502 -0.19517,2.24878 0.15396,3.28243 1.25436,0.22475 2.57786,-0.34582 3.88595,-0.12932 0.86626,-0.1493 2.23293,0.78212 2.67275,-0.23402 -0.0963,-1.08502 0.19517,-2.24878 -0.15396,-3.28243 -1.16443,-0.40905 -2.44684,-0.59897 -3.68888,-0.53578 z"
       id="path4216"
       inkscape:connector-curvature="0" />
    <path
       style="fill:#deaa87;fill-opacity:1;fill-rule:evenodd;stroke:#ff0000;stroke-width:0.07764518;stroke-miterlimit:4;stroke-dasharray:none"
       d="m 341.52897,434.68888 c -5.78105,0.15276 -10.70176,5.82266 -9.94582,11.5778 0.49277,5.7714 6.50461,10.45599 12.23675,9.20066 4.91884,-0.84872 8.94738,-5.51255 8.62177,-10.57398 0.0226,-5.73278 -5.25327,-10.46304 -10.9127,-10.20448 z m 0.43725,5.11763 c 3.62016,-0.14265 6.55737,4.09602 4.95136,7.40856 -0.95764,2.42474 -3.76646,3.79843 -6.28158,3.12232 -3.18389,-0.74308 -5.0735,-4.85792 -3.29474,-7.71033 0.92994,-1.65605 2.7426,-2.77413 4.62496,-2.82055 z"
       id="path4218"
       inkscape:connector-curvature="0" />
    <path
       style="fill:#deaa87;fill-opacity:1;fill-rule:evenodd;stroke:#ff0000;stroke-width:0.07764518;stroke-miterlimit:4;stroke-dasharray:none"
       d="m 344.74366,455.51045 c -1.91099,0.56478 -3.97405,0.25968 -5.88128,0.0677 -0.52259,0.97575 -0.0688,2.23205 -0.2217,3.31322 0.39394,0.8861 1.70872,0.71283 2.5311,0.97303 1.39568,0.0355 2.94266,0.0108 4.13229,-0.76364 0.0191,-1.13548 0.21203,-2.37418 -0.10469,-3.46719 -0.15484,-0.0105 -0.29426,-0.18085 -0.45572,-0.12316 z"
       id="path4220"
       inkscape:connector-curvature="0" />
    <path
       style="fill:#deaa87;fill-opacity:1;fill-rule:evenodd;stroke:#ff0000;stroke-width:0.07764518;stroke-miterlimit:4;stroke-dasharray:none"
       d="m 376.66883,455.51045 c -1.89387,0.54447 -3.92256,0.22804 -5.81969,0.0431 -0.89639,0.62618 -0.29201,2.07935 -0.48036,3.01146 -0.0442,1.20007 1.5932,0.93418 2.39562,1.25015 1.49169,0.14152 3.17929,0.0867 4.46485,-0.71437 0.0191,-1.13548 0.21202,-2.37418 -0.1047,-3.46719 -0.15484,-0.0105 -0.29426,-0.18085 -0.45572,-0.12316 z"
       id="path4222"
       inkscape:connector-curvature="0" />
    <path
       style="fill:#deaa87;fill-opacity:1;fill-rule:evenodd;stroke:#ff0000;stroke-width:0.07764518;stroke-miterlimit:4;stroke-dasharray:none"
       d="m 373.49725,434.6704 c -5.68405,0.10326 -10.53109,5.51483 -10.05527,11.16471 0.21633,5.83461 6.05607,10.62893 11.81658,9.74308 5.63861,-0.68732 10.04688,-6.50623 8.97279,-12.13206 -0.79788,-5.05323 -5.62654,-8.98427 -10.7341,-8.77573 z m 0.26481,5.14227 c 3.27552,-0.1378 6.2615,3.24839 5.31641,6.49394 -0.47773,2.77768 -3.44788,4.67423 -6.1909,4.11699 -1.88637,-0.30541 -3.42865,-1.90954 -4.08918,-3.6273 -1.13386,-3.25335 1.54984,-6.94496 4.96367,-6.98363 z"
       id="path4224"
       inkscape:connector-curvature="0" />
    <path
       style="fill:#deaa87;fill-opacity:1;fill-rule:evenodd;stroke:#ff0000;stroke-width:0.07764518;stroke-miterlimit:4;stroke-dasharray:none"
       d="m 373.36793,430.48269 c -1.08841,0.0934 -3.03395,0.0773 -2.98683,1.6135 0.16564,0.85296 -0.50136,2.32181 0.51731,2.69122 1.96874,-0.41827 4.02307,-0.32043 5.99222,-0.0731 0.84772,-0.55598 0.17472,-1.98217 0.38788,-2.87673 0.20593,-1.33801 -1.52955,-1.1003 -2.40793,-1.32406 -0.49878,-0.0466 -1.00235,-0.0549 -1.50265,-0.0308 z"
       id="path4226"
       inkscape:connector-curvature="0" />
    <path
       style="fill:#deaa87;fill-opacity:1;fill-rule:evenodd;stroke:#ff0000;stroke-width:0.07764518;stroke-miterlimit:4;stroke-dasharray:none"
       d="m 405.28694,430.47653 c -1.08703,0.0893 -3.01994,0.0823 -2.98067,1.6135 0.15851,0.84475 -0.4871,2.30595 0.51731,2.66659 1.97445,-0.3893 4.03021,-0.28247 5.99222,-0.0423 0.84773,-0.55598 0.17472,-1.98217 0.38789,-2.87673 0.20608,-1.34154 -1.53268,-1.09744 -2.4141,-1.32406 -0.49893,-0.0487 -1.00188,-0.0488 -1.50265,-0.0369 z"
       id="path4228"
       inkscape:connector-curvature="0" />
    <path
       style="fill:#deaa87;fill-opacity:1;fill-rule:evenodd;stroke:#ff0000;stroke-width:0.07764518;stroke-miterlimit:4;stroke-dasharray:none"
       d="m 405.37932,434.71351 c -4.73722,0.04 -8.9689,3.79919 -9.85345,8.38775 -1.29365,5.36704 2.64772,11.1886 7.99977,12.29834 5.78159,1.46121 12.07313,-3.09453 12.67541,-8.97107 0.83106,-5.60449 -3.7288,-11.20058 -9.34256,-11.66241 -0.49111,-0.0516 -0.98549,-0.0716 -1.47917,-0.0526 z m 0.37566,5.093 c 3.56114,-0.0486 6.64195,4.09606 4.9452,7.41472 -1.16119,2.95925 -5.13879,4.31125 -7.77191,2.43257 -2.72803,-1.65744 -3.35253,-5.77578 -1.10235,-8.06135 0.97829,-1.12322 2.44523,-1.79309 3.92906,-1.78594 z"
       id="path4230"
       inkscape:connector-curvature="0" />
    <path
       style="fill:#deaa87;fill-opacity:1;fill-rule:evenodd;stroke:#ff0000;stroke-width:0.07764518;stroke-miterlimit:4;stroke-dasharray:none"
       d="m 408.59401,455.51045 c -1.98055,0.56912 -4.10211,0.26283 -6.07835,0.0677 -0.44355,0.9534 -0.2265,2.18627 -0.11701,3.23316 0.59972,1.18134 2.23192,0.90388 3.34401,1.06541 1.16035,-0.0425 2.44653,-0.098 3.41176,-0.77596 0.0191,-1.13548 0.21202,-2.37418 -0.10469,-3.46719 -0.15485,-0.0105 -0.29426,-0.18085 -0.45572,-0.12316 z"
       id="path4232"
       inkscape:connector-curvature="0" />
  </g>
</svg>
