<?xml version="1.0" encoding="UTF-8" standalone="no"?>
<svg
   xmlns:dc="http://purl.org/dc/elements/1.1/"
   xmlns:cc="http://creativecommons.org/ns#"
   xmlns:rdf="http://www.w3.org/1999/02/22-rdf-syntax-ns#"
   xmlns:svg="http://www.w3.org/2000/svg"
   xmlns="http://www.w3.org/2000/svg"
   xmlns:xlink="http://www.w3.org/1999/xlink"
   xmlns:sodipodi="http://sodipodi.sourceforge.net/DTD/sodipodi-0.dtd"
   xmlns:inkscape="http://www.inkscape.org/namespaces/inkscape"
   width="22.259842"
   height="30.763723"
   id="svg4032"
   version="1.1"
   inkscape:version="0.48.3.1 r9886"
   sodipodi:docname="Strip-board-5.svg">
  <metadata
     id="metadata4170">
    <rdf:RDF>
      <cc:Work
         rdf:about="">
        <dc:format>image/svg+xml</dc:format>
        <dc:type
           rdf:resource="http://purl.org/dc/dcmitype/StillImage" />
        <dc:title></dc:title>
      </cc:Work>
    </rdf:RDF>
  </metadata>
  <sodipodi:namedview
     pagecolor="#ffffff"
     bordercolor="#666666"
     borderopacity="1"
     objecttolerance="10"
     gridtolerance="10"
     guidetolerance="10"
     inkscape:pageopacity="0.5"
     inkscape:pageshadow="2"
     inkscape:window-width="861"
     inkscape:window-height="1022"
     id="namedview4168"
     showgrid="false"
     inkscape:zoom="1.2685914"
     inkscape:cx="41.258095"
     inkscape:cy="186.55263"
     inkscape:window-x="1043"
     inkscape:window-y="0"
     inkscape:window-maximized="0"
     inkscape:current-layer="g4102"
     fit-margin-top="0"
     fit-margin-left="0"
     fit-margin-right="0"
     fit-margin-bottom="0" />
  <desc
     id="desc4034">/media/80f55706-5116-4aa9-b834-bdc13726b42c/phil/qcad-2.2.2.0-1-prof.linux.x86/library/Electronics/connectors/Strip-board-5.dxf - scale = 1.000000</desc>
  <defs
     id="defs4036">
    <marker
       refY="0"
       refX="0"
       style="overflow:visible"
       id="DistanceX"
       orient="auto">
      <path
         style="stroke:#000000;stroke-width:0.5"
         d="M 3,-3 -3,3 M 0,-5 0,5"
         id="path4039"
         inkscape:connector-curvature="0" />
    </marker>
    <pattern
       height="8"
       width="8"
       patternUnits="userSpaceOnUse"
       y="0"
       x="0"
       id="Hatch">
      <path
         linecap="square"
         stroke="#000000"
         stroke-width="0.25"
         d="M8 4 l-4,4"
         id="path4042" />
      <path
         linecap="square"
         stroke="#000000"
         stroke-width="0.25"
         d="M6 2 l-4,4"
         id="path4044" />
      <path
         linecap="square"
         stroke="#000000"
         stroke-width="0.25"
         d="M4 0 l-4,4"
         id="path4046" />
    </pattern>
    <symbol
       id="*Model_Space" />
    <symbol
       id="*Paper_Space" />
    <symbol
       id="*Paper_Space0" />
    <symbol
       id="Strip-0">
      <path
         style="fill:none;stroke:#000000;stroke-linecap:round"
         d="m 5.314961,1052.3622 a 5.314961,5.314961 0 1 0 -10.629922,0 5.314961,5.314961 0 1 0 10.629922,0 z"
         id="path4052"
         inkscape:connector-curvature="0" />
      <path
         style="fill:none;stroke:#000000;stroke-linecap:round"
         d="m 10.629921,1052.3622 a 10.629921,10.629921 0 1 0 -21.259842,0 10.629921,10.629921 0 1 0 21.259842,0 z"
         id="path4054"
         inkscape:connector-curvature="0" />
      <path
         style="fill:none;stroke:#000000;stroke-linecap:round"
         d="m -3.543307,1041.7323 0,-3.5433"
         id="path4056"
         inkscape:connector-curvature="0" />
      <path
         style="fill:none;stroke:#000000;stroke-linecap:round"
         d="m 3.543307,1041.7323 0,-3.5433"
         id="path4058"
         inkscape:connector-curvature="0" />
      <path
         style="fill:none;stroke:#000000;stroke-linecap:round"
         d="m 3.543307,1066.5354 0,-3.5433"
         id="path4060"
         inkscape:connector-curvature="0" />
      <path
         style="fill:none;stroke:#000000;stroke-linecap:round"
         d="m -3.543307,1066.5354 0,-3.5433"
         id="path4062"
         inkscape:connector-curvature="0" />
      <path
         style="fill:none;stroke:#000000;stroke-linecap:round"
         d="m 3.543307,1038.189 a 9.212598,9.212598 0 0 0 -7.086614,0"
         id="path4064"
         inkscape:connector-curvature="0" />
      <path
         style="fill:none;stroke:#000000;stroke-linecap:round"
         d="m -3.543307,1066.5354 a 9.212598,9.212598 0 0 0 7.086614,0"
         id="path4066"
         inkscape:connector-curvature="0" />
    </symbol>
    <symbol
       id="Strip-1">
      <path
         style="fill:none;stroke:#000000;stroke-linecap:round"
         d="m 5.314961,1052.3622 a 5.314961,5.314961 0 1 0 -10.629922,0 5.314961,5.314961 0 1 0 10.629922,0 z"
         id="path4069"
         inkscape:connector-curvature="0" />
      <path
         style="fill:none;stroke:#000000;stroke-linecap:round"
         d="m 10.629921,1052.3622 a 10.629921,10.629921 0 1 0 -21.259842,0 10.629921,10.629921 0 1 0 21.259842,0 z"
         id="path4071"
         inkscape:connector-curvature="0" />
      <path
         style="fill:none;stroke:#000000;stroke-linecap:round"
         d="m -3.543307,1041.7323 0,-3.5433"
         id="path4073"
         inkscape:connector-curvature="0" />
      <path
         style="fill:none;stroke:#000000;stroke-linecap:round"
         d="m 3.543307,1041.7323 0,-3.5433"
         id="path4075"
         inkscape:connector-curvature="0" />
      <path
         style="fill:none;stroke:#000000;stroke-linecap:round"
         d="m 3.543307,1066.5354 0,-3.5433"
         id="path4077"
         inkscape:connector-curvature="0" />
      <path
         style="fill:none;stroke:#000000;stroke-linecap:round"
         d="m -3.543307,1066.5354 0,-3.5433"
         id="path4079"
         inkscape:connector-curvature="0" />
      <path
         style="fill:none;stroke:#000000;stroke-linecap:round"
         d="m 3.543307,1038.189 a 9.212598,9.212598 0 0 0 -7.086614,0"
         id="path4081"
         inkscape:connector-curvature="0" />
      <path
         style="fill:none;stroke:#000000;stroke-linecap:round"
         d="m -3.543307,1066.5354 a 9.212598,9.212598 0 0 0 7.086614,0"
         id="path4083"
         inkscape:connector-curvature="0" />
    </symbol>
    <symbol
       id="Strip-2">
      <path
         style="fill:none;stroke:#000000;stroke-linecap:round"
         d="m 5.314961,1052.3622 a 5.314961,5.314961 0 1 0 -10.629922,0 5.314961,5.314961 0 1 0 10.629922,0 z"
         id="path4086"
         inkscape:connector-curvature="0" />
      <path
         style="fill:none;stroke:#000000;stroke-linecap:round"
         d="m 10.629921,1052.3622 a 10.629921,10.629921 0 1 0 -21.259842,0 10.629921,10.629921 0 1 0 21.259842,0 z"
         id="path4088"
         inkscape:connector-curvature="0" />
      <path
         style="fill:none;stroke:#000000;stroke-linecap:round"
         d="m -3.543307,1041.7323 0,-3.5433"
         id="path4090"
         inkscape:connector-curvature="0" />
      <path
         style="fill:none;stroke:#000000;stroke-linecap:round"
         d="m 3.543307,1041.7323 0,-3.5433"
         id="path4092"
         inkscape:connector-curvature="0" />
      <path
         style="fill:none;stroke:#000000;stroke-linecap:round"
         d="m 3.543307,1066.5354 0,-3.5433"
         id="path4094"
         inkscape:connector-curvature="0" />
      <path
         style="fill:none;stroke:#000000;stroke-linecap:round"
         d="m -3.543307,1066.5354 0,-3.5433"
         id="path4096"
         inkscape:connector-curvature="0" />
      <path
         style="fill:none;stroke:#000000;stroke-linecap:round"
         d="m 3.543307,1038.189 a 9.212598,9.212598 0 0 0 -7.086614,0"
         id="path4098"
         inkscape:connector-curvature="0" />
      <path
         style="fill:none;stroke:#000000;stroke-linecap:round"
         d="m -3.543307,1066.5354 a 9.212598,9.212598 0 0 0 7.086614,0"
         id="path4100"
         inkscape:connector-curvature="0" />
    </symbol>
    <linearGradient
       gradientUnits="userSpaceOnUse"
       y2="584.32355"
       x2="262.60953"
       y1="584.32355"
       x1="249.53185"
       id="linearGradient3942"
       xlink:href="#linearGradient3936"
       inkscape:collect="always" />
    <linearGradient
       gradientUnits="userSpaceOnUse"
       y2="572.81586"
       x2="265.00223"
       y1="572.81586"
       x1="251.99417"
       id="linearGradient3934"
       xlink:href="#linearGradient3928"
       inkscape:collect="always" />
    <linearGradient
       gradientUnits="userSpaceOnUse"
       y2="506.67041"
       x2="270.9729"
       y1="506.33041"
       x1="249.55035"
       id="linearGradient3926"
       xlink:href="#linearGradient3920"
       inkscape:collect="always" />
    <linearGradient
       gradientUnits="userSpaceOnUse"
       y2="585.89484"
       x2="249.21306"
       y1="585.89484"
       x1="328.16583"
       id="linearGradient3902"
       xlink:href="#linearGradient3896"
       inkscape:collect="always" />
    <linearGradient
       gradientUnits="userSpaceOnUse"
       y2="573.10742"
       x2="252.37775"
       y1="573.17657"
       x1="317.1066"
       id="linearGradient3894"
       xlink:href="#linearGradient3888"
       inkscape:collect="always" />
    <linearGradient
       gradientUnits="userSpaceOnUse"
       y2="479.55551"
       x2="250.21306"
       y1="479.16138"
       x1="327.16583"
       id="linearGradient3882"
       xlink:href="#linearGradient3876"
       inkscape:collect="always" />
    <symbol
       id="*Paper_Space0-0" />
    <symbol
       id="*Paper_Space-4" />
    <symbol
       id="*Model_Space-2" />
    <pattern
       id="Hatch-5"
       x="0"
       y="0"
       patternUnits="userSpaceOnUse"
       width="8"
       height="8">
      <path
         id="path2995"
         d="M8 4 l-4,4"
         stroke-width="0.25"
         stroke="#000000"
         linecap="square" />
      <path
         id="path2997"
         d="M6 2 l-4,4"
         stroke-width="0.25"
         stroke="#000000"
         linecap="square" />
      <path
         id="path2999"
         d="M4 0 l-4,4"
         stroke-width="0.25"
         stroke="#000000"
         linecap="square" />
    </pattern>
    <marker
       orient="auto"
       id="DistanceX-0"
       style="overflow:visible"
       refX="0"
       refY="0">
      <path
         id="path2992"
         d="M 3,-3 -3,3 M 0,-5 0,5"
         style="stroke:#000000;stroke-width:0.5"
         inkscape:connector-curvature="0" />
    </marker>
    <linearGradient
       id="linearGradient3876"
       inkscape:collect="always">
      <stop
         id="stop3878"
         offset="0"
         style="stop-color:#483737;stop-opacity:1;" />
      <stop
         id="stop3880"
         offset="1"
         style="stop-color:#483737;stop-opacity:0;" />
    </linearGradient>
    <linearGradient
       id="linearGradient3888"
       inkscape:collect="always">
      <stop
         id="stop3890"
         offset="0"
         style="stop-color:#483737;stop-opacity:1;" />
      <stop
         id="stop3892"
         offset="1"
         style="stop-color:#483737;stop-opacity:0;" />
    </linearGradient>
    <linearGradient
       id="linearGradient3896">
      <stop
         id="stop3898"
         offset="0"
         style="stop-color:#483737;stop-opacity:1;" />
      <stop
         id="stop3900"
         offset="1"
         style="stop-color:#483737;stop-opacity:0;" />
    </linearGradient>
    <linearGradient
       id="linearGradient3920"
       inkscape:collect="always">
      <stop
         id="stop3922"
         offset="0"
         style="stop-color:#483737;stop-opacity:1;" />
      <stop
         id="stop3924"
         offset="1"
         style="stop-color:#483737;stop-opacity:0;" />
    </linearGradient>
    <linearGradient
       id="linearGradient3928"
       inkscape:collect="always">
      <stop
         id="stop3930"
         offset="0"
         style="stop-color:#483737;stop-opacity:1;" />
      <stop
         id="stop3932"
         offset="1"
         style="stop-color:#483737;stop-opacity:0;" />
    </linearGradient>
    <linearGradient
       id="linearGradient3936"
       inkscape:collect="always">
      <stop
         id="stop3938"
         offset="0"
         style="stop-color:#483737;stop-opacity:1;" />
      <stop
         id="stop3940"
         offset="1"
         style="stop-color:#483737;stop-opacity:0;" />
    </linearGradient>
    <symbol
       id="*Paper_Space0-07" />
    <symbol
       id="*Paper_Space-8" />
    <symbol
       id="*Model_Space-4" />
    <pattern
       id="Hatch-1"
       x="0"
       y="0"
       patternUnits="userSpaceOnUse"
       width="8"
       height="8">
      <path
         id="path3125"
         d="M8 4 l-4,4"
         stroke-width="0.25"
         stroke="#000000"
         linecap="square" />
      <path
         id="path3127"
         d="M6 2 l-4,4"
         stroke-width="0.25"
         stroke="#000000"
         linecap="square" />
      <path
         id="path3129"
         d="M4 0 l-4,4"
         stroke-width="0.25"
         stroke="#000000"
         linecap="square" />
    </pattern>
    <marker
       orient="auto"
       id="DistanceX-9"
       style="overflow:visible"
       refX="0"
       refY="0">
      <path
         id="path3122"
         d="M 3,-3 -3,3 M 0,-5 0,5"
         style="stroke:#000000;stroke-width:0.5"
         inkscape:connector-curvature="0" />
    </marker>
  </defs>
  <g
     inkscape:label="0"
     inkscape:groupmode="layer"
     id="g4102"
     transform="translate(-483.64108,-633.75843)">
    <g
       id="g3134"
       inkscape:label="0"
       transform="translate(494.771,-403.22191)">
      <path
         id="path3136"
         d="m 5.314961,1052.3622 a 5.314961,5.314961 0 1 0 -10.629922,0 5.314961,5.314961 0 1 0 10.629922,0 z"
         style="fill:none;stroke:#000000;stroke-linecap:round"
         inkscape:connector-curvature="0" />
      <path
         id="path3138"
         d="m 10.629921,1052.3622 a 10.629921,10.629921 0 1 0 -21.259842,0 10.629921,10.629921 0 1 0 21.259842,0 z"
         style="fill:none;stroke:#000000;stroke-linecap:round"
         inkscape:connector-curvature="0" />
      <path
         id="path3140"
         d="m -3.543307,1041.7323 0,-3.5433"
         style="fill:none;stroke:#000000;stroke-linecap:round"
         inkscape:connector-curvature="0" />
      <path
         id="path3142"
         d="m 3.543307,1041.7323 0,-3.5433"
         style="fill:none;stroke:#000000;stroke-linecap:round"
         inkscape:connector-curvature="0" />
      <path
         id="path3144"
         d="m 3.543307,1066.5354 0,-3.5433"
         style="fill:none;stroke:#000000;stroke-linecap:round"
         inkscape:connector-curvature="0" />
      <path
         id="path3146"
         d="m -3.543307,1066.5354 0,-3.5433"
         style="fill:none;stroke:#000000;stroke-linecap:round"
         inkscape:connector-curvature="0" />
      <path
         id="path3148"
         d="m 3.543307,1038.189 a 9.212598,9.212598 0 0 0 -7.086614,0"
         style="fill:none;stroke:#000000;stroke-linecap:round"
         inkscape:connector-curvature="0" />
      <path
         id="path3150"
         d="m -3.543307,1066.5354 a 9.212598,9.212598 0 0 0 7.086614,0"
         style="fill:none;stroke:#000000;stroke-linecap:round"
         inkscape:connector-curvature="0" />
    </g>
    <path
       style="fill:#deaa87;fill-opacity:1;fill-rule:evenodd;stroke:#ff0010;stroke-width:0.03882259;stroke-miterlimit:4;stroke-opacity:1;stroke-dasharray:none"
       d="m 232.65916,204.5667 c -1.04899,0.0717 -2.17293,0.18699 -3.08844,0.71746 -0.19999,1.07584 -0.0291,2.20688 -0.0862,3.30398 0.14618,0.8216 1.04604,0.33927 1.57039,0.26481 1.42545,-0.0886 2.89374,-0.17862 4.29871,0.0916 0.4718,0.25937 1.26363,0.12642 1.13917,-0.55352 -0.0683,-1.04161 0.13966,-2.1301 -0.11086,-3.14078 -1.11564,-0.55949 -2.48071,-0.70646 -3.72275,-0.68359 z"
       id="path3174"
       inkscape:connector-curvature="0"
       transform="translate(261.77979,429.78362)" />
    <path
       style="fill:#deaa87;fill-opacity:1;fill-rule:evenodd;stroke:#ff0010;stroke-width:0.03882259;stroke-miterlimit:4;stroke-opacity:1;stroke-dasharray:none"
       d="m 232.82236,208.8468 c -3.71243,-0.0595 -7.2814,2.19047 -9.04978,5.40708 -1.38376,2.39445 -1.65871,5.34825 -0.933,7.99669 0.95181,3.33593 3.62145,6.09948 6.93744,7.13143 1.34272,0.51311 2.78728,0.6021 4.2056,0.44044 4.29172,-0.28062 8.13586,-3.61752 9.20619,-7.76532 1.13469,-3.97797 -0.44037,-8.50135 -3.71538,-10.99946 -1.87744,-1.4701 -4.25264,-2.33261 -6.65107,-2.21086 z m 0.14164,5.1669 c 2.32268,0.0116 4.49901,1.73075 5.16382,3.93522 0.34293,1.39432 0.24789,2.98285 -0.65279,4.16924 -1.06366,1.63199 -2.91397,2.77709 -4.89285,2.54958 -2.29466,-0.15089 -4.25872,-2.04764 -4.82819,-4.23082 -0.23175,-1.34304 -0.0548,-2.79503 0.79443,-3.90135 0.97235,-1.48126 2.62354,-2.52787 4.41558,-2.52187 z"
       id="path3176"
       inkscape:connector-curvature="0"
       transform="translate(261.77979,429.78362)" />
    <path
       style="fill:#deaa87;fill-opacity:1;fill-rule:evenodd;stroke:#ff0010;stroke-width:0.03882259;stroke-miterlimit:4;stroke-opacity:1;stroke-dasharray:none"
       d="m 229.75239,229.68992 c -0.52664,0.48816 -0.15841,1.31268 -0.26789,1.94913 0.0865,0.61082 -0.19725,1.36875 0.193,1.87731 2.02108,0.89125 4.37681,0.76017 6.455,0.10878 0.66457,-0.39571 0.24038,-1.32236 0.36027,-1.95837 -0.0893,-0.6173 0.20215,-1.39254 -0.19527,-1.90143 -0.59452,-0.31087 -1.28261,0.17791 -1.92938,0.15552 -1.46412,0.16425 -2.95123,0.0326 -4.38077,-0.26357 -0.0783,0.0109 -0.15664,0.0217 -0.23496,0.0326 z"
       id="path3178"
       inkscape:connector-curvature="0"
       transform="translate(261.77979,429.78362)" />
  </g>
</svg>
