<?xml version="1.0" encoding="UTF-8" standalone="no"?>
<svg
   xmlns:dc="http://purl.org/dc/elements/1.1/"
   xmlns:cc="http://creativecommons.org/ns#"
   xmlns:rdf="http://www.w3.org/1999/02/22-rdf-syntax-ns#"
   xmlns:svg="http://www.w3.org/2000/svg"
   xmlns="http://www.w3.org/2000/svg"
   xmlns:xlink="http://www.w3.org/1999/xlink"
   xmlns:sodipodi="http://sodipodi.sourceforge.net/DTD/sodipodi-0.dtd"
   xmlns:inkscape="http://www.inkscape.org/namespaces/inkscape"
   width="64.576828"
   height="183.12592"
   id="svg4032"
   version="1.1"
   inkscape:version="0.48.3.1 r9886"
   sodipodi:docname="Strip-board-5.svg">
  <metadata
     id="metadata4170">
    <rdf:RDF>
      <cc:Work
         rdf:about="">
        <dc:format>image/svg+xml</dc:format>
        <dc:type
           rdf:resource="http://purl.org/dc/dcmitype/StillImage" />
        <dc:title></dc:title>
      </cc:Work>
    </rdf:RDF>
  </metadata>
  <sodipodi:namedview
     pagecolor="#ffffff"
     bordercolor="#666666"
     borderopacity="1"
     objecttolerance="10"
     gridtolerance="10"
     guidetolerance="10"
     inkscape:pageopacity="0.5"
     inkscape:pageshadow="2"
     inkscape:window-width="1920"
     inkscape:window-height="1031"
     id="namedview4168"
     showgrid="false"
     inkscape:zoom="3.5881182"
     inkscape:cx="139.17714"
     inkscape:cy="94.803567"
     inkscape:window-x="0"
     inkscape:window-y="0"
     inkscape:window-maximized="1"
     inkscape:current-layer="g4102"
     fit-margin-top="0"
     fit-margin-left="0"
     fit-margin-right="0"
     fit-margin-bottom="0" />
  <desc
     id="desc4034">/media/80f55706-5116-4aa9-b834-bdc13726b42c/phil/qcad-2.2.2.0-1-prof.linux.x86/library/Electronics/connectors/Strip-board-5.dxf - scale = 1.000000</desc>
  <defs
     id="defs4036">
    <marker
       refY="0"
       refX="0"
       style="overflow:visible"
       id="DistanceX"
       orient="auto">
      <path
         style="stroke:#000000;stroke-width:0.5"
         d="M 3,-3 -3,3 M 0,-5 0,5"
         id="path4039"
         inkscape:connector-curvature="0" />
    </marker>
    <pattern
       height="8"
       width="8"
       patternUnits="userSpaceOnUse"
       y="0"
       x="0"
       id="Hatch">
      <path
         linecap="square"
         stroke="#000000"
         stroke-width="0.25"
         d="M8 4 l-4,4"
         id="path4042" />
      <path
         linecap="square"
         stroke="#000000"
         stroke-width="0.25"
         d="M6 2 l-4,4"
         id="path4044" />
      <path
         linecap="square"
         stroke="#000000"
         stroke-width="0.25"
         d="M4 0 l-4,4"
         id="path4046" />
    </pattern>
    <symbol
       id="*Model_Space" />
    <symbol
       id="*Paper_Space" />
    <symbol
       id="*Paper_Space0" />
    <symbol
       id="Strip-0">
      <path
         style="fill:none;stroke:#000000;stroke-linecap:round"
         d="m 5.314961,1052.3622 a 5.314961,5.314961 0 1 0 -10.629922,0 5.314961,5.314961 0 1 0 10.629922,0 z"
         id="path4052"
         inkscape:connector-curvature="0" />
      <path
         style="fill:none;stroke:#000000;stroke-linecap:round"
         d="m 10.629921,1052.3622 a 10.629921,10.629921 0 1 0 -21.259842,0 10.629921,10.629921 0 1 0 21.259842,0 z"
         id="path4054"
         inkscape:connector-curvature="0" />
      <path
         style="fill:none;stroke:#000000;stroke-linecap:round"
         d="m -3.543307,1041.7323 0,-3.5433"
         id="path4056"
         inkscape:connector-curvature="0" />
      <path
         style="fill:none;stroke:#000000;stroke-linecap:round"
         d="m 3.543307,1041.7323 0,-3.5433"
         id="path4058"
         inkscape:connector-curvature="0" />
      <path
         style="fill:none;stroke:#000000;stroke-linecap:round"
         d="m 3.543307,1066.5354 0,-3.5433"
         id="path4060"
         inkscape:connector-curvature="0" />
      <path
         style="fill:none;stroke:#000000;stroke-linecap:round"
         d="m -3.543307,1066.5354 0,-3.5433"
         id="path4062"
         inkscape:connector-curvature="0" />
      <path
         style="fill:none;stroke:#000000;stroke-linecap:round"
         d="m 3.543307,1038.189 a 9.212598,9.212598 0 0 0 -7.086614,0"
         id="path4064"
         inkscape:connector-curvature="0" />
      <path
         style="fill:none;stroke:#000000;stroke-linecap:round"
         d="m -3.543307,1066.5354 a 9.212598,9.212598 0 0 0 7.086614,0"
         id="path4066"
         inkscape:connector-curvature="0" />
    </symbol>
    <symbol
       id="Strip-1">
      <path
         style="fill:none;stroke:#000000;stroke-linecap:round"
         d="m 5.314961,1052.3622 a 5.314961,5.314961 0 1 0 -10.629922,0 5.314961,5.314961 0 1 0 10.629922,0 z"
         id="path4069"
         inkscape:connector-curvature="0" />
      <path
         style="fill:none;stroke:#000000;stroke-linecap:round"
         d="m 10.629921,1052.3622 a 10.629921,10.629921 0 1 0 -21.259842,0 10.629921,10.629921 0 1 0 21.259842,0 z"
         id="path4071"
         inkscape:connector-curvature="0" />
      <path
         style="fill:none;stroke:#000000;stroke-linecap:round"
         d="m -3.543307,1041.7323 0,-3.5433"
         id="path4073"
         inkscape:connector-curvature="0" />
      <path
         style="fill:none;stroke:#000000;stroke-linecap:round"
         d="m 3.543307,1041.7323 0,-3.5433"
         id="path4075"
         inkscape:connector-curvature="0" />
      <path
         style="fill:none;stroke:#000000;stroke-linecap:round"
         d="m 3.543307,1066.5354 0,-3.5433"
         id="path4077"
         inkscape:connector-curvature="0" />
      <path
         style="fill:none;stroke:#000000;stroke-linecap:round"
         d="m -3.543307,1066.5354 0,-3.5433"
         id="path4079"
         inkscape:connector-curvature="0" />
      <path
         style="fill:none;stroke:#000000;stroke-linecap:round"
         d="m 3.543307,1038.189 a 9.212598,9.212598 0 0 0 -7.086614,0"
         id="path4081"
         inkscape:connector-curvature="0" />
      <path
         style="fill:none;stroke:#000000;stroke-linecap:round"
         d="m -3.543307,1066.5354 a 9.212598,9.212598 0 0 0 7.086614,0"
         id="path4083"
         inkscape:connector-curvature="0" />
    </symbol>
    <symbol
       id="Strip-2">
      <path
         style="fill:none;stroke:#000000;stroke-linecap:round"
         d="m 5.314961,1052.3622 a 5.314961,5.314961 0 1 0 -10.629922,0 5.314961,5.314961 0 1 0 10.629922,0 z"
         id="path4086"
         inkscape:connector-curvature="0" />
      <path
         style="fill:none;stroke:#000000;stroke-linecap:round"
         d="m 10.629921,1052.3622 a 10.629921,10.629921 0 1 0 -21.259842,0 10.629921,10.629921 0 1 0 21.259842,0 z"
         id="path4088"
         inkscape:connector-curvature="0" />
      <path
         style="fill:none;stroke:#000000;stroke-linecap:round"
         d="m -3.543307,1041.7323 0,-3.5433"
         id="path4090"
         inkscape:connector-curvature="0" />
      <path
         style="fill:none;stroke:#000000;stroke-linecap:round"
         d="m 3.543307,1041.7323 0,-3.5433"
         id="path4092"
         inkscape:connector-curvature="0" />
      <path
         style="fill:none;stroke:#000000;stroke-linecap:round"
         d="m 3.543307,1066.5354 0,-3.5433"
         id="path4094"
         inkscape:connector-curvature="0" />
      <path
         style="fill:none;stroke:#000000;stroke-linecap:round"
         d="m -3.543307,1066.5354 0,-3.5433"
         id="path4096"
         inkscape:connector-curvature="0" />
      <path
         style="fill:none;stroke:#000000;stroke-linecap:round"
         d="m 3.543307,1038.189 a 9.212598,9.212598 0 0 0 -7.086614,0"
         id="path4098"
         inkscape:connector-curvature="0" />
      <path
         style="fill:none;stroke:#000000;stroke-linecap:round"
         d="m -3.543307,1066.5354 a 9.212598,9.212598 0 0 0 7.086614,0"
         id="path4100"
         inkscape:connector-curvature="0" />
    </symbol>
    <linearGradient
       gradientUnits="userSpaceOnUse"
       y2="584.32355"
       x2="262.60953"
       y1="584.32355"
       x1="249.53185"
       id="linearGradient3942"
       xlink:href="#linearGradient3936"
       inkscape:collect="always" />
    <linearGradient
       gradientUnits="userSpaceOnUse"
       y2="572.81586"
       x2="265.00223"
       y1="572.81586"
       x1="251.99417"
       id="linearGradient3934"
       xlink:href="#linearGradient3928"
       inkscape:collect="always" />
    <linearGradient
       gradientUnits="userSpaceOnUse"
       y2="506.67041"
       x2="270.9729"
       y1="506.33041"
       x1="249.55035"
       id="linearGradient3926"
       xlink:href="#linearGradient3920"
       inkscape:collect="always" />
    <linearGradient
       gradientUnits="userSpaceOnUse"
       y2="585.89484"
       x2="249.21306"
       y1="585.89484"
       x1="328.16583"
       id="linearGradient3902"
       xlink:href="#linearGradient3896"
       inkscape:collect="always" />
    <linearGradient
       gradientUnits="userSpaceOnUse"
       y2="573.10742"
       x2="252.37775"
       y1="573.17657"
       x1="317.1066"
       id="linearGradient3894"
       xlink:href="#linearGradient3888"
       inkscape:collect="always" />
    <linearGradient
       gradientUnits="userSpaceOnUse"
       y2="479.55551"
       x2="250.21306"
       y1="479.16138"
       x1="327.16583"
       id="linearGradient3882"
       xlink:href="#linearGradient3876"
       inkscape:collect="always" />
    <symbol
       id="*Paper_Space0-0" />
    <symbol
       id="*Paper_Space-4" />
    <symbol
       id="*Model_Space-2" />
    <pattern
       id="Hatch-5"
       x="0"
       y="0"
       patternUnits="userSpaceOnUse"
       width="8"
       height="8">
      <path
         id="path2995"
         d="M8 4 l-4,4"
         stroke-width="0.25"
         stroke="#000000"
         linecap="square" />
      <path
         id="path2997"
         d="M6 2 l-4,4"
         stroke-width="0.25"
         stroke="#000000"
         linecap="square" />
      <path
         id="path2999"
         d="M4 0 l-4,4"
         stroke-width="0.25"
         stroke="#000000"
         linecap="square" />
    </pattern>
    <marker
       orient="auto"
       id="DistanceX-0"
       style="overflow:visible"
       refX="0"
       refY="0">
      <path
         id="path2992"
         d="M 3,-3 -3,3 M 0,-5 0,5"
         style="stroke:#000000;stroke-width:0.5"
         inkscape:connector-curvature="0" />
    </marker>
    <linearGradient
       id="linearGradient3876"
       inkscape:collect="always">
      <stop
         id="stop3878"
         offset="0"
         style="stop-color:#483737;stop-opacity:1;" />
      <stop
         id="stop3880"
         offset="1"
         style="stop-color:#483737;stop-opacity:0;" />
    </linearGradient>
    <linearGradient
       id="linearGradient3888"
       inkscape:collect="always">
      <stop
         id="stop3890"
         offset="0"
         style="stop-color:#483737;stop-opacity:1;" />
      <stop
         id="stop3892"
         offset="1"
         style="stop-color:#483737;stop-opacity:0;" />
    </linearGradient>
    <linearGradient
       id="linearGradient3896">
      <stop
         id="stop3898"
         offset="0"
         style="stop-color:#483737;stop-opacity:1;" />
      <stop
         id="stop3900"
         offset="1"
         style="stop-color:#483737;stop-opacity:0;" />
    </linearGradient>
    <linearGradient
       id="linearGradient3920"
       inkscape:collect="always">
      <stop
         id="stop3922"
         offset="0"
         style="stop-color:#483737;stop-opacity:1;" />
      <stop
         id="stop3924"
         offset="1"
         style="stop-color:#483737;stop-opacity:0;" />
    </linearGradient>
    <linearGradient
       id="linearGradient3928"
       inkscape:collect="always">
      <stop
         id="stop3930"
         offset="0"
         style="stop-color:#483737;stop-opacity:1;" />
      <stop
         id="stop3932"
         offset="1"
         style="stop-color:#483737;stop-opacity:0;" />
    </linearGradient>
    <linearGradient
       id="linearGradient3936"
       inkscape:collect="always">
      <stop
         id="stop3938"
         offset="0"
         style="stop-color:#483737;stop-opacity:1;" />
      <stop
         id="stop3940"
         offset="1"
         style="stop-color:#483737;stop-opacity:0;" />
    </linearGradient>
  </defs>
  <g
     inkscape:label="0"
     inkscape:groupmode="layer"
     id="g4102"
     transform="translate(-261.77979,-429.78364)">
    <use
       y="0"
       x="-95.669289"
       xlink:href="#Strip-0"
       id="use4116"
       transform="translate(405.78372,-454.8345)"
       width="744.09448"
       height="1052.3622" />
    <use
       y="-152.3622"
       x="-95.669289"
       xlink:href="#Strip-2"
       id="use4118"
       transform="translate(405.78372,-454.8345)"
       width="744.09448"
       height="1052.3622" />
    <use
       y="0"
       x="-127.55905"
       xlink:href="#Strip-0"
       id="use4120"
       transform="translate(405.78372,-454.8345)"
       width="744.09448"
       height="1052.3622"
       style="fill:#deaa87" />
    <use
       y="-152.3622"
       x="-127.55905"
       xlink:href="#Strip-2"
       id="use4122"
       transform="translate(405.78372,-454.8345)"
       width="744.09448"
       height="1052.3622" />
    <path
       style="fill:none;stroke:#000000;stroke-linecap:round"
       d="m 299.48451,521.3466 a 5.314961,5.314961 0 1 0 -10.62992,0 5.314961,5.314961 0 1 0 10.62992,0 z"
       id="path4130"
       inkscape:connector-curvature="0" />
    <path
       style="fill:none;stroke:#000000;stroke-linecap:round"
       d="m 325.57792,515.75294 a 5.314961,5.314961 0 0 0 0,10.62992"
       id="path4132"
       inkscape:connector-curvature="0" />
    <path
       style="fill:none;stroke:#000000;stroke-linecap:round"
       d="m 262.27979,526.66156 a 5.314961,5.314961 0 0 0 0,-10.62992"
       id="path4134"
       inkscape:connector-curvature="0" />
    <path
       style="fill:none;stroke:#000000;stroke-linecap:round"
       d="m 262.27979,516.03164 0,-83.26772"
       id="path4136"
       inkscape:connector-curvature="0" />
    <path
       style="fill:none;stroke:#000000;stroke-linecap:round"
       d="m 325.57792,515.75294 0,-83.26772"
       id="path4138"
       inkscape:connector-curvature="0" />
    <path
       style="fill:none;stroke:#000000;stroke-linecap:round"
       d="m 262.27979,526.66156 0,83.26772"
       id="path4140"
       inkscape:connector-curvature="0" />
    <path
       style="fill:none;stroke:#000000;stroke-linecap:round"
       d="m 325.85662,526.66156 0,83.26772"
       id="path4142"
       inkscape:connector-curvature="0" />
    <path
       style="fill:none;stroke:#000000;stroke-linecap:round"
       d="m 262.27979,432.76392 12.40157,0"
       id="path4144"
       inkscape:connector-curvature="0" />
    <path
       style="fill:none;stroke:#000000;stroke-linecap:round"
       d="m 281.76797,432.76392 24.80315,0"
       id="path4150"
       inkscape:connector-curvature="0" />
    <path
       style="fill:none;stroke:#000000;stroke-width:0.67829663;stroke-linecap:round"
       d="m 313.65774,432.76392 11.41159,0"
       id="path4154"
       inkscape:connector-curvature="0" />
    <path
       style="fill:none;stroke:#000000;stroke-linecap:round"
       d="m 262.27979,609.92928 12.40157,0"
       id="path4156"
       inkscape:connector-curvature="0" />
    <path
       style="fill:none;stroke:#000000;stroke-linecap:round"
       d="m 281.76797,609.92928 24.80315,0"
       id="path4162"
       inkscape:connector-curvature="0" />
    <path
       style="fill:none;stroke:#000000;stroke-width:0.68637085;stroke-linecap:round"
       d="m 313.65774,609.92928 11.68489,0"
       id="path4166"
       inkscape:connector-curvature="0" />
    <path
       style="fill:#deaa87;fill-opacity:1;fill-rule:evenodd;stroke:#ff0000;stroke-width:0.07764518;stroke-miterlimit:4;stroke-dasharray:none"
       d="m 309.88708,587.09094 c -5.20218,-0.0645 -9.79594,4.38527 -10.21063,9.49626 -0.55555,4.88874 2.89102,9.7017 7.59331,11.02354 4.4473,1.29312 9.61383,-0.73365 11.86109,-4.80971 2.29825,-3.67494 1.82784,-8.70259 -1.02529,-11.94474 -1.93331,-2.49796 -5.08738,-3.84912 -8.21848,-3.76535 z m 0.0554,5.08684 c 3.42699,-0.17615 6.41247,3.51804 5.32702,6.78656 -0.80287,2.86164 -4.17219,4.75287 -6.95284,3.57188 -3.33896,-1.02589 -4.77026,-5.7875 -2.28477,-8.35696 0.95368,-1.17374 2.35192,-2.00707 3.91059,-2.00148 z"
       id="path4192"
       inkscape:connector-curvature="0" />
    <path
       style="fill:#deaa87;fill-opacity:1;fill-rule:evenodd;stroke:#ff0000;stroke-width:0.07764518;stroke-miterlimit:4;stroke-dasharray:none"
       d="m 309.72697,582.84779 c -1.08649,0.0853 -3.05835,0.0311 -2.99915,1.59503 0.16555,0.85584 -0.49939,2.32446 0.51241,2.70177 1.98172,-0.43267 4.04899,-0.2697 6.01613,-0.0507 0.8619,-0.63667 0.0892,-2.11731 0.28052,-3.08742 -0.0542,-1.15476 -1.63478,-0.91463 -2.47896,-1.13261 -0.44236,-0.04 -0.8873,-0.0364 -1.33095,-0.026 z"
       id="path4194"
       inkscape:connector-curvature="0" />
    <path
       style="fill:#deaa87;fill-opacity:1;fill-rule:evenodd;stroke:#ff0000;stroke-width:0.07764518;stroke-miterlimit:4;stroke-dasharray:none"
       d="m 313.01555,607.84476 c -1.99829,0.64237 -4.15461,0.0141 -6.15224,0.33256 -0.16415,1.05256 -0.39657,2.38109 0.1478,3.38096 1.34281,0.90811 3.17403,0.68435 4.71734,0.54194 0.92705,-0.14761 2.29601,-0.40324 1.89679,-1.67509 -0.19997,-0.74292 0.51511,-2.49984 -0.60969,-2.58037 z"
       id="path4196"
       inkscape:connector-curvature="0" />
    <path
       style="fill:#deaa87;fill-opacity:1;fill-rule:evenodd;stroke:#ff0000;stroke-width:0.07764518;stroke-miterlimit:4;stroke-dasharray:none"
       d="m 281.05959,607.83245 c -1.9473,0.62075 -4.08105,0.31553 -6.02908,0.0493 -0.56064,0.96757 -0.0787,2.25546 -0.24018,3.34402 0.40597,0.88401 1.74127,0.73064 2.57422,1.00382 1.44315,0.008 3.058,0.008 4.28625,-0.8006 0.0206,-1.1394 0.21052,-2.38225 -0.1047,-3.4795 -0.16414,-0.017 -0.31395,-0.1927 -0.48651,-0.117 z"
       id="path4198"
       inkscape:connector-curvature="0" />
    <path
       style="fill:#deaa87;fill-opacity:1;fill-rule:evenodd;stroke:#ff0000;stroke-width:0.07764518;stroke-miterlimit:4;stroke-dasharray:none"
       d="m 277.45076,582.91554 c -1.01844,0.004 -2.74552,0.0926 -2.64811,1.52112 0.16637,0.85741 -0.50039,2.32904 0.5124,2.70793 1.9741,-0.42553 4.0329,-0.27726 5.99167,-0.05 0.80301,-0.44361 0.23492,-1.70676 0.38718,-2.49778 0.20781,-1.32138 -1.26031,-1.71685 -2.28476,-1.66277 -0.65191,-0.0399 -1.30596,-0.0565 -1.95838,-0.0185 z"
       id="path4200"
       inkscape:connector-curvature="0" />
    <path
       style="fill:#deaa87;fill-opacity:1;fill-rule:evenodd;stroke:#ff0000;stroke-width:0.07764518;stroke-miterlimit:4;stroke-dasharray:none"
       d="m 277.18595,587.12173 c -6.07192,0.3701 -10.78005,6.97156 -9.15755,12.82796 1.17057,5.06962 6.47307,8.84872 11.66212,7.92933 5.55517,-0.63915 9.84628,-6.3199 8.92104,-11.83777 -0.57828,-4.33247 -4.2099,-7.96369 -8.43878,-8.82715 -0.99123,-0.0911 -1.99191,-0.12513 -2.98683,-0.0924 z m 0.83754,5.07452 c 3.46281,-0.25372 6.47007,3.47681 5.33934,6.79888 -0.80631,2.95842 -4.32215,4.66566 -7.11911,3.54109 -2.81061,-1.19315 -4.38335,-4.89703 -2.67891,-7.59332 0.91187,-1.59985 2.61539,-2.7422 4.45868,-2.74665 z"
       id="path4202"
       inkscape:connector-curvature="0" />
    <path
       style="fill:#deaa87;fill-opacity:1;fill-rule:evenodd;stroke:#ff0000;stroke-width:0.07764518;stroke-miterlimit:4;stroke-dasharray:none"
       d="m 277.80795,430.47653 c -0.99065,0.0853 -2.09035,0.12272 -2.94988,0.64047 -0.0605,1.15391 -0.21903,2.42416 0.0862,3.54109 1.05682,0.21598 2.20019,-0.29948 3.31322,-0.16012 1.08889,-0.0853 2.17817,0.27521 3.23317,0.20322 0.41636,-0.96626 0.22418,-2.1942 0.0924,-3.23932 -0.71163,-1.1387 -2.6301,-0.92315 -3.7751,-0.98534 z"
       id="path4204"
       inkscape:connector-curvature="0" />
    <path
       style="fill:#deaa87;fill-opacity:1;fill-rule:evenodd;stroke:#ff0000;stroke-width:0.07764518;stroke-miterlimit:4;stroke-dasharray:none"
       d="m 277.61704,434.71351 c -5.30913,0.19281 -9.85201,4.98117 -9.8904,10.25991 -0.17191,5.74888 5.08678,11.05557 10.86959,10.65404 4.93046,-0.0895 9.32538,-4.1176 9.99426,-8.98283 0.99337,-5.55509 -3.41469,-11.27089 -9.00276,-11.86338 -0.65309,-0.0824 -1.31356,-0.0976 -1.97069,-0.0677 z m 0.44341,5.093 c 3.17988,-0.165 5.92539,2.93178 5.4625,6.06603 -0.34459,3.36077 -4.4834,5.7686 -7.51941,4.13845 -2.59592,-1.19368 -4.04379,-4.58395 -2.55574,-7.16222 0.88665,-1.72405 2.63241,-3.02995 4.61265,-3.04226 z"
       id="path4206"
       inkscape:connector-curvature="0" />
    <path
       style="fill:#deaa87;fill-opacity:1;fill-rule:evenodd;stroke:#ff0000;stroke-width:0.07764518;stroke-miterlimit:4;stroke-dasharray:none"
       d="m 281.09038,455.51045 c -1.98055,0.56912 -4.10211,0.26283 -6.07835,0.0677 -0.52259,0.97575 -0.0688,2.23205 -0.2217,3.31322 0.3919,0.88601 1.70517,0.71059 2.52495,0.97303 1.45169,0.0366 3.03931,-0.0339 4.3232,-0.72053 0.0464,-1.14569 0.21723,-2.4035 -0.0924,-3.5103 -0.15484,-0.0105 -0.29426,-0.18085 -0.45572,-0.12316 z"
       id="path4208"
       inkscape:connector-curvature="0" />
    <path
       style="fill:#deaa87;fill-opacity:1;fill-rule:evenodd;stroke:#ff0000;stroke-width:0.07764518;stroke-miterlimit:4;stroke-dasharray:none"
       d="m 306.93721,455.58435 c -0.52468,0.97109 -0.0673,2.22875 -0.2217,3.30706 0.39189,0.88601 1.70517,0.71059 2.52494,0.97303 1.4517,0.0366 3.03932,-0.0339 4.3232,-0.72053 -0.0183,-1.10605 0.34244,-2.44685 -0.21554,-3.45487 -0.7151,-0.39534 -1.65636,0.24831 -2.48184,0.0862 -1.32925,0.1601 -2.64769,-0.12661 -3.92906,-0.19091 z"
       id="path4210"
       inkscape:connector-curvature="0" />
    <path
       style="fill:#deaa87;fill-opacity:1;fill-rule:evenodd;stroke:#ff0000;stroke-width:0.07764518;stroke-miterlimit:4;stroke-dasharray:none"
       d="m 309.73928,434.71351 c -5.97577,0.0424 -11.00581,6.0482 -9.97661,11.94731 0.63204,5.34933 5.93782,9.59447 11.30683,8.95432 5.34322,-0.4742 9.87766,-5.47171 9.50858,-10.88806 -0.18962,-5.56747 -5.21975,-10.36659 -10.8388,-10.01357 z m 0.26481,5.10532 c 3.6312,-0.24531 6.56478,3.95614 5.08685,7.29155 -1.04542,2.3741 -3.7993,4.05767 -6.38011,3.20237 -2.38608,-0.67269 -4.29998,-3.07261 -3.849,-5.62878 0.0518,-2.63717 2.57112,-4.79323 5.14226,-4.86514 z"
       id="path4212"
       inkscape:connector-curvature="0" />
    <path
       style="fill:#deaa87;fill-opacity:1;fill-rule:evenodd;stroke:#ff0000;stroke-width:0.07764518;stroke-miterlimit:4;stroke-dasharray:none"
       d="m 309.73312,430.47653 c -0.99065,0.0853 -2.09035,0.12272 -2.94987,0.64047 -0.0594,1.14556 -0.22011,2.40791 0.0862,3.51645 1.18742,0.2252 2.446,-0.30684 3.68888,-0.14164 0.97263,-0.0465 1.93772,0.3578 2.88213,0.15396 0.35783,-0.98497 0.23931,-2.20222 0.0431,-3.23932 -0.78604,-1.07428 -2.58304,-0.87016 -3.75047,-0.92992 z"
       id="path4214"
       inkscape:connector-curvature="0" />
    <path
       style="fill:#aa4400;fill-opacity:1;fill-rule:evenodd;stroke:#262c36;stroke-width:0.1393488;stroke-linejoin:round;stroke-miterlimit:4;stroke-opacity:1;stroke-dasharray:none"
       d="m 52.118968,2.9973567 c -0.662704,1.5065654 0.543709,2.7551642 1.863791,3.2398598 4.701258,2.8482635 6.428386,9.4573475 3.779836,14.2397065 -1.180415,2.266333 -3.25516,3.823573 -5.391057,5.077522 -0.884578,1.207623 0.14793,3.197953 -0.628179,4.213441 -2.273481,0.694083 -4.855392,0.70071 -7.10568,-0.09394 C 44.334378,28.082865 45.52556,25.514027 43.373624,24.954078 39.433349,22.804174 36.96364,18.106781 37.835715,13.605285 38.240702,9.9519107 40.85,7.0730061 43.975772,5.4272515 45.019866,4.8000485 44.916594,2.5365209 43.305156,3.1018683 35.704058,3.1786665 28.036404,2.9482147 20.476932,3.2171941 c -0.941431,1.3308875 0.563094,2.6881707 1.751717,3.1419526 5.94961,3.5154522 6.624408,13.0660933 1.053825,17.2531243 -0.983928,1.171177 -3.37204,1.286445 -2.959071,3.238731 -0.257931,0.896385 0.287061,2.410467 -0.559486,2.97971 -2.139499,0.669214 -4.809724,0.694158 -6.819383,-0.209023 -0.44747,-1.588534 0.827321,-4.102135 -1.338825,-4.674671 C 6.0360224,22.277542 3.9176652,14.423531 7.579605,9.381274 8.7980816,7.5555161 10.599225,6.2708235 12.474232,5.2356469 13.243666,4.4465102 12.980339,2.5724893 11.533628,3.1018683 7.9807671,3.2160062 4.3287316,2.8722926 0.83860638,3.2760543 0.5738645,11.61278 0.8012823,20.033451 0.72538547,28.402387 c 0,19.116914 0,38.233829 0,57.350744 0.58081473,0.914223 2.14811943,0.499688 2.88277853,1.463163 2.4131119,1.717805 3.0804096,5.398331 1.0538253,7.681603 -0.9135239,1.403008 -2.6548535,1.685961 -3.91047593,2.534406 -0.0609616,27.337297 -0.008704,54.683477 -0.0261279,82.024197 1.02292473,1.12973 3.20815683,0.18804 4.67689443,0.49643 2.3605267,-0.19113 4.9013221,0.38231 7.1677541,-0.35708 0.9743,-1.16999 -0.909837,-2.19771 -1.724441,-2.73473 -4.7486529,-2.74517 -6.6190024,-9.48718 -3.7711274,-14.27454 1.190096,-2.43196 3.6228814,-3.83424 5.6910344,-5.32162 0.605476,-1.24589 -0.799366,-3.80356 0.919325,-4.11926 2.128198,-0.41417 4.537683,-0.53903 6.549394,0.41805 0.299148,1.58562 -0.875672,4.11405 1.245309,4.70433 5.448959,2.71436 7.419818,10.47625 3.814794,15.44899 -1.082908,1.89636 -2.994519,2.98877 -4.711731,4.19788 -0.721868,0.81147 -0.411613,2.55093 0.984151,2.03798 7.601098,-0.0768 15.268753,0.15365 22.828225,-0.11533 0.844022,-1.12993 -0.25913,-2.50522 -1.455601,-2.79358 -3.222327,-2.00654 -5.615663,-5.66744 -5.127047,-9.58022 -0.313583,-4.20075 2.738951,-8.14 6.537953,-9.65863 0.851583,-1.18331 -0.258249,-3.2813 0.543402,-4.3516 2.242409,-0.9421 4.863636,-0.70075 7.112073,-0.0292 0.303304,1.4161 -0.641851,3.51964 0.541125,4.4961 3.924146,1.55584 6.772313,5.85128 6.284261,10.11809 0.323548,4.14449 -2.649684,7.98456 -6.294118,9.64121 -0.911397,0.75599 -0.831784,3.10358 0.801255,2.55182 3.458983,-0.11865 7.020226,0.23478 10.416324,-0.17418 0.264743,-8.33673 0.03732,-16.7574 0.113221,-25.12633 0,-19.18659 0,-38.37318 0,-57.559772 -0.906631,-1.078203 -2.810908,-1.007261 -3.788546,-2.220872 -2.618484,-2.256163 -2.021781,-6.773692 0.962321,-8.412724 0.84697,-0.925003 3.037762,-0.284074 2.547527,-2.099401 0,-27.106248 0,-54.212494 0,-81.3187402 C 62.566194,2.1898629 60.380959,3.1315554 58.912223,2.8231706 56.664022,2.9347325 54.302581,2.5971183 52.118968,2.9973567 z M 32.235635,86.214724 c 4.001839,-0.342032 7.122349,4.771055 4.772697,8.09965 -1.591216,2.66198 -5.554527,3.649336 -7.942882,1.471871 -2.974588,-2.168097 -2.593811,-7.280903 0.722872,-8.927033 0.73065,-0.398877 1.593096,-0.624411 2.447313,-0.644488 z"
       id="path6828"
       inkscape:connector-curvature="0"
       transform="translate(261.77979,429.78362)" />
  </g>
</svg>
