<?xml version="1.0" encoding="UTF-8" standalone="no"?>
<svg
   xmlns:dc="http://purl.org/dc/elements/1.1/"
   xmlns:cc="http://creativecommons.org/ns#"
   xmlns:rdf="http://www.w3.org/1999/02/22-rdf-syntax-ns#"
   xmlns:svg="http://www.w3.org/2000/svg"
   xmlns="http://www.w3.org/2000/svg"
   xmlns:xlink="http://www.w3.org/1999/xlink"
   xmlns:sodipodi="http://sodipodi.sourceforge.net/DTD/sodipodi-0.dtd"
   xmlns:inkscape="http://www.inkscape.org/namespaces/inkscape"
   width="64.843468"
   height="8.9884377"
   id="svg4032"
   version="1.1"
   inkscape:version="0.48.3.1 r9886"
   sodipodi:docname="Strip.svg">
  <metadata
     id="metadata4170">
    <rdf:RDF>
      <cc:Work
         rdf:about="">
        <dc:format>image/svg+xml</dc:format>
        <dc:type
           rdf:resource="http://purl.org/dc/dcmitype/StillImage" />
        <dc:title></dc:title>
      </cc:Work>
    </rdf:RDF>
  </metadata>
  <sodipodi:namedview
     pagecolor="#ffffff"
     bordercolor="#666666"
     borderopacity="1"
     objecttolerance="10"
     gridtolerance="10"
     guidetolerance="10"
     inkscape:pageopacity="0.5"
     inkscape:pageshadow="2"
     inkscape:window-width="861"
     inkscape:window-height="773"
     id="namedview4168"
     showgrid="false"
     inkscape:zoom="5.0743656"
     inkscape:cx="53.736663"
     inkscape:cy="-19.758271"
     inkscape:window-x="413"
     inkscape:window-y="0"
     inkscape:window-maximized="0"
     inkscape:current-layer="g4102"
     fit-margin-top="0"
     fit-margin-left="0"
     fit-margin-right="0"
     fit-margin-bottom="0" />
  <desc
     id="desc4034">/media/80f55706-5116-4aa9-b834-bdc13726b42c/phil/qcad-2.2.2.0-1-prof.linux.x86/library/Electronics/connectors/Strip-board-5.dxf - scale = 1.000000</desc>
  <defs
     id="defs4036">
    <marker
       refY="0"
       refX="0"
       style="overflow:visible"
       id="DistanceX"
       orient="auto">
      <path
         style="stroke:#000000;stroke-width:0.5"
         d="M 3,-3 -3,3 M 0,-5 0,5"
         id="path4039"
         inkscape:connector-curvature="0" />
    </marker>
    <pattern
       height="8"
       width="8"
       patternUnits="userSpaceOnUse"
       y="0"
       x="0"
       id="Hatch">
      <path
         linecap="square"
         stroke="#000000"
         stroke-width="0.25"
         d="M8 4 l-4,4"
         id="path4042" />
      <path
         linecap="square"
         stroke="#000000"
         stroke-width="0.25"
         d="M6 2 l-4,4"
         id="path4044" />
      <path
         linecap="square"
         stroke="#000000"
         stroke-width="0.25"
         d="M4 0 l-4,4"
         id="path4046" />
    </pattern>
    <symbol
       id="*Model_Space" />
    <symbol
       id="*Paper_Space" />
    <symbol
       id="*Paper_Space0" />
    <symbol
       id="Strip-0">
      <path
         style="fill:none;stroke:#000000;stroke-linecap:round"
         d="m 5.314961,1052.3622 a 5.314961,5.314961 0 1 0 -10.629922,0 5.314961,5.314961 0 1 0 10.629922,0 z"
         id="path4052"
         inkscape:connector-curvature="0" />
      <path
         style="fill:none;stroke:#000000;stroke-linecap:round"
         d="m 10.629921,1052.3622 a 10.629921,10.629921 0 1 0 -21.259842,0 10.629921,10.629921 0 1 0 21.259842,0 z"
         id="path4054"
         inkscape:connector-curvature="0" />
      <path
         style="fill:none;stroke:#000000;stroke-linecap:round"
         d="m -3.543307,1041.7323 0,-3.5433"
         id="path4056"
         inkscape:connector-curvature="0" />
      <path
         style="fill:none;stroke:#000000;stroke-linecap:round"
         d="m 3.543307,1041.7323 0,-3.5433"
         id="path4058"
         inkscape:connector-curvature="0" />
      <path
         style="fill:none;stroke:#000000;stroke-linecap:round"
         d="m 3.543307,1066.5354 0,-3.5433"
         id="path4060"
         inkscape:connector-curvature="0" />
      <path
         style="fill:none;stroke:#000000;stroke-linecap:round"
         d="m -3.543307,1066.5354 0,-3.5433"
         id="path4062"
         inkscape:connector-curvature="0" />
      <path
         style="fill:none;stroke:#000000;stroke-linecap:round"
         d="m 3.543307,1038.189 a 9.212598,9.212598 0 0 0 -7.086614,0"
         id="path4064"
         inkscape:connector-curvature="0" />
      <path
         style="fill:none;stroke:#000000;stroke-linecap:round"
         d="m -3.543307,1066.5354 a 9.212598,9.212598 0 0 0 7.086614,0"
         id="path4066"
         inkscape:connector-curvature="0" />
    </symbol>
    <symbol
       id="Strip-1">
      <path
         style="fill:none;stroke:#000000;stroke-linecap:round"
         d="m 5.314961,1052.3622 a 5.314961,5.314961 0 1 0 -10.629922,0 5.314961,5.314961 0 1 0 10.629922,0 z"
         id="path4069"
         inkscape:connector-curvature="0" />
      <path
         style="fill:none;stroke:#000000;stroke-linecap:round"
         d="m 10.629921,1052.3622 a 10.629921,10.629921 0 1 0 -21.259842,0 10.629921,10.629921 0 1 0 21.259842,0 z"
         id="path4071"
         inkscape:connector-curvature="0" />
      <path
         style="fill:none;stroke:#000000;stroke-linecap:round"
         d="m -3.543307,1041.7323 0,-3.5433"
         id="path4073"
         inkscape:connector-curvature="0" />
      <path
         style="fill:none;stroke:#000000;stroke-linecap:round"
         d="m 3.543307,1041.7323 0,-3.5433"
         id="path4075"
         inkscape:connector-curvature="0" />
      <path
         style="fill:none;stroke:#000000;stroke-linecap:round"
         d="m 3.543307,1066.5354 0,-3.5433"
         id="path4077"
         inkscape:connector-curvature="0" />
      <path
         style="fill:none;stroke:#000000;stroke-linecap:round"
         d="m -3.543307,1066.5354 0,-3.5433"
         id="path4079"
         inkscape:connector-curvature="0" />
      <path
         style="fill:none;stroke:#000000;stroke-linecap:round"
         d="m 3.543307,1038.189 a 9.212598,9.212598 0 0 0 -7.086614,0"
         id="path4081"
         inkscape:connector-curvature="0" />
      <path
         style="fill:none;stroke:#000000;stroke-linecap:round"
         d="m -3.543307,1066.5354 a 9.212598,9.212598 0 0 0 7.086614,0"
         id="path4083"
         inkscape:connector-curvature="0" />
    </symbol>
    <symbol
       id="Strip-2">
      <path
         style="fill:none;stroke:#000000;stroke-linecap:round"
         d="m 5.314961,1052.3622 a 5.314961,5.314961 0 1 0 -10.629922,0 5.314961,5.314961 0 1 0 10.629922,0 z"
         id="path4086"
         inkscape:connector-curvature="0" />
      <path
         style="fill:none;stroke:#000000;stroke-linecap:round"
         d="m 10.629921,1052.3622 a 10.629921,10.629921 0 1 0 -21.259842,0 10.629921,10.629921 0 1 0 21.259842,0 z"
         id="path4088"
         inkscape:connector-curvature="0" />
      <path
         style="fill:none;stroke:#000000;stroke-linecap:round"
         d="m -3.543307,1041.7323 0,-3.5433"
         id="path4090"
         inkscape:connector-curvature="0" />
      <path
         style="fill:none;stroke:#000000;stroke-linecap:round"
         d="m 3.543307,1041.7323 0,-3.5433"
         id="path4092"
         inkscape:connector-curvature="0" />
      <path
         style="fill:none;stroke:#000000;stroke-linecap:round"
         d="m 3.543307,1066.5354 0,-3.5433"
         id="path4094"
         inkscape:connector-curvature="0" />
      <path
         style="fill:none;stroke:#000000;stroke-linecap:round"
         d="m -3.543307,1066.5354 0,-3.5433"
         id="path4096"
         inkscape:connector-curvature="0" />
      <path
         style="fill:none;stroke:#000000;stroke-linecap:round"
         d="m 3.543307,1038.189 a 9.212598,9.212598 0 0 0 -7.086614,0"
         id="path4098"
         inkscape:connector-curvature="0" />
      <path
         style="fill:none;stroke:#000000;stroke-linecap:round"
         d="m -3.543307,1066.5354 a 9.212598,9.212598 0 0 0 7.086614,0"
         id="path4100"
         inkscape:connector-curvature="0" />
    </symbol>
    <linearGradient
       gradientUnits="userSpaceOnUse"
       y2="584.32355"
       x2="262.60953"
       y1="584.32355"
       x1="249.53185"
       id="linearGradient3942"
       xlink:href="#linearGradient3936"
       inkscape:collect="always" />
    <linearGradient
       gradientUnits="userSpaceOnUse"
       y2="572.81586"
       x2="265.00223"
       y1="572.81586"
       x1="251.99417"
       id="linearGradient3934"
       xlink:href="#linearGradient3928"
       inkscape:collect="always" />
    <linearGradient
       gradientUnits="userSpaceOnUse"
       y2="506.67041"
       x2="270.9729"
       y1="506.33041"
       x1="249.55035"
       id="linearGradient3926"
       xlink:href="#linearGradient3920"
       inkscape:collect="always" />
    <linearGradient
       gradientUnits="userSpaceOnUse"
       y2="585.89484"
       x2="249.21306"
       y1="585.89484"
       x1="328.16583"
       id="linearGradient3902"
       xlink:href="#linearGradient3896"
       inkscape:collect="always" />
    <linearGradient
       gradientUnits="userSpaceOnUse"
       y2="573.10742"
       x2="252.37775"
       y1="573.17657"
       x1="317.1066"
       id="linearGradient3894"
       xlink:href="#linearGradient3888"
       inkscape:collect="always" />
    <linearGradient
       gradientUnits="userSpaceOnUse"
       y2="479.55551"
       x2="250.21306"
       y1="479.16138"
       x1="327.16583"
       id="linearGradient3882"
       xlink:href="#linearGradient3876"
       inkscape:collect="always" />
    <symbol
       id="*Paper_Space0-0" />
    <symbol
       id="*Paper_Space-4" />
    <symbol
       id="*Model_Space-2" />
    <pattern
       id="Hatch-5"
       x="0"
       y="0"
       patternUnits="userSpaceOnUse"
       width="8"
       height="8">
      <path
         id="path2995"
         d="M8 4 l-4,4"
         stroke-width="0.25"
         stroke="#000000"
         linecap="square" />
      <path
         id="path2997"
         d="M6 2 l-4,4"
         stroke-width="0.25"
         stroke="#000000"
         linecap="square" />
      <path
         id="path2999"
         d="M4 0 l-4,4"
         stroke-width="0.25"
         stroke="#000000"
         linecap="square" />
    </pattern>
    <marker
       orient="auto"
       id="DistanceX-0"
       style="overflow:visible"
       refX="0"
       refY="0">
      <path
         id="path2992"
         d="M 3,-3 -3,3 M 0,-5 0,5"
         style="stroke:#000000;stroke-width:0.5"
         inkscape:connector-curvature="0" />
    </marker>
    <linearGradient
       id="linearGradient3876"
       inkscape:collect="always">
      <stop
         id="stop3878"
         offset="0"
         style="stop-color:#483737;stop-opacity:1;" />
      <stop
         id="stop3880"
         offset="1"
         style="stop-color:#483737;stop-opacity:0;" />
    </linearGradient>
    <linearGradient
       id="linearGradient3888"
       inkscape:collect="always">
      <stop
         id="stop3890"
         offset="0"
         style="stop-color:#483737;stop-opacity:1;" />
      <stop
         id="stop3892"
         offset="1"
         style="stop-color:#483737;stop-opacity:0;" />
    </linearGradient>
    <linearGradient
       id="linearGradient3896">
      <stop
         id="stop3898"
         offset="0"
         style="stop-color:#483737;stop-opacity:1;" />
      <stop
         id="stop3900"
         offset="1"
         style="stop-color:#483737;stop-opacity:0;" />
    </linearGradient>
    <linearGradient
       id="linearGradient3920"
       inkscape:collect="always">
      <stop
         id="stop3922"
         offset="0"
         style="stop-color:#483737;stop-opacity:1;" />
      <stop
         id="stop3924"
         offset="1"
         style="stop-color:#483737;stop-opacity:0;" />
    </linearGradient>
    <linearGradient
       id="linearGradient3928"
       inkscape:collect="always">
      <stop
         id="stop3930"
         offset="0"
         style="stop-color:#483737;stop-opacity:1;" />
      <stop
         id="stop3932"
         offset="1"
         style="stop-color:#483737;stop-opacity:0;" />
    </linearGradient>
    <linearGradient
       id="linearGradient3936"
       inkscape:collect="always">
      <stop
         id="stop3938"
         offset="0"
         style="stop-color:#483737;stop-opacity:1;" />
      <stop
         id="stop3940"
         offset="1"
         style="stop-color:#483737;stop-opacity:0;" />
    </linearGradient>
    <symbol
       id="*Paper_Space0-07" />
    <symbol
       id="*Paper_Space-8" />
    <symbol
       id="*Model_Space-4" />
    <pattern
       id="Hatch-1"
       x="0"
       y="0"
       patternUnits="userSpaceOnUse"
       width="8"
       height="8">
      <path
         id="path3125"
         d="M8 4 l-4,4"
         stroke-width="0.25"
         stroke="#000000"
         linecap="square" />
      <path
         id="path3127"
         d="M6 2 l-4,4"
         stroke-width="0.25"
         stroke="#000000"
         linecap="square" />
      <path
         id="path3129"
         d="M4 0 l-4,4"
         stroke-width="0.25"
         stroke="#000000"
         linecap="square" />
    </pattern>
    <marker
       orient="auto"
       id="DistanceX-9"
       style="overflow:visible"
       refX="0"
       refY="0">
      <path
         id="path3122"
         d="M 3,-3 -3,3 M 0,-5 0,5"
         style="stroke:#000000;stroke-width:0.5"
         inkscape:connector-curvature="0" />
    </marker>
    <inkscape:path-effect
       effect="spiro"
       id="path-effect14656"
       is_visible="true" />
    <inkscape:path-effect
       effect="spiro"
       id="path-effect14660"
       is_visible="true" />
  </defs>
  <g
     inkscape:label="0"
     inkscape:groupmode="layer"
     id="g4102"
     transform="translate(-461.75177,-644.84309)">
    <g
       id="g14734"
       transform="matrix(0.24614227,0,0,0.12377139,665.57295,605.67678)">
      <g
         transform="matrix(0.36958282,0,0,0.30912985,-1219.2967,16.447593)"
         inkscape:label="0"
         id="g14614">
        <path
           inkscape:connector-curvature="0"
           style="fill:none;stroke:#000000;stroke-linecap:round"
           d="m 1060.8037,1050.2213 c 177.1653,-177.16535 354.3307,0 354.3307,0"
           id="path14616" />
        <path
           inkscape:connector-curvature="0"
           style="fill:none;stroke:#000000;stroke-linecap:round"
           d="m 1414.5872,1049.6861 c 177.1654,-177.16537 354.3308,0 354.3308,0"
           id="path14618" />
        <path
           inkscape:connector-curvature="0"
           style="fill:none;stroke:#000000;stroke-linecap:round"
           d="m 1060.8037,1125.3692 c 177.1653,177.1654 354.3307,0 354.3307,0"
           id="path14620" />
        <path
           inkscape:connector-curvature="0"
           style="fill:none;stroke:#000000;stroke-linecap:round"
           d="m 1414.5872,1125.9045 c 177.1654,177.1653 354.3308,0 354.3308,0"
           id="path14622" />
        <path
           inkscape:connector-curvature="0"
           style="fill:none;stroke:#000000;stroke-linecap:round"
           d="m 1414.5872,1049.6861 c -45.1927,28.173 -82.0431,50.4958 -111.1461,62.821 -29.1029,12.3253 -50.4584,14.6528 -77.1305,13.8504 -26.672,-0.8024 -58.6606,-4.7348 -110.2562,-38.1861"
           id="path14624" />
        <path
           inkscape:connector-curvature="0"
           style="fill:none;stroke:#000000;stroke-linecap:round"
           d="m 1060.8037,1122.1579 c 45.1927,-28.173 82.0431,-50.4959 106.8463,-63.9014 24.8031,-13.4055 37.559,-17.8937 60.9449,-18.0118 23.3858,-0.1181 57.4015,4.1339 123.2075,47.4715"
           id="path14626" />
        <path
           sodipodi:nodetypes="cssc"
           inkscape:connector-curvature="0"
           style="fill:none;stroke:#000000;stroke-linecap:round"
           d="m 1768.3708,1049.1509 c -45.1928,28.173 -82.0431,50.4958 -111.1461,62.821 -29.1029,12.3252 -50.4584,14.6528 -77.1305,13.8504 -26.672,-0.8024 -56.2887,-4.7349 -107.8843,-38.1861"
           id="path14628" />
        <path
           sodipodi:nodetypes="cssc"
           inkscape:connector-curvature="0"
           style="fill:none;stroke:#000000;stroke-linecap:round"
           d="m 1414.5872,1127.9478 c 45.1928,-28.173 82.0432,-56.821 106.8464,-70.2265 24.8031,-13.4055 37.559,-17.8937 60.9449,-18.0118 23.3858,-0.1181 57.4015,4.1339 123.2075,47.4715"
           id="path14630" />
      </g>
      <path
         inkscape:connector-curvature="0"
         inkscape:original-d="m -565.77282,340.49714 c 0.29221,23.95207 0.29221,23.95207 0.29221,23.95207"
         inkscape:path-effect="#path-effect14656"
         id="path14654"
         d="m -565.77282,340.49714 0.29221,23.95207"
         style="fill:none;stroke:#000000;stroke-width:0.33800751px;stroke-linecap:butt;stroke-linejoin:miter;stroke-opacity:1" />
      <path
         inkscape:connector-curvature="0"
         inkscape:original-d="m -827.88071,341.23037 c 0.29221,22.48561 0.29221,22.48561 0.29221,22.48561"
         inkscape:path-effect="#path-effect14660"
         id="path14658"
         d="m -827.88071,341.23037 0.29221,22.48561"
         style="fill:#ffffff;stroke:#000000;stroke-width:0.33800751px;stroke-linecap:butt;stroke-linejoin:miter;stroke-opacity:1" />
      <path
         inkscape:connector-curvature="0"
         id="path14662"
         d="m -765.70702,317.03881 c -13.50964,-0.0273 -26.78325,3.60965 -38.41233,9.18951 -8.19326,3.88601 -15.39265,9.05818 -22.31141,14.31949 -0.6811,0.43621 -1.59274,0.73668 -1.30591,1.64219 0.0359,6.65386 0.25572,13.31141 0.32873,19.96515 -0.10281,1.07099 1.2753,0.56905 1.78976,0.11456 14.45985,-7.12822 28.40186,-15.01849 43.48376,-21.20246 4.72076,-1.82505 9.82887,-3.23244 15.1216,-2.93397 5.25738,-0.0976 10.62009,-0.0609 15.65124,1.33004 11.41742,2.64142 21.62243,7.8044 31.62206,12.93839 6.69852,-3.04479 13.22826,-6.53081 19.78773,-9.84647 0.78297,-0.64841 2.6026,-0.96256 2.73032,-1.97681 -12.79515,-9.55837 -28.07243,-17.10471 -44.67617,-21.01446 -7.74734,-1.85115 -15.75049,-2.73918 -23.80938,-2.52516 z"
         style="fill:#ffffff;fill-opacity:1;fill-rule:evenodd;stroke:#fa0000;stroke-width:0.53448093;stroke-linejoin:round;stroke-miterlimit:4;stroke-opacity:1;stroke-dasharray:none" />
      <path
         inkscape:connector-curvature="0"
         id="path14666"
         d="m -633.45707,316.76385 c -20.53965,0.0814 -40.0614,7.89546 -55.27608,19.00366 -3.89717,2.97288 -7.75405,5.96197 -12.42353,8.10671 -12.78049,6.40285 -25.42193,13.2165 -39.37288,17.72337 -11.55715,3.70254 -24.37386,3.88385 -36.48101,2.18388 -10.66245,-1.76801 -20.47503,-5.93948 -29.62582,-10.7 -6.9353,3.33378 -13.83439,7.01725 -20.68936,10.47139 0.69041,1.40236 2.56874,2.30851 3.7845,3.44548 12.64641,9.74621 27.91753,17.6413 45.06417,20.29482 9.06389,1.6231 18.47353,1.4533 27.60284,0.31869 19.37419,-2.73196 37.30811,-10.64776 52.16376,-21.18103 1.08779,-0.6406 1.90353,-1.76677 3.13943,-2.16001 1.57298,-0.0899 2.93295,-1.32225 4.37837,-1.86361 5.59231,-3.0356 11.4235,-5.92084 16.52211,-9.47084 0.24323,-0.50206 1.27277,-0.30597 1.69811,-0.77906 7.36445,-3.8914 14.4358,-8.19055 22.42068,-11.18062 5.14784,-2.14079 10.86899,-3.35124 16.67248,-3.10965 5.87941,-0.16532 11.7516,0.5727 17.29216,2.17447 10.30297,2.70811 19.47088,7.55057 28.70358,12.06998 1.67752,-0.19256 3.14097,-1.40858 4.69777,-2.00556 6.15368,-3.00481 12.22474,-6.12018 18.28633,-9.25252 -0.67183,-1.14191 -2.46325,-1.9084 -3.5783,-2.88222 -16.59223,-11.35787 -36.8884,-19.74137 -58.5724,-21.05457 -2.13243,-0.11526 -4.26979,-0.18108 -6.40691,-0.15276 z"
         style="fill:#ffff00;fill-opacity:1;fill-rule:evenodd;stroke:#fa0000;stroke-width:0.53587067;stroke-linejoin:round;stroke-miterlimit:4;stroke-opacity:1;stroke-dasharray:none" />
      <path
         transform="translate(-929.08195,-128.28055)"
         inkscape:connector-curvature="0"
         id="path14732"
         d="m 362.67987,469.81354 c -8.90337,4.59417 -17.76879,9.2818 -27.06688,12.98371 -13.07526,6.10465 -27.30282,10.73771 -41.91557,9.82759 -11.91657,-0.15438 -23.51934,-3.53098 -34.08214,-8.92427 -2.21045,-0.54735 -4.64158,-3.62574 -6.74831,-1.48262 -6.05999,3.87914 -12.67898,7.03469 -18.78877,10.70931 0.22699,1.96216 2.74384,2.86652 3.99023,4.17554 14.74223,11.07651 32.46357,18.63882 50.98359,19.80292 10.90203,0.12296 21.98116,0.0309 32.48782,-3.24455 15.16698,-4.31351 29.66879,-11.24873 42.17774,-20.89451 0.28229,-6.78553 -0.42761,-13.75531 -0.32119,-20.61827 -0.19441,-0.62847 0.52112,-2.59636 -0.71652,-2.33485 z"
         style="fill:#ffffff;fill-opacity:1;fill-rule:evenodd;stroke:#fa0000;stroke-width:0.79063469;stroke-linejoin:round;stroke-miterlimit:4;stroke-opacity:1;stroke-dasharray:none" />
    </g>
  </g>
</svg>
