<?xml version="1.0" encoding="UTF-8" standalone="no"?>
<!-- Created with Inkscape (http://www.inkscape.org/) -->

<svg
   xmlns:dc="http://purl.org/dc/elements/1.1/"
   xmlns:cc="http://creativecommons.org/ns#"
   xmlns:rdf="http://www.w3.org/1999/02/22-rdf-syntax-ns#"
   xmlns:svg="http://www.w3.org/2000/svg"
   xmlns="http://www.w3.org/2000/svg"
   xmlns:xlink="http://www.w3.org/1999/xlink"
   xmlns:sodipodi="http://sodipodi.sourceforge.net/DTD/sodipodi-0.dtd"
   xmlns:inkscape="http://www.inkscape.org/namespaces/inkscape"
   width="7.6006169"
   height="34.60479"
   id="svg2"
   version="1.1"
   inkscape:version="0.48.3.1 r9886"
   sodipodi:docname="New document 1">
  <defs
     id="defs4">
    <linearGradient
       inkscape:collect="always"
       id="linearGradient3294">
      <stop
         style="stop-color:#008080;stop-opacity:1;"
         offset="0"
         id="stop3296" />
      <stop
         style="stop-color:#008080;stop-opacity:0;"
         offset="1"
         id="stop3298" />
    </linearGradient>
    <linearGradient
       inkscape:collect="always"
       id="linearGradient3286">
      <stop
         style="stop-color:#008080;stop-opacity:1;"
         offset="0"
         id="stop3288" />
      <stop
         style="stop-color:#008080;stop-opacity:0;"
         offset="1"
         id="stop3290" />
    </linearGradient>
    <linearGradient
       inkscape:collect="always"
       id="linearGradient3278">
      <stop
         style="stop-color:#008080;stop-opacity:1;"
         offset="0"
         id="stop3280" />
      <stop
         style="stop-color:#008080;stop-opacity:0;"
         offset="1"
         id="stop3282" />
    </linearGradient>
    <linearGradient
       inkscape:collect="always"
       id="linearGradient3270">
      <stop
         style="stop-color:#008080;stop-opacity:1;"
         offset="0"
         id="stop3272" />
      <stop
         style="stop-color:#008080;stop-opacity:0;"
         offset="1"
         id="stop3274" />
    </linearGradient>
    <linearGradient
       inkscape:collect="always"
       id="linearGradient3262">
      <stop
         style="stop-color:#008080;stop-opacity:1;"
         offset="0"
         id="stop3264" />
      <stop
         style="stop-color:#008080;stop-opacity:0;"
         offset="1"
         id="stop3266" />
    </linearGradient>
    <symbol
       id="CP-Axial-0">
      <path
         id="path3005"
         d="m 38.976378,1052.3622 0,39.8622"
         style="fill:none;stroke:#ff0000;stroke-linecap:round"
         inkscape:connector-curvature="0" />
      <path
         id="path3007"
         d="m 38.976378,1052.3622 0,39.8622"
         style="fill:none;stroke:#000000;stroke-linecap:round"
         inkscape:connector-curvature="0" />
      <path
         id="path3009"
         d="m 15.813472,967.79054 c 1.331598,3.43996 5.446371,6.54703 5.446371,6.54703"
         style="fill:none;stroke:#000000;stroke-width:0.5;stroke-linecap:round"
         inkscape:connector-curvature="0" />
      <path
         id="path3011"
         d="m 12.401575,974.00467 c 1.619303,-3.64721 2.5156,-4.93067 2.963749,-5.5724 0.448148,-0.64173 0.448148,-0.64173 0.448148,-0.64173 0,0 0,0 0,0"
         style="fill:none;stroke:#000000;stroke-width:0.5;stroke-linecap:round"
         inkscape:connector-curvature="0" />
      <path
         id="path3013"
         d="m 15.813472,1008.4043 c 1.331598,3.4399 5.446371,6.547 5.446371,6.547"
         style="fill:none;stroke:#000000;stroke-width:0.5;stroke-linecap:round"
         inkscape:connector-curvature="0" />
      <path
         id="path3015"
         d="m 12.401575,1014.6184 c 1.619303,-3.6472 2.5156,-4.9307 2.963749,-5.5724 0.448148,-0.6417 0.448148,-0.6417 0.448148,-0.6417 0,0 0,0 0,0"
         style="fill:none;stroke:#000000;stroke-width:0.5;stroke-linecap:round"
         inkscape:connector-curvature="0" />
      <path
         id="path3017"
         d="m 15.944882,997.44095 0,-8.85827"
         style="fill:none;stroke:#000000;stroke-linecap:round"
         inkscape:connector-curvature="0" />
      <path
         id="path3019"
         d="m 16.09609,958.16593 0,-8.85827"
         style="fill:none;stroke:#000000;stroke-linecap:round"
         inkscape:connector-curvature="0" />
      <path
         id="path3021"
         d="m 16.079792,1027.4905 -0.08877,2.752"
         style="fill:none;stroke:#000000;stroke-linecap:round"
         inkscape:connector-curvature="0" />
      <path
         id="path3023"
         d="m 15.991018,1030.2425 c 1.242825,2.4856 1.775464,4.5274 1.864238,4.5274"
         style="fill:none;stroke:#000000;stroke-linecap:round"
         inkscape:connector-curvature="0" />
      <path
         id="path3025"
         d="m 12.401575,1043.5039 a 9.381547,9.381547 0 0 0 0,-13.2874"
         style="fill:none;stroke:#000000;stroke-width:0.5;stroke-linecap:round"
         inkscape:connector-curvature="0" />
      <path
         id="path3027"
         d="m 21.259843,1043.5039 a 20.116703,20.116703 0 0 0 0,-13.2874"
         style="fill:none;stroke:#000000;stroke-width:0.5;stroke-linecap:round"
         inkscape:connector-curvature="0" />
      <path
         id="path3029"
         d="m 12.401575,1052.3622 0,-8.8583"
         style="fill:none;stroke:#ff0000;stroke-width:0.5;stroke-linecap:round"
         inkscape:connector-curvature="0" />
      <path
         id="path3031"
         d="m 21.259843,1052.3622 0,-8.8583"
         style="fill:none;stroke:#ff0000;stroke-width:0.5;stroke-linecap:round"
         inkscape:connector-curvature="0" />
      <path
         id="path3033"
         d="m 38.976378,870.76772 0,39.8622"
         style="fill:none;stroke:#ff0000;stroke-linecap:round"
         inkscape:connector-curvature="0" />
      <path
         id="path3035"
         d="m 42.076772,910.40873 -0.221457,-5.53642 -6.200787,0 -0.221457,5.31496"
         style="fill:none;stroke:#ff0000;stroke-linecap:round"
         inkscape:connector-curvature="0" />
      <path
         id="path3037"
         d="m 38.976378,910.62992 0,-53.1496"
         style="fill:none;stroke:#000000;stroke-linecap:round"
         inkscape:connector-curvature="0" />
      <path
         id="path3039"
         d="m 35.654528,904.87231 6.200787,0"
         style="fill:none;stroke:#000000;stroke-linecap:round"
         inkscape:connector-curvature="0" />
      <path
         id="path3041"
         d="m 41.855315,904.87231 0.221457,5.53642"
         style="fill:none;stroke:#000000;stroke-linecap:round"
         inkscape:connector-curvature="0" />
      <path
         id="path3043"
         d="m 35.433071,910.18727 0.221457,-5.31496"
         style="fill:none;stroke:#000000;stroke-linecap:round"
         inkscape:connector-curvature="0" />
      <path
         id="path3045"
         d="m 21.259843,910.62992 0,119.58658"
         style="fill:none;stroke:#ff0000;stroke-width:0.5;stroke-linecap:round"
         inkscape:connector-curvature="0" />
      <path
         id="path3047"
         d="m 12.401575,910.62992 0,119.58658"
         style="fill:none;stroke:#ff0000;stroke-width:0.5;stroke-linecap:round"
         inkscape:connector-curvature="0" />
      <path
         id="path3049"
         d="m 87.914072,1036.6134 a 7.197343,7.197343 0 0 0 -0.01619,-0.295"
         style="fill:none;stroke:#ff0000;stroke-linecap:round"
         inkscape:connector-curvature="0" />
      <path
         id="path3051"
         d="m 77.952756,1030.2165 a 6.805766,6.805766 0 0 0 0,13.2874"
         style="fill:none;stroke:#000000;stroke-linecap:round"
         inkscape:connector-curvature="0" />
      <path
         id="path3053"
         d="m 77.952756,1043.5039 0,6.6437"
         style="fill:none;stroke:#000000;stroke-linecap:round"
         inkscape:connector-curvature="0" />
      <path
         id="path3055"
         d="m 75.738189,1052.3622 a 2.214567,2.214567 0 0 0 2.214567,-2.2146"
         style="fill:none;stroke:#000000;stroke-linecap:round"
         inkscape:connector-curvature="0" />
      <path
         id="path3057"
         d="m 77.952756,915.05905 a 4.429134,4.429134 0 0 0 -4.429134,-4.42913"
         style="fill:none;stroke:#000000;stroke-linecap:round"
         inkscape:connector-curvature="0" />
      <path
         id="path3059"
         d="m 77.952756,915.05905 0,115.15745"
         style="fill:none;stroke:#000000;stroke-linecap:round"
         inkscape:connector-curvature="0" />
      <path
         id="path3061"
         d="m 0,1043.5039 a 6.805766,6.805766 0 0 0 0,-13.2874"
         style="fill:none;stroke:#000000;stroke-linecap:round"
         inkscape:connector-curvature="0" />
      <path
         id="path3063"
         d="m 0,1050.1476 0,-6.6437"
         style="fill:none;stroke:#000000;stroke-linecap:round"
         inkscape:connector-curvature="0" />
      <path
         id="path3065"
         d="m 0,1050.1476 a 2.214567,2.214567 0 0 0 2.214567,2.2146"
         style="fill:none;stroke:#000000;stroke-linecap:round"
         inkscape:connector-curvature="0" />
      <path
         id="path3067"
         d="M 4.429134,910.62992 A 4.429134,4.429134 0 0 0 0,915.05905"
         style="fill:none;stroke:#000000;stroke-linecap:round"
         inkscape:connector-curvature="0" />
      <path
         id="path3069"
         d="M 0,1030.2165 0,915.05905"
         style="fill:none;stroke:#000000;stroke-linecap:round"
         inkscape:connector-curvature="0" />
      <path
         id="path3071"
         d="m 75.738189,1052.3622 -73.523622,0"
         style="fill:none;stroke:#000000;stroke-linecap:round"
         inkscape:connector-curvature="0" />
      <path
         id="path3073"
         d="m 4.429134,910.62992 69.094488,0"
         style="fill:none;stroke:#000000;stroke-linecap:round"
         inkscape:connector-curvature="0" />
      <path
         id="path3075"
         d="m 15.813472,928.34646 c 1.331598,3.43996 5.446371,6.54702 5.446371,6.54702"
         style="fill:none;stroke:#000000;stroke-width:0.5;stroke-linecap:round"
         inkscape:connector-curvature="0" />
      <path
         id="path3077"
         d="m 12.401575,934.56058 c 1.619303,-3.6472 2.5156,-4.93066 2.963749,-5.57239 0.448148,-0.64173 0.448148,-0.64173 0.448148,-0.64173 0,0 0,0 0,0"
         style="fill:none;stroke:#000000;stroke-width:0.5;stroke-linecap:round"
         inkscape:connector-curvature="0" />
    </symbol>
    <symbol
       id="*Paper_Space0" />
    <symbol
       id="*Paper_Space" />
    <symbol
       id="*Model_Space" />
    <pattern
       id="Hatch"
       x="0"
       y="0"
       patternUnits="userSpaceOnUse"
       width="8"
       height="8">
      <path
         id="path2995"
         d="M8 4 l-4,4"
         stroke-width="0.25"
         stroke="#000000"
         linecap="square" />
      <path
         id="path2997"
         d="M6 2 l-4,4"
         stroke-width="0.25"
         stroke="#000000"
         linecap="square" />
      <path
         id="path2999"
         d="M4 0 l-4,4"
         stroke-width="0.25"
         stroke="#000000"
         linecap="square" />
    </pattern>
    <marker
       orient="auto"
       id="DistanceX"
       style="overflow:visible"
       refX="0"
       refY="0">
      <path
         id="path2992"
         d="M 3,-3 -3,3 M 0,-5 0,5"
         style="stroke:#000000;stroke-width:0.5"
         inkscape:connector-curvature="0" />
    </marker>
    <linearGradient
       inkscape:collect="always"
       xlink:href="#linearGradient3262"
       id="linearGradient3268"
       x1="5.9821429"
       y1="25.319075"
       x2="-3.5714285"
       y2="25.453005"
       gradientUnits="userSpaceOnUse"
       gradientTransform="translate(790.48541,809.03178)" />
    <linearGradient
       inkscape:collect="always"
       xlink:href="#linearGradient3270"
       id="linearGradient3276"
       x1="5.5357141"
       y1="20.319075"
       x2="-3.75"
       y2="19.694075"
       gradientUnits="userSpaceOnUse"
       gradientTransform="translate(790.48541,809.03178)" />
    <linearGradient
       inkscape:collect="always"
       xlink:href="#linearGradient3278"
       id="linearGradient3284"
       x1="5.7142859"
       y1="17.328005"
       x2="-2.6339285"
       y2="17.060146"
       gradientUnits="userSpaceOnUse"
       gradientTransform="translate(790.48541,809.03178)" />
    <linearGradient
       inkscape:collect="always"
       xlink:href="#linearGradient3286"
       id="linearGradient3292"
       x1="6.25"
       y1="14.783361"
       x2="-2.6339285"
       y2="14.158361"
       gradientUnits="userSpaceOnUse"
       gradientTransform="translate(790.48541,809.03178)" />
    <linearGradient
       inkscape:collect="always"
       xlink:href="#linearGradient3294"
       id="linearGradient3300"
       x1="5.9821429"
       y1="9.4708614"
       x2="-10.982142"
       y2="9.5601463"
       gradientUnits="userSpaceOnUse"
       gradientTransform="translate(790.48541,809.03178)" />
    <linearGradient
       inkscape:collect="always"
       xlink:href="#linearGradient3294"
       id="linearGradient3352"
       gradientUnits="userSpaceOnUse"
       gradientTransform="translate(790.48541,809.03178)"
       x1="5.9821429"
       y1="9.4708614"
       x2="-10.982142"
       y2="9.5601463" />
    <linearGradient
       inkscape:collect="always"
       xlink:href="#linearGradient3286"
       id="linearGradient3354"
       gradientUnits="userSpaceOnUse"
       gradientTransform="translate(790.48541,809.03178)"
       x1="6.25"
       y1="14.783361"
       x2="-2.6339285"
       y2="14.158361" />
    <linearGradient
       inkscape:collect="always"
       xlink:href="#linearGradient3278"
       id="linearGradient3356"
       gradientUnits="userSpaceOnUse"
       gradientTransform="translate(790.48541,809.03178)"
       x1="5.7142859"
       y1="17.328005"
       x2="-2.6339285"
       y2="17.060146" />
    <linearGradient
       inkscape:collect="always"
       xlink:href="#linearGradient3270"
       id="linearGradient3358"
       gradientUnits="userSpaceOnUse"
       gradientTransform="translate(790.48541,809.03178)"
       x1="5.5357141"
       y1="20.319075"
       x2="-3.75"
       y2="19.694075" />
    <linearGradient
       inkscape:collect="always"
       xlink:href="#linearGradient3262"
       id="linearGradient3360"
       gradientUnits="userSpaceOnUse"
       gradientTransform="translate(790.48541,809.03178)"
       x1="5.9821429"
       y1="25.319075"
       x2="-3.5714285"
       y2="25.453005" />
  </defs>
  <sodipodi:namedview
     id="base"
     pagecolor="#ffffff"
     bordercolor="#666666"
     borderopacity="1.0"
     inkscape:pageopacity="0.0"
     inkscape:pageshadow="2"
     inkscape:zoom="22.4"
     inkscape:cx="7.6235353"
     inkscape:cy="17.080376"
     inkscape:document-units="px"
     inkscape:current-layer="layer1"
     showgrid="false"
     fit-margin-top="0"
     fit-margin-left="0"
     fit-margin-right="0"
     fit-margin-bottom="0"
     inkscape:window-width="1206"
     inkscape:window-height="1024"
     inkscape:window-x="694"
     inkscape:window-y="0"
     inkscape:window-maximized="0" />
  <metadata
     id="metadata7">
    <rdf:RDF>
      <cc:Work
         rdf:about="">
        <dc:format>image/svg+xml</dc:format>
        <dc:type
           rdf:resource="http://purl.org/dc/dcmitype/StillImage" />
        <dc:title></dc:title>
      </cc:Work>
    </rdf:RDF>
  </metadata>
  <g
     inkscape:label="Layer 1"
     inkscape:groupmode="layer"
     id="layer1"
     transform="translate(-801.91398,-809.34428)">
    <g
       id="g3302"
       transform="translate(11.383929,0.13392857)">
      <g
         transform="translate(551.33036,-214.73216)"
         id="g3166">
        <g
           inkscape:label="0"
           id="g3079">
          <path
             inkscape:connector-curvature="0"
             style="fill:none;stroke:#000000;stroke-linecap:round"
             d="m 240.1875,1034.9247 c -0.5625,-2.25 -0.5625,-2.8125 -0.375,-3.2812 0.1875,-0.4688 0.5625,-0.8438 1.27396,-1.0313 0.71146,-0.1874 1.75939,-0.1874 1.91354,-0.75"
             id="path3081" />
          <path
             inkscape:connector-curvature="0"
             style="fill:none;stroke:#000000;stroke-linecap:round"
             d="m 245.8125,1034.9247 c 0.5625,-2.25 0.5625,-2.8125 0.375,-3.2812 -0.1875,-0.4688 -0.5625,-0.8438 -1.27484,-1.0376 -0.71235,-0.1938 -1.76204,-0.2065 -1.91266,-0.7437"
             id="path3083" />
          <path
             inkscape:connector-curvature="0"
             style="fill:none;stroke:#000000;stroke-linecap:round"
             d="m 240.1875,1047.2997 c -0.5625,2.25 -0.5625,2.8125 -0.375,3.2813 0.1875,0.4687 0.5625,0.8437 1.27396,1.0312 0.71146,0.1874 1.75939,0.1874 1.91354,0.75"
             id="path3085" />
          <path
             inkscape:connector-curvature="0"
             style="fill:none;stroke:#000000;stroke-linecap:round"
             d="m 245.8125,1047.2997 c 0.5625,2.25 0.5625,2.8125 0.375,3.2813 -0.1875,0.4687 -0.5625,0.8437 -1.27484,1.0375 -0.71235,0.1938 -1.76204,0.2065 -1.91266,0.7437"
             id="path3087" />
          <path
             inkscape:connector-curvature="0"
             style="fill:none;stroke:#000000;stroke-linecap:round"
             d="m 240.1875,1034.9247 0,12.375"
             id="path3089" />
          <path
             inkscape:connector-curvature="0"
             style="fill:none;stroke:#000000;stroke-linecap:round"
             d="m 245.8125,1047.2997 0,-12.375"
             id="path3091" />
          <path
             inkscape:connector-curvature="0"
             style="fill:none;stroke:#000000;stroke-linecap:round"
             d="m 243,1052.3622 0,5.5364"
             id="path3093" />
          <path
             inkscape:connector-curvature="0"
             style="fill:none;stroke:#000000;stroke-linecap:round"
             d="m 243,1029.8622 0,-5.5364"
             id="path3095" />
          <path
             inkscape:connector-curvature="0"
             style="fill:none;stroke:#000000;stroke-linecap:round"
             d="m 240.1875,1037.7372 c 2.77264,-0.167 5.625,0 5.625,0"
             id="path3097" />
          <path
             inkscape:connector-curvature="0"
             style="fill:none;stroke:#000000;stroke-linecap:round"
             d="m 240.1875,1039.4247 c 2.77264,-0.167 5.625,0 5.625,0"
             id="path3099" />
          <path
             inkscape:connector-curvature="0"
             style="fill:none;stroke:#000000;stroke-linecap:round"
             d="m 240.1875,1036.8305 c 2.77264,-0.167 5.625,0 5.625,0"
             id="path3101" />
          <path
             inkscape:connector-curvature="0"
             style="fill:none;stroke:#000000;stroke-linecap:round"
             d="m 240.1875,1040.3368 c 2.77264,-0.167 5.625,0 5.625,0"
             id="path3103" />
          <path
             inkscape:connector-curvature="0"
             style="fill:none;stroke:#000000;stroke-linecap:round"
             d="m 240.1875,1042.077 c 2.77264,-0.167 5.625,0 5.625,0"
             id="path3105" />
          <path
             inkscape:connector-curvature="0"
             style="fill:none;stroke:#000000;stroke-linecap:round"
             d="m 240.1875,1043.038 c 2.77264,-0.167 5.625,0 5.625,0"
             id="path3107" />
          <path
             inkscape:connector-curvature="0"
             style="fill:none;stroke:#000000;stroke-linecap:round"
             d="m 240.1875,1045.5675 c 2.77264,-0.167 5.625,0 5.625,0"
             id="path3109" />
          <path
             inkscape:connector-curvature="0"
             style="fill:none;stroke:#000000;stroke-linecap:round"
             d="m 240.1875,1046.5285 c 2.77264,-0.167 5.625,0 5.625,0"
             id="path3111" />
        </g>
        <g
           inkscape:label="Background"
           id="g3113" />
      </g>
      <g
         style="fill:#ffffff"
         id="g3204"
         transform="translate(551.33036,-214.7768)">
        <g
           style="fill:#ffffff"
           id="g3206"
           inkscape:label="0">
          <path
             id="path3208"
             d="m 240.1875,1034.9247 c -0.5625,-2.25 -0.5625,-2.8125 -0.375,-3.2812 0.1875,-0.4688 0.5625,-0.8438 1.27396,-1.0313 0.71146,-0.1874 1.75939,-0.1874 1.91354,-0.75"
             style="fill:#ffffff;stroke:#000000;stroke-linecap:round"
             inkscape:connector-curvature="0" />
          <path
             id="path3210"
             d="m 245.8125,1034.9247 c 0.5625,-2.25 0.5625,-2.8125 0.375,-3.2812 -0.1875,-0.4688 -0.5625,-0.8438 -1.27484,-1.0376 -0.71235,-0.1938 -1.76204,-0.2065 -1.91266,-0.7437"
             style="fill:#ffffff;stroke:#000000;stroke-linecap:round"
             inkscape:connector-curvature="0" />
          <path
             id="path3212"
             d="m 240.1875,1047.2997 c -0.5625,2.25 -0.5625,2.8125 -0.375,3.2813 0.1875,0.4687 0.5625,0.8437 1.27396,1.0312 0.71146,0.1874 1.75939,0.1874 1.91354,0.75"
             style="fill:#ffffff;stroke:#000000;stroke-linecap:round"
             inkscape:connector-curvature="0" />
          <path
             id="path3214"
             d="m 245.8125,1047.2997 c 0.5625,2.25 0.5625,2.8125 0.375,3.2813 -0.1875,0.4687 -0.5625,0.8437 -1.27484,1.0375 -0.71235,0.1938 -1.76204,0.2065 -1.91266,0.7437"
             style="fill:#ffffff;stroke:#000000;stroke-linecap:round"
             inkscape:connector-curvature="0" />
          <path
             id="path3216"
             d="m 240.1875,1034.9247 0,12.375"
             style="fill:#ffffff;stroke:#000000;stroke-linecap:round"
             inkscape:connector-curvature="0" />
          <path
             id="path3218"
             d="m 245.8125,1047.2997 0,-12.375"
             style="fill:#ffffff;stroke:#000000;stroke-linecap:round"
             inkscape:connector-curvature="0" />
          <path
             id="path3220"
             d="m 243,1052.3622 0,5.5364"
             style="fill:#ffffff;stroke:#000000;stroke-linecap:round"
             inkscape:connector-curvature="0" />
          <path
             id="path3222"
             d="m 243,1029.8622 0,-5.5364"
             style="fill:#ffffff;stroke:#000000;stroke-linecap:round"
             inkscape:connector-curvature="0" />
          <path
             id="path3224"
             d="m 240.1875,1037.7372 c 2.77264,-0.167 5.625,0 5.625,0"
             style="fill:#ffffff;stroke:#000000;stroke-linecap:round"
             inkscape:connector-curvature="0" />
          <path
             id="path3226"
             d="m 240.1875,1039.4247 c 2.77264,-0.167 5.625,0 5.625,0"
             style="fill:#ffffff;stroke:#000000;stroke-linecap:round"
             inkscape:connector-curvature="0" />
          <path
             id="path3228"
             d="m 240.1875,1036.8305 c 2.77264,-0.167 5.625,0 5.625,0"
             style="fill:#ffffff;stroke:#000000;stroke-linecap:round"
             inkscape:connector-curvature="0" />
          <path
             id="path3230"
             d="m 240.1875,1040.3368 c 2.77264,-0.167 5.625,0 5.625,0"
             style="fill:#ffffff;stroke:#000000;stroke-linecap:round"
             inkscape:connector-curvature="0" />
          <path
             id="path3232"
             d="m 240.1875,1042.077 c 2.77264,-0.167 5.625,0 5.625,0"
             style="fill:#ffffff;stroke:#000000;stroke-linecap:round"
             inkscape:connector-curvature="0" />
          <path
             id="path3234"
             d="m 240.1875,1043.038 c 2.77264,-0.167 5.625,0 5.625,0"
             style="fill:#ffffff;stroke:#000000;stroke-linecap:round"
             inkscape:connector-curvature="0" />
          <path
             id="path3236"
             d="m 240.1875,1045.5675 c 2.77264,-0.167 5.625,0 5.625,0"
             style="fill:#ffffff;stroke:#000000;stroke-linecap:round"
             inkscape:connector-curvature="0" />
          <path
             id="path3238"
             d="m 240.1875,1046.5285 c 2.77264,-0.167 5.625,0 5.625,0"
             style="fill:#ffffff;stroke:#000000;stroke-linecap:round"
             inkscape:connector-curvature="0" />
        </g>
        <g
           style="fill:#ffffff"
           id="g3240"
           inkscape:label="Background" />
      </g>
      <path
         transform="translate(801.91398,809.34428)"
         inkscape:connector-curvature="0"
         id="path3242"
         d="m -7.7762974,6.062191 c -0.8456056,0.4230075 -1.9415895,0.2821296 -2.6506696,0.9821428 -0.516352,0.5287198 -0.472485,1.3201729 -0.33284,1.9887522 0.143769,0.8632113 0.467548,1.710655 0.392829,2.601092 -0.0076,0.356859 -0.06557,0.894998 0.3899642,0.990649 0.8158949,0.05591 1.6489791,0.0072 2.4713638,0.02358 0.7558016,-0.01415 1.5185474,0.02843 2.2699647,-0.02154 0.4351255,-0.0598 0.4377621,-0.569908 0.4243197,-0.911632 -0.013856,-0.675289 0.073361,-1.34075 0.2578714,-1.9898263 C -4.400921,8.9454448 -4.124092,8.0593086 -4.5396902,7.3135861 -4.9304755,6.6175464 -5.7856665,6.4872518 -6.490025,6.3384187 -6.8784195,6.2844855 -7.2225461,6.0930468 -7.6005161,6.0175481 -7.6591099,6.0324291 -7.7177036,6.04731 -7.7762974,6.062191 z"
         style="fill:#ffffff;fill-opacity:1;fill-rule:evenodd;stroke:#ff0000;stroke-width:0.01758929;stroke-miterlimit:4;stroke-dasharray:none" />
      <path
         transform="translate(801.91398,809.34428)"
         inkscape:connector-curvature="0"
         id="path3244"
         d="m -8.4068777,13.581722 c -0.5548037,0.02847 -1.1275736,-0.03917 -1.6685503,0.09256 -0.374442,0.223133 -0.265288,0.720796 -0.285092,1.088113 0.01329,0.406223 0.4646339,0.531299 0.8026936,0.475299 1.4286115,-0.0073 2.8607682,0.01442 4.2871866,-0.01077 0.4029286,-0.02672 0.5061282,-0.477652 0.456117,-0.81094 0.046696,-0.339053 -0.053278,-0.770002 -0.4520089,-0.820313 -1.046718,-0.0099 -2.0935614,-0.02347 -3.140346,-0.01395 z"
         style="fill:#ffffff;fill-opacity:1;fill-rule:evenodd;stroke:#ff0000;stroke-width:0.01758929;stroke-miterlimit:4;stroke-dasharray:none" />
      <path
         transform="translate(801.91398,809.34428)"
         inkscape:connector-curvature="0"
         id="path3246"
         d="m -8.3231724,16.183564 c -0.5773165,0.03333 -1.1806305,-0.06244 -1.7381486,0.109124 -0.427572,0.175154 -0.279239,0.713507 -0.305657,1.079492 0.01079,0.392727 0.4254524,0.559892 0.7672989,0.499442 1.4425672,-0.0076 2.8886713,0.01483 4.3290393,-0.0094 0.4245777,-0.02993 0.5025804,-0.508781 0.456117,-0.851398 0.054663,-0.339043 -0.096141,-0.750666 -0.4851781,-0.775367 -1.0019846,-0.0891 -2.0180058,-0.03852 -3.0234715,-0.05192 z"
         style="fill:#ffffff;fill-opacity:1;fill-rule:evenodd;stroke:#ff0000;stroke-width:0.01758929;stroke-miterlimit:4;stroke-dasharray:none" />
      <path
         transform="translate(801.91398,809.34428)"
         inkscape:connector-curvature="0"
         id="path3248"
         d="m -8.0553152,18.862135 c -0.6525145,0.02418 -1.3171683,-0.0053 -1.9603238,0.0933 -0.451711,0.129279 -0.34193,0.681158 -0.351339,1.042299 0.05084,0.429631 -0.149702,0.972156 0.221819,1.294643 0.439586,0.173249 0.9312771,0.04385 1.3936942,0.08371 1.1738524,-0.01424 2.3546858,0.02856 3.52415,-0.02153 0.4196965,-0.05546 0.4454469,-0.545752 0.412792,-0.879694 -0.038301,-0.438372 0.089388,-0.918359 -0.088585,-1.326315 -0.2866446,-0.376423 -0.8228056,-0.193552 -1.2297741,-0.259901 -0.6404988,-0.0222 -1.2815536,-0.03222 -1.922433,-0.02651 z"
         style="fill:#ffffff;fill-opacity:1;fill-rule:evenodd;stroke:#ff0000;stroke-width:0.01758929;stroke-miterlimit:4;stroke-dasharray:none" />
      <path
         transform="translate(801.91398,809.34428)"
         inkscape:connector-curvature="0"
         id="path3250"
         d="m -8.536621,22.367995 c -0.5254673,0.03103 -1.0683302,-0.03723 -1.579241,0.09766 -0.342834,0.216341 -0.205036,0.649871 -0.322266,0.979353 -0.163106,0.917077 -0.518361,1.838239 -0.366908,2.780412 0.125661,0.656148 0.716066,1.095852 1.3420757,1.226284 0.5690138,0.147692 1.1635808,0.233459 1.7117746,0.458984 0.4230713,0.08496 0.7793703,-0.213738 1.1928013,-0.251116 0.7066643,-0.141449 1.5211326,-0.267485 1.9601005,-0.910993 0.4602991,-0.624617 0.2395495,-1.447234 0.1199776,-2.145647 -0.1331759,-0.614802 -0.2749022,-1.231487 -0.3823558,-1.846675 -0.1467942,-0.482488 -0.7400799,-0.335579 -1.1256261,-0.368284 -0.8499821,-0.01675 -1.700183,-0.02919 -2.5503328,-0.01997 z"
         style="fill:#ffffff;fill-opacity:1;fill-rule:evenodd;stroke:#ff0000;stroke-width:0.01758929;stroke-miterlimit:4;stroke-dasharray:none" />
      <path
         inkscape:connector-curvature="0"
         id="path3252"
         d="m 794.13768,815.45111 c -0.8456,0.42301 -1.94159,0.28213 -2.65067,0.98215 -0.51635,0.52872 -0.47248,1.32017 -0.33284,1.98875 0.14377,0.86321 0.46755,1.71065 0.39283,2.60109 -0.008,0.35686 -0.0656,0.895 0.38997,0.99065 0.81589,0.0559 1.64898,0.007 2.47136,0.0236 0.7558,-0.0141 1.51855,0.0284 2.26996,-0.0215 0.43513,-0.0598 0.43777,-0.56991 0.42432,-0.91163 -0.0139,-0.6753 0.0734,-1.34076 0.25788,-1.98983 0.15257,-0.77997 0.4294,-1.66611 0.0138,-2.41183 -0.39079,-0.69604 -1.24598,-0.82634 -1.95034,-0.97517 -0.38839,-0.0539 -0.73252,-0.24537 -1.11049,-0.32087 -0.0586,0.0149 -0.11718,0.0298 -0.17578,0.0446 z"
         style="fill:url(#linearGradient3352);fill-opacity:1;fill-rule:evenodd;stroke:#ff0000;stroke-width:0.01758929;stroke-miterlimit:4;stroke-dasharray:none" />
      <path
         inkscape:connector-curvature="0"
         id="path3254"
         d="m 793.5071,822.97064 c -0.5548,0.0285 -1.12757,-0.0392 -1.66855,0.0926 -0.37444,0.22314 -0.26529,0.7208 -0.28509,1.08812 0.0133,0.40622 0.46463,0.5313 0.80269,0.4753 1.42862,-0.007 2.86077,0.0144 4.28719,-0.0108 0.40293,-0.0267 0.50613,-0.47766 0.45612,-0.81094 0.0467,-0.33906 -0.0533,-0.77001 -0.45201,-0.82032 -1.04672,-0.01 -2.09356,-0.0235 -3.14035,-0.014 z"
         style="fill:url(#linearGradient3354);fill-opacity:1;fill-rule:evenodd;stroke:#ff0000;stroke-width:0.01758929;stroke-miterlimit:4;stroke-dasharray:none" />
      <path
         inkscape:connector-curvature="0"
         id="path3256"
         d="m 793.59081,825.57249 c -0.57732,0.0333 -1.18063,-0.0624 -1.73815,0.10912 -0.42757,0.17515 -0.27924,0.71351 -0.30566,1.07949 0.0108,0.39273 0.42545,0.55989 0.7673,0.49944 1.44257,-0.008 2.88867,0.0148 4.32904,-0.009 0.42458,-0.0299 0.50258,-0.50878 0.45612,-0.85139 0.0547,-0.33905 -0.0961,-0.75067 -0.48518,-0.77537 -1.00199,-0.0891 -2.01801,-0.0385 -3.02347,-0.0519 z"
         style="fill:url(#linearGradient3356);fill-opacity:1;fill-rule:evenodd;stroke:#ff0000;stroke-width:0.01758929;stroke-miterlimit:4;stroke-dasharray:none" />
      <path
         inkscape:connector-curvature="0"
         id="path3258"
         d="m 793.85866,828.25106 c -0.65251,0.0242 -1.31716,-0.005 -1.96032,0.0933 -0.45171,0.12928 -0.34193,0.68116 -0.35134,1.0423 0.0508,0.42963 -0.1497,0.97215 0.22182,1.29464 0.43959,0.17325 0.93128,0.0439 1.3937,0.0837 1.17385,-0.0142 2.35468,0.0286 3.52415,-0.0215 0.41969,-0.0555 0.44544,-0.54575 0.41279,-0.87969 -0.0383,-0.43838 0.0894,-0.91836 -0.0886,-1.32632 -0.28664,-0.37642 -0.8228,-0.19355 -1.22977,-0.2599 -0.6405,-0.0222 -1.28156,-0.0322 -1.92243,-0.0265 z"
         style="fill:url(#linearGradient3358);fill-opacity:1;fill-rule:evenodd;stroke:#ff0000;stroke-width:0.01758929;stroke-miterlimit:4;stroke-dasharray:none" />
      <path
         inkscape:connector-curvature="0"
         id="path3260"
         d="m 793.37736,831.75692 c -0.52547,0.031 -1.06833,-0.0372 -1.57924,0.0977 -0.34284,0.21634 -0.20504,0.64987 -0.32227,0.97935 -0.1631,0.91708 -0.51836,1.83824 -0.36691,2.78041 0.12566,0.65615 0.71607,1.09585 1.34208,1.22629 0.56901,0.14769 1.16358,0.23345 1.71177,0.45898 0.42308,0.085 0.77937,-0.21374 1.19281,-0.25112 0.70666,-0.14145 1.52113,-0.26748 1.9601,-0.91099 0.4603,-0.62462 0.23955,-1.44724 0.11997,-2.14565 -0.13317,-0.6148 -0.2749,-1.23149 -0.38235,-1.84667 -0.1468,-0.48249 -0.74008,-0.33558 -1.12563,-0.36829 -0.84998,-0.0167 -1.70018,-0.0292 -2.55033,-0.02 z"
         style="fill:url(#linearGradient3360);fill-opacity:1;fill-rule:evenodd;stroke:#ff0000;stroke-width:0.01758929;stroke-miterlimit:4;stroke-dasharray:none" />
    </g>
  </g>
</svg>
